<?xml version="1.0" encoding="UTF-8" standalone="no"?>
<!-- Created with Inkscape (http://www.inkscape.org/) -->

<svg
   width="70mm"
   height="58.039005mm"
   viewBox="0 0 70 58.039005"
   version="1.1"
   id="svg1"
   xml:space="preserve"
   inkscape:version="1.4.2 (f4327f4, 2025-05-13)"
   sodipodi:docname="mb1319.svg"
   xmlns:inkscape="http://www.inkscape.org/namespaces/inkscape"
   xmlns:sodipodi="http://sodipodi.sourceforge.net/DTD/sodipodi-0.dtd"
   xmlns="http://www.w3.org/2000/svg"
   xmlns:svg="http://www.w3.org/2000/svg"><sodipodi:namedview
     id="namedview1"
     pagecolor="#ffffff"
     bordercolor="#000000"
     borderopacity="0.25"
     inkscape:showpageshadow="2"
     inkscape:pageopacity="0.0"
     inkscape:pagecheckerboard="0"
     inkscape:deskcolor="#d1d1d1"
     inkscape:document-units="mm"
     inkscape:zoom="3.8954759"
     inkscape:cx="68.669403"
     inkscape:cy="43.255306"
     inkscape:window-width="1920"
     inkscape:window-height="991"
     inkscape:window-x="-9"
     inkscape:window-y="-9"
     inkscape:window-maximized="1"
     inkscape:current-layer="layer1" /><defs
     id="defs1" /><g
     inkscape:label="Layer 1"
     inkscape:groupmode="layer"
     id="layer1"
     transform="translate(-4.7167311e-7,-0.75106356)"><g
       id="g2"
       transform="translate(36.513418,35.347995)"><g
         id="g1"
         inkscape:label="1"
         transform="matrix(0.26458333,0,0,0.26458333,-104.97608,-148.57943)"><path
           id="path3"
           d="M 0,0 C 0,1.92 -1.76,3.68 -3.68,3.68 -5.6,3.68 -7.2,1.92 -7.2,0 c 0,-1.92 1.6,-3.52 3.52,-3.52 1.92,0 3.68,1.6 3.68,3.52 z"
           style="fill:#000000;fill-opacity:1;fill-rule:nonzero;stroke:none"
           transform="translate(485.92001,490.88)" /><path
           id="path4"
           d="M 0,0 C 0,1.92 -1.76,3.68 -3.68,3.68 -5.6,3.68 -7.2,1.92 -7.2,0 c 0,-1.92 1.6,-3.52 3.52,-3.52 1.92,0 3.68,1.6 3.68,3.52 z"
           style="fill:#000000;fill-opacity:1;fill-rule:nonzero;stroke:none"
           transform="translate(485.92001,500.48001)" /><path
           id="path5"
           d="M 0,0 C 0,1.92 -1.76,3.68 -3.68,3.68 -5.6,3.68 -7.2,1.92 -7.2,0 c 0,-1.92 1.6,-3.52 3.52,-3.52 1.92,0 3.68,1.6 3.68,3.52 z"
           style="fill:#000000;fill-opacity:1;fill-rule:nonzero;stroke:none"
           transform="translate(485.92001,481.27999)" /><path
           id="path6"
           d="M 0,0 C 0,1.92 -1.76,3.68 -3.68,3.68 -5.6,3.68 -7.2,1.92 -7.2,0 c 0,-1.92 1.6,-3.52 3.52,-3.52 1.92,0 3.68,1.6 3.68,3.52 z"
           style="fill:#000000;fill-opacity:1;fill-rule:nonzero;stroke:none"
           transform="translate(485.92001,510.07998)" /><path
           id="path7"
           d="M 0,0 C 0,1.92 -1.76,3.68 -3.68,3.68 -5.6,3.68 -7.2,1.92 -7.2,0 c 0,-1.92 1.6,-3.52 3.52,-3.52 1.92,0 3.68,1.6 3.68,3.52 z"
           style="fill:#000000;fill-opacity:1;fill-rule:nonzero;stroke:none"
           transform="translate(514.71997,535.03997)" /><path
           id="path8"
           d="M 0,0 C 0,1.92 -1.76,3.68 -3.68,3.68 -5.6,3.68 -7.2,1.92 -7.2,0 c 0,-1.92 1.6,-3.52 3.52,-3.52 1.92,0 3.68,1.6 3.68,3.52 z"
           style="fill:#000000;fill-opacity:1;fill-rule:nonzero;stroke:none"
           transform="translate(505.12,535.03997)" /><path
           id="path9"
           d="M 0,0 C 0,1.92 -1.76,3.68 -3.68,3.68 -5.6,3.68 -7.2,1.92 -7.2,0 c 0,-1.92 1.6,-3.52 3.52,-3.52 1.92,0 3.68,1.6 3.68,3.52 z"
           style="fill:#000000;fill-opacity:1;fill-rule:nonzero;stroke:none"
           transform="translate(514.71997,544.64001)" /><path
           id="path10"
           d="M 0,0 C 0,1.92 -1.76,3.68 -3.68,3.68 -5.6,3.68 -7.2,1.92 -7.2,0 c 0,-1.92 1.6,-3.52 3.52,-3.52 1.92,0 3.68,1.6 3.68,3.52 z"
           style="fill:#000000;fill-opacity:1;fill-rule:nonzero;stroke:none"
           transform="translate(514.71997,515.84002)" /><path
           id="path11"
           d="M 0,0 C 0,1.92 -1.76,3.68 -3.68,3.68 -5.6,3.68 -7.2,1.92 -7.2,0 c 0,-1.92 1.6,-3.52 3.52,-3.52 1.92,0 3.68,1.6 3.68,3.52 z"
           style="fill:#000000;fill-opacity:1;fill-rule:nonzero;stroke:none"
           transform="translate(505.12,515.84002)" /><path
           id="path12"
           d="M 0,0 C 0,1.92 -1.76,3.68 -3.68,3.68 -5.6,3.68 -7.2,1.92 -7.2,0 c 0,-1.92 1.6,-3.52 3.52,-3.52 1.92,0 3.68,1.6 3.68,3.52 z"
           style="fill:#000000;fill-opacity:1;fill-rule:nonzero;stroke:none"
           transform="translate(514.71997,525.44)" /><path
           id="path13"
           d="M 0,0 C 0,1.92 -1.76,3.68 -3.68,3.68 -5.6,3.68 -7.2,1.92 -7.2,0 c 0,-1.92 1.6,-3.52 3.52,-3.52 1.92,0 3.68,1.6 3.68,3.52 z"
           style="fill:#000000;fill-opacity:1;fill-rule:nonzero;stroke:none"
           transform="translate(505.12,525.44)" /><path
           id="path14"
           d="M 0,0 C 0,1.92 -1.76,3.68 -3.68,3.68 -5.6,3.68 -7.2,1.92 -7.2,0 c 0,-1.92 1.6,-3.52 3.52,-3.52 1.92,0 3.68,1.6 3.68,3.52 z"
           style="fill:#000000;fill-opacity:1;fill-rule:nonzero;stroke:none"
           transform="translate(505.12,487.04)" /><path
           id="path15"
           d="M 0,0 C 0,1.92 -1.76,3.68 -3.68,3.68 -5.6,3.68 -7.2,1.92 -7.2,0 c 0,-1.92 1.6,-3.52 3.52,-3.52 1.92,0 3.68,1.6 3.68,3.52 z"
           style="fill:#000000;fill-opacity:1;fill-rule:nonzero;stroke:none"
           transform="translate(514.71997,496.64001)" /><path
           id="path16"
           d="M 0,0 C 0,1.92 -1.76,3.68 -3.68,3.68 -5.6,3.68 -7.2,1.92 -7.2,0 c 0,-1.92 1.6,-3.52 3.52,-3.52 1.92,0 3.68,1.6 3.68,3.52 z"
           style="fill:#000000;fill-opacity:1;fill-rule:nonzero;stroke:none"
           transform="translate(514.71997,506.23998)" /><path
           id="path17"
           d="M 0,0 C 0,1.92 -1.76,3.68 -3.68,3.68 -5.6,3.68 -7.2,1.92 -7.2,0 c 0,-1.92 1.6,-3.52 3.52,-3.52 1.92,0 3.68,1.6 3.68,3.52 z"
           style="fill:#000000;fill-opacity:1;fill-rule:nonzero;stroke:none"
           transform="translate(505.12,506.23998)" /><path
           id="path18"
           d="M 0,0 C 0,1.92 -1.76,3.68 -3.68,3.68 -5.6,3.68 -7.2,1.92 -7.2,0 c 0,-1.92 1.6,-3.52 3.52,-3.52 1.92,0 3.68,1.6 3.68,3.52 z"
           style="fill:#000000;fill-opacity:1;fill-rule:nonzero;stroke:none"
           transform="translate(505.12,477.44)" /><path
           id="path19"
           d="M 0,0 C 0,1.92 -1.76,3.68 -3.68,3.68 -5.6,3.68 -7.2,1.92 -7.2,0 c 0,-1.92 1.6,-3.52 3.52,-3.52 1.92,0 3.68,1.6 3.68,3.52 z"
           style="fill:#000000;fill-opacity:1;fill-rule:nonzero;stroke:none"
           transform="translate(514.71997,477.44)" /><path
           id="path20"
           d="M 0,0 C 0,1.92 -1.76,3.68 -3.68,3.68 -5.6,3.68 -7.2,1.92 -7.2,0 c 0,-1.92 1.6,-3.52 3.52,-3.52 1.92,0 3.68,1.6 3.68,3.52 z"
           style="fill:#000000;fill-opacity:1;fill-rule:nonzero;stroke:none"
           transform="translate(514.71997,487.04)" /><path
           id="path21"
           d="M 0,0 C 0,1.92 -1.76,3.68 -3.68,3.68 -5.6,3.68 -7.2,1.92 -7.2,0 c 0,-1.92 1.6,-3.52 3.52,-3.52 1.92,0 3.68,1.6 3.68,3.52 z"
           style="fill:#000000;fill-opacity:1;fill-rule:nonzero;stroke:none"
           transform="translate(505.12,496.64001)" /><path
           id="path22"
           d="M 0,0 C 0,1.92 -1.76,3.68 -3.68,3.68 -5.6,3.68 -7.2,1.92 -7.2,0 c 0,-1.92 1.6,-3.52 3.52,-3.52 1.92,0 3.68,1.6 3.68,3.52 z"
           style="fill:#000000;fill-opacity:1;fill-rule:nonzero;stroke:none"
           transform="translate(505.12,544.64001)" /><path
           id="path23"
           d="M 0,0 C 0,1.92 -1.76,3.68 -3.68,3.68 -5.6,3.68 -7.2,1.92 -7.2,0 c 0,-1.92 1.6,-3.52 3.52,-3.52 1.92,0 3.68,1.6 3.68,3.52 z"
           style="fill:#000000;fill-opacity:1;fill-rule:nonzero;stroke:none"
           transform="translate(485.92001,538.88)" /><path
           id="path24"
           d="M 0,0 C 0,1.92 -1.76,3.68 -3.68,3.68 -5.6,3.68 -7.2,1.92 -7.2,0 c 0,-1.92 1.6,-3.52 3.52,-3.52 1.92,0 3.68,1.6 3.68,3.52 z"
           style="fill:#000000;fill-opacity:1;fill-rule:nonzero;stroke:none"
           transform="translate(485.92001,519.67999)" /><path
           id="path25"
           d="M 0,0 C 0,1.92 -1.76,3.68 -3.68,3.68 -5.6,3.68 -7.2,1.92 -7.2,0 c 0,-1.92 1.6,-3.52 3.52,-3.52 1.92,0 3.68,1.6 3.68,3.52 z"
           style="fill:#000000;fill-opacity:1;fill-rule:nonzero;stroke:none"
           transform="translate(485.92001,529.28002)" /><path
           id="path26"
           d="m 478.72,545.12 h 7.04001 V 552 H 478.72 Z m 19.20001,-90.24 h 7.03998 v 6.88001 h -7.03998 z"
           style="fill:#000000;fill-opacity:1;fill-rule:evenodd;stroke:none" /><path
           id="path27"
           d="M 0,0 C 0,1.92 -1.76,3.68 -3.68,3.68 -5.6,3.68 -7.2,1.92 -7.2,0 c 0,-1.92 1.6,-3.52 3.52,-3.52 1.92,0 3.68,1.6 3.68,3.52 z"
           style="fill:#000000;fill-opacity:1;fill-rule:nonzero;stroke:none"
           transform="translate(485.92001,471.67999)" /><path
           id="path28"
           d="M 0,0 C 0,1.92 -1.76,3.68 -3.68,3.68 -5.6,3.68 -7.2,1.92 -7.2,0 c 0,-1.92 1.6,-3.52 3.52,-3.52 1.92,0 3.68,1.6 3.68,3.52 z"
           style="fill:#000000;fill-opacity:1;fill-rule:nonzero;stroke:none"
           transform="translate(505.12,467.83999)" /><path
           id="path29"
           d="M 0,0 C 0,1.92 -1.76,3.68 -3.68,3.68 -5.6,3.68 -7.2,1.92 -7.2,0 c 0,-1.92 1.6,-3.52 3.52,-3.52 1.92,0 3.68,1.6 3.68,3.52 z"
           style="fill:#000000;fill-opacity:1;fill-rule:nonzero;stroke:none"
           transform="translate(514.71997,467.83999)" /><path
           id="path30"
           d="M 0,0 C 0,1.92 -1.76,3.68 -3.68,3.68 -5.6,3.68 -7.2,1.92 -7.2,0 c 0,-1.92 1.6,-3.52 3.52,-3.52 1.92,0 3.68,1.6 3.68,3.52 z"
           style="fill:#000000;fill-opacity:1;fill-rule:nonzero;stroke:none"
           transform="translate(514.71997,458.23998)" /><path
           id="path31"
           d="M 0,0 C 0,1.92 -1.76,3.68 -3.68,3.68 -5.6,3.68 -7.2,1.92 -7.2,0 c 0,-1.92 1.6,-3.52 3.52,-3.52 1.92,0 3.68,1.6 3.68,3.52 z"
           style="fill:#000000;fill-opacity:1;fill-rule:nonzero;stroke:none"
           transform="translate(485.92001,462.07998)" /><path
           id="path32"
           d="m 400.16,437.28 h 8.16001 v 5.76001 H 400.16 Z m 0,17.11999 h 8.16001 V 460.16 H 400.16 Z m -26.39999,0 h 8.16 V 460.16 h -8.16 z m 0,-17.11999 h 8.16 v 5.76001 h -8.16 z m 16.16,53.6 h 7.03998 v 6.88001 h -7.03998 z"
           style="fill:#000000;fill-opacity:1;fill-rule:evenodd;stroke:none" /><path
           id="path33"
           d="M 0,0 C 0,1.92 -1.76,3.68 -3.68,3.68 -5.6,3.68 -7.2,1.92 -7.2,0 c 0,-1.92 1.6,-3.52 3.52,-3.52 1.92,0 3.68,1.6 3.68,3.52 z"
           style="fill:#000000;fill-opacity:1;fill-rule:nonzero;stroke:none"
           transform="translate(387.51999,494.23998)" /><path
           id="path34"
           d="m 436.16,437.28 h 8.16001 v 5.76001 H 436.16 Z m 0,17.11999 h 8.16001 V 460.16 H 436.16 Z"
           style="fill:#000000;fill-opacity:1;fill-rule:evenodd;stroke:none" /><path
           id="path35"
           d="M 0,0 C 0,1.92 -1.76,3.68 -3.68,3.68 -5.6,3.68 -7.2,1.92 -7.2,0 c 0,-1.92 1.6,-3.52 3.52,-3.52 1.92,0 3.68,1.6 3.68,3.52 z"
           style="fill:#000000;fill-opacity:1;fill-rule:nonzero;stroke:none"
           transform="translate(485.92001,563.84002)" /><path
           id="path36"
           d="M 0,0 C 0,1.92 -1.76,3.68 -3.68,3.68 -5.6,3.68 -7.2,1.92 -7.2,0 c 0,-1.92 1.6,-3.52 3.52,-3.52 1.92,0 3.68,1.6 3.68,3.52 z"
           style="fill:#000000;fill-opacity:1;fill-rule:nonzero;stroke:none"
           transform="translate(485.92001,573.44)" /><path
           id="path37"
           d="M 0,0 C 0,1.92 -1.76,3.68 -3.68,3.68 -5.6,3.68 -7.2,1.92 -7.2,0 c 0,-1.92 1.6,-3.52 3.52,-3.52 1.92,0 3.68,1.6 3.68,3.52 z"
           style="fill:#000000;fill-opacity:1;fill-rule:nonzero;stroke:none"
           transform="translate(485.92001,592.64001)" /><path
           id="path38"
           d="M 0,0 C 0,1.92 -1.76,3.68 -3.68,3.68 -5.6,3.68 -7.2,1.92 -7.2,0 c 0,-1.92 1.6,-3.52 3.52,-3.52 1.92,0 3.68,1.6 3.68,3.52 z"
           style="fill:#000000;fill-opacity:1;fill-rule:nonzero;stroke:none"
           transform="translate(485.92001,583.03997)" /><path
           id="path39"
           d="M 0,0 C 0,1.92 -1.76,3.68 -3.68,3.68 -5.6,3.68 -7.2,1.92 -7.2,0 c 0,-1.92 1.6,-3.52 3.52,-3.52 1.92,0 3.68,1.6 3.68,3.52 z"
           style="fill:#000000;fill-opacity:1;fill-rule:nonzero;stroke:none"
           transform="translate(505.12,602.23998)" /><path
           id="path40"
           d="M 0,0 C 0,1.92 -1.76,3.68 -3.68,3.68 -5.6,3.68 -7.2,1.92 -7.2,0 c 0,-1.92 1.6,-3.52 3.52,-3.52 1.92,0 3.68,1.6 3.68,3.52 z"
           style="fill:#000000;fill-opacity:1;fill-rule:nonzero;stroke:none"
           transform="translate(514.71997,592.64001)" /><path
           id="path41"
           d="M 0,0 C 0,1.92 -1.76,3.68 -3.68,3.68 -5.6,3.68 -7.2,1.92 -7.2,0 c 0,-1.92 1.6,-3.52 3.52,-3.52 1.92,0 3.68,1.6 3.68,3.52 z"
           style="fill:#000000;fill-opacity:1;fill-rule:nonzero;stroke:none"
           transform="translate(514.71997,583.03997)" /><path
           id="path42"
           d="M 0,0 C 0,1.92 -1.76,3.68 -3.68,3.68 -5.6,3.68 -7.2,1.92 -7.2,0 c 0,-1.92 1.6,-3.52 3.52,-3.52 1.92,0 3.68,1.6 3.68,3.52 z"
           style="fill:#000000;fill-opacity:1;fill-rule:nonzero;stroke:none"
           transform="translate(505.12,592.64001)" /><path
           id="path43"
           d="M 0,0 C 0,1.92 -1.76,3.68 -3.68,3.68 -5.6,3.68 -7.2,1.92 -7.2,0 c 0,-1.92 1.6,-3.52 3.52,-3.52 1.92,0 3.68,1.6 3.68,3.52 z"
           style="fill:#000000;fill-opacity:1;fill-rule:nonzero;stroke:none"
           transform="translate(514.71997,602.23998)" /><path
           id="path44"
           d="M 0,0 C 0,1.92 -1.76,3.68 -3.68,3.68 -5.6,3.68 -7.2,1.92 -7.2,0 c 0,-1.92 1.6,-3.52 3.52,-3.52 1.92,0 3.68,1.6 3.68,3.52 z"
           style="fill:#000000;fill-opacity:1;fill-rule:nonzero;stroke:none"
           transform="translate(505.12,583.03997)" /><path
           id="path45"
           d="M 0,0 C 0,1.92 -1.76,3.68 -3.68,3.68 -5.6,3.68 -7.2,1.92 -7.2,0 c 0,-1.92 1.6,-3.52 3.52,-3.52 1.92,0 3.68,1.6 3.68,3.52 z"
           style="fill:#000000;fill-opacity:1;fill-rule:nonzero;stroke:none"
           transform="translate(505.12,631.03997)" /><path
           id="path46"
           d="M 0,0 C 0,1.92 -1.76,3.68 -3.68,3.68 -5.6,3.68 -7.2,1.92 -7.2,0 c 0,-1.92 1.6,-3.52 3.52,-3.52 1.92,0 3.68,1.6 3.68,3.52 z"
           style="fill:#000000;fill-opacity:1;fill-rule:nonzero;stroke:none"
           transform="translate(514.71997,621.44)" /><path
           id="path47"
           d="M 0,0 C 0,1.92 -1.76,3.68 -3.68,3.68 -5.6,3.68 -7.2,1.92 -7.2,0 c 0,-1.92 1.6,-3.52 3.52,-3.52 1.92,0 3.68,1.6 3.68,3.52 z"
           style="fill:#000000;fill-opacity:1;fill-rule:nonzero;stroke:none"
           transform="translate(514.71997,631.03997)" /><path
           id="path48"
           d="M 0,0 C 0,1.92 -1.76,3.68 -3.68,3.68 -5.6,3.68 -7.2,1.92 -7.2,0 c 0,-1.92 1.6,-3.52 3.52,-3.52 1.92,0 3.68,1.6 3.68,3.52 z"
           style="fill:#000000;fill-opacity:1;fill-rule:nonzero;stroke:none"
           transform="translate(505.12,611.84002)" /><path
           id="path49"
           d="M 0,0 C 0,1.92 -1.76,3.68 -3.68,3.68 -5.6,3.68 -7.2,1.92 -7.2,0 c 0,-1.92 1.6,-3.52 3.52,-3.52 1.92,0 3.68,1.6 3.68,3.52 z"
           style="fill:#000000;fill-opacity:1;fill-rule:nonzero;stroke:none"
           transform="translate(505.12,621.44)" /><path
           id="path50"
           d="M 0,0 C 0,1.92 -1.76,3.68 -3.68,3.68 -5.6,3.68 -7.2,1.92 -7.2,0 c 0,-1.92 1.6,-3.52 3.52,-3.52 1.92,0 3.68,1.6 3.68,3.52 z"
           style="fill:#000000;fill-opacity:1;fill-rule:nonzero;stroke:none"
           transform="translate(514.71997,611.84002)" /><path
           id="path51"
           d="M 0,0 C 0,1.92 -1.76,3.68 -3.68,3.68 -5.6,3.68 -7.2,1.92 -7.2,0 c 0,-1.92 1.6,-3.52 3.52,-3.52 1.92,0 3.68,1.6 3.68,3.52 z"
           style="fill:#000000;fill-opacity:1;fill-rule:nonzero;stroke:none"
           transform="translate(505.12,563.84002)" /><path
           id="path52"
           d="M 0,0 C 0,1.92 -1.76,3.68 -3.68,3.68 -5.6,3.68 -7.2,1.92 -7.2,0 c 0,-1.92 1.6,-3.52 3.52,-3.52 1.92,0 3.68,1.6 3.68,3.52 z"
           style="fill:#000000;fill-opacity:1;fill-rule:nonzero;stroke:none"
           transform="translate(514.71997,554.23998)" /><path
           id="path53"
           d="M 0,0 C 0,1.92 -1.76,3.68 -3.68,3.68 -5.6,3.68 -7.2,1.92 -7.2,0 c 0,-1.92 1.6,-3.52 3.52,-3.52 1.92,0 3.68,1.6 3.68,3.52 z"
           style="fill:#000000;fill-opacity:1;fill-rule:nonzero;stroke:none"
           transform="translate(505.12,554.23998)" /><path
           id="path54"
           d="M 0,0 C 0,1.92 -1.76,3.68 -3.68,3.68 -5.6,3.68 -7.2,1.92 -7.2,0 c 0,-1.92 1.6,-3.52 3.52,-3.52 1.92,0 3.68,1.6 3.68,3.52 z"
           style="fill:#000000;fill-opacity:1;fill-rule:nonzero;stroke:none"
           transform="translate(514.71997,563.84002)" /><path
           id="path55"
           d="M 0,0 C 0,1.92 -1.76,3.68 -3.68,3.68 -5.6,3.68 -7.2,1.92 -7.2,0 c 0,-1.92 1.6,-3.52 3.52,-3.52 1.92,0 3.68,1.6 3.68,3.52 z"
           style="fill:#000000;fill-opacity:1;fill-rule:nonzero;stroke:none"
           transform="translate(514.71997,573.44)" /><path
           id="path56"
           d="M 0,0 C 0,1.92 -1.76,3.68 -3.68,3.68 -5.6,3.68 -7.2,1.92 -7.2,0 c 0,-1.92 1.6,-3.52 3.52,-3.52 1.92,0 3.68,1.6 3.68,3.52 z"
           style="fill:#000000;fill-opacity:1;fill-rule:nonzero;stroke:none"
           transform="translate(505.12,573.44)" /><path
           id="path57"
           d="M 0,0 C 0,1.92 -1.76,3.68 -3.68,3.68 -5.6,3.68 -7.2,1.92 -7.2,0 c 0,-1.92 1.6,-3.52 3.52,-3.52 1.92,0 3.68,1.6 3.68,3.52 z"
           style="fill:#000000;fill-opacity:1;fill-rule:nonzero;stroke:none"
           transform="translate(485.92001,602.23998)" /><path
           id="path58"
           d="m 478.72,627.67999 h 7.04001 V 634.56 H 478.72 Z"
           style="fill:#000000;fill-opacity:1;fill-rule:nonzero;stroke:none" /><path
           id="path59"
           d="M 0,0 C 0,1.92 -1.76,3.68 -3.68,3.68 -5.6,3.68 -7.2,1.92 -7.2,0 c 0,-1.92 1.6,-3.52 3.52,-3.52 1.92,0 3.68,1.6 3.68,3.52 z"
           style="fill:#000000;fill-opacity:1;fill-rule:nonzero;stroke:none"
           transform="translate(485.92001,621.44)" /><path
           id="path60"
           d="M 0,0 C 0,1.92 -1.76,3.68 -3.68,3.68 -5.6,3.68 -7.2,1.92 -7.2,0 c 0,-1.92 1.6,-3.52 3.52,-3.52 1.92,0 3.68,1.6 3.68,3.52 z"
           style="fill:#000000;fill-opacity:1;fill-rule:nonzero;stroke:none"
           transform="translate(485.92001,611.84002)" /><path
           id="path61"
           d="M 0,0 C 0,1.92 -1.76,3.68 -3.68,3.68 -5.6,3.68 -7.2,1.92 -7.2,0 c 0,-1.92 1.6,-3.52 3.52,-3.52 1.92,0 3.68,1.6 3.68,3.52 z"
           style="fill:#000000;fill-opacity:1;fill-rule:nonzero;stroke:none"
           transform="translate(458.72,632.79998)" /><path
           id="path62"
           d="M 0,0 C 0,1.92 -1.76,3.68 -3.68,3.68 -5.6,3.68 -7.2,1.92 -7.2,0 c 0,-1.92 1.6,-3.52 3.52,-3.52 1.92,0 3.68,1.6 3.68,3.52 z"
           style="fill:#000000;fill-opacity:1;fill-rule:nonzero;stroke:none"
           transform="translate(458.72,623.20001)" /><path
           id="path63"
           d="M 451.51999,610.23999 H 458.56 V 617.12 h -7.04001 z"
           style="fill:#000000;fill-opacity:1;fill-rule:nonzero;stroke:none" /><path
           id="path64"
           d="M 0,0 C 0,1.92 -1.76,3.68 -3.68,3.68 -5.6,3.68 -7.2,1.92 -7.2,0 c 0,-1.92 1.6,-3.52 3.52,-3.52 1.92,0 3.68,1.6 3.68,3.52 z"
           style="fill:#000000;fill-opacity:1;fill-rule:nonzero;stroke:none"
           transform="translate(274.72,544.64001)" /><path
           id="path65"
           d="M 0,0 C 0,1.92 -1.76,3.68 -3.68,3.68 -5.6,3.68 -7.2,1.92 -7.2,0 c 0,-1.92 1.6,-3.52 3.52,-3.52 1.92,0 3.68,1.6 3.68,3.52 z"
           style="fill:#000000;fill-opacity:1;fill-rule:nonzero;stroke:none"
           transform="translate(284.32001,544.64001)" /><path
           id="path66"
           d="M 0,0 C 0,1.92 -1.76,3.68 -3.68,3.68 -5.6,3.68 -7.2,1.92 -7.2,0 c 0,-1.92 1.6,-3.52 3.52,-3.52 1.92,0 3.68,1.6 3.68,3.52 z"
           style="fill:#000000;fill-opacity:1;fill-rule:nonzero;stroke:none"
           transform="translate(284.32001,525.44)" /><path
           id="path67"
           d="M 0,0 C 0,1.92 -1.76,3.68 -3.68,3.68 -5.6,3.68 -7.2,1.92 -7.2,0 c 0,-1.92 1.6,-3.52 3.52,-3.52 1.92,0 3.68,1.6 3.68,3.52 z"
           style="fill:#000000;fill-opacity:1;fill-rule:nonzero;stroke:none"
           transform="translate(274.72,535.03997)" /><path
           id="path68"
           d="M 0,0 C 0,1.92 -1.76,3.68 -3.68,3.68 -5.6,3.68 -7.2,1.92 -7.2,0 c 0,-1.92 1.6,-3.52 3.52,-3.52 1.92,0 3.68,1.6 3.68,3.52 z"
           style="fill:#000000;fill-opacity:1;fill-rule:nonzero;stroke:none"
           transform="translate(284.32001,515.84002)" /><path
           id="path69"
           d="M 0,0 C 0,1.92 -1.76,3.68 -3.68,3.68 -5.6,3.68 -7.2,1.92 -7.2,0 c 0,-1.92 1.6,-3.52 3.52,-3.52 1.92,0 3.68,1.6 3.68,3.52 z"
           style="fill:#000000;fill-opacity:1;fill-rule:nonzero;stroke:none"
           transform="translate(274.72,515.84002)" /><path
           id="path70"
           d="M 0,0 C 0,1.92 -1.76,3.68 -3.68,3.68 -5.6,3.68 -7.2,1.92 -7.2,0 c 0,-1.92 1.6,-3.52 3.52,-3.52 1.92,0 3.68,1.6 3.68,3.52 z"
           style="fill:#000000;fill-opacity:1;fill-rule:nonzero;stroke:none"
           transform="translate(284.32001,535.03997)" /><path
           id="path71"
           d="M 0,0 C 0,1.92 -1.76,3.68 -3.68,3.68 -5.6,3.68 -7.2,1.92 -7.2,0 c 0,-1.92 1.6,-3.52 3.52,-3.52 1.92,0 3.68,1.6 3.68,3.52 z"
           style="fill:#000000;fill-opacity:1;fill-rule:nonzero;stroke:none"
           transform="translate(274.72,525.44)" /><path
           id="path72"
           d="M 0,0 C 0,1.92 -1.76,3.68 -3.68,3.68 -5.6,3.68 -7.2,1.92 -7.2,0 c 0,-1.92 1.6,-3.52 3.52,-3.52 1.92,0 3.68,1.6 3.68,3.52 z"
           style="fill:#000000;fill-opacity:1;fill-rule:nonzero;stroke:none"
           transform="translate(274.72,487.04)" /><path
           id="path73"
           d="M 0,0 C 0,1.92 -1.76,3.68 -3.68,3.68 -5.6,3.68 -7.2,1.92 -7.2,0 c 0,-1.92 1.6,-3.52 3.52,-3.52 1.92,0 3.68,1.6 3.68,3.52 z"
           style="fill:#000000;fill-opacity:1;fill-rule:nonzero;stroke:none"
           transform="translate(284.32001,487.04)" /><path
           id="path74"
           d="M 0,0 C 0,1.92 -1.76,3.68 -3.68,3.68 -5.6,3.68 -7.2,1.92 -7.2,0 c 0,-1.92 1.6,-3.52 3.52,-3.52 1.92,0 3.68,1.6 3.68,3.52 z"
           style="fill:#000000;fill-opacity:1;fill-rule:nonzero;stroke:none"
           transform="translate(274.72,506.23998)" /><path
           id="path75"
           d="M 0,0 C 0,1.92 -1.76,3.68 -3.68,3.68 -5.6,3.68 -7.2,1.92 -7.2,0 c 0,-1.92 1.6,-3.52 3.52,-3.52 1.92,0 3.68,1.6 3.68,3.52 z"
           style="fill:#000000;fill-opacity:1;fill-rule:nonzero;stroke:none"
           transform="translate(284.32001,496.64001)" /><path
           id="path76"
           d="M 0,0 C 0,1.92 -1.76,3.68 -3.68,3.68 -5.6,3.68 -7.2,1.92 -7.2,0 c 0,-1.92 1.6,-3.52 3.52,-3.52 1.92,0 3.68,1.6 3.68,3.52 z"
           style="fill:#000000;fill-opacity:1;fill-rule:nonzero;stroke:none"
           transform="translate(274.72,496.64001)" /><path
           id="path77"
           d="M 0,0 C 0,1.92 -1.76,3.68 -3.68,3.68 -5.6,3.68 -7.2,1.92 -7.2,0 c 0,-1.92 1.6,-3.52 3.52,-3.52 1.92,0 3.68,1.6 3.68,3.52 z"
           style="fill:#000000;fill-opacity:1;fill-rule:nonzero;stroke:none"
           transform="translate(284.32001,506.23998)" /><path
           id="path78"
           d="M 0,0 C 0,1.92 -1.76,3.68 -3.68,3.68 -5.6,3.68 -7.2,1.92 -7.2,0 c 0,-1.92 1.6,-3.52 3.52,-3.52 1.92,0 3.68,1.6 3.68,3.52 z"
           style="fill:#000000;fill-opacity:1;fill-rule:nonzero;stroke:none"
           transform="translate(303.51999,506.23998)" /><path
           id="path79"
           d="m 296.32001,493.28 h 7.03998 v 6.88 h -7.03998 z"
           style="fill:#000000;fill-opacity:1;fill-rule:nonzero;stroke:none" /><path
           id="path80"
           d="M 0,0 C 0,1.92 -1.76,3.68 -3.68,3.68 -5.6,3.68 -7.2,1.92 -7.2,0 c 0,-1.92 1.6,-3.52 3.52,-3.52 1.92,0 3.68,1.6 3.68,3.52 z"
           style="fill:#000000;fill-opacity:1;fill-rule:nonzero;stroke:none"
           transform="translate(284.32001,477.44)" /><path
           id="path81"
           d="M 0,0 C 0,1.92 -1.76,3.68 -3.68,3.68 -5.6,3.68 -7.2,1.92 -7.2,0 c 0,-1.92 1.6,-3.52 3.52,-3.52 1.92,0 3.68,1.6 3.68,3.52 z"
           style="fill:#000000;fill-opacity:1;fill-rule:nonzero;stroke:none"
           transform="translate(284.32001,467.83999)" /><path
           id="path82"
           d="M 0,0 C 0,1.92 -1.76,3.68 -3.68,3.68 -5.6,3.68 -7.2,1.92 -7.2,0 c 0,-1.92 1.6,-3.52 3.52,-3.52 1.92,0 3.68,1.6 3.68,3.52 z"
           style="fill:#000000;fill-opacity:1;fill-rule:nonzero;stroke:none"
           transform="translate(274.72,477.44)" /><path
           id="path83"
           d="M 0,0 C 0,1.92 -1.76,3.68 -3.68,3.68 -5.6,3.68 -7.2,1.92 -7.2,0 c 0,-1.92 1.6,-3.52 3.52,-3.52 1.92,0 3.68,1.6 3.68,3.52 z"
           style="fill:#000000;fill-opacity:1;fill-rule:nonzero;stroke:none"
           transform="translate(274.72,467.83999)" /><path
           id="path84"
           d="M 0,0 C 0,1.92 -1.76,3.68 -3.68,3.68 -5.6,3.68 -7.2,1.92 -7.2,0 c 0,-1.92 1.6,-3.52 3.52,-3.52 1.92,0 3.68,1.6 3.68,3.52 z"
           style="fill:#000000;fill-opacity:1;fill-rule:nonzero;stroke:none"
           transform="translate(284.32001,458.23998)" /><path
           id="path85"
           d="M 267.51999,454.88 H 274.56 v 6.88001 h -7.04001 z"
           style="fill:#000000;fill-opacity:1;fill-rule:nonzero;stroke:none" /><path
           id="path86"
           d="M 0,0 C 0,1.92 -1.76,3.68 -3.68,3.68 -5.6,3.68 -7.2,1.92 -7.2,0 c 0,-1.92 1.6,-3.52 3.52,-3.52 1.92,0 3.68,1.6 3.68,3.52 z"
           style="fill:#000000;fill-opacity:1;fill-rule:nonzero;stroke:none"
           transform="translate(303.51999,463.51998)" /><path
           id="path87"
           d="M 0,0 C 0,1.92 -1.76,3.68 -3.68,3.68 -5.6,3.68 -7.2,1.92 -7.2,0 c 0,-1.92 1.6,-3.52 3.52,-3.52 1.92,0 3.68,1.6 3.68,3.52 z"
           style="fill:#000000;fill-opacity:1;fill-rule:nonzero;stroke:none"
           transform="translate(313.12,473.11999)" /><path
           id="path88"
           d="M 0,0 C 0,1.92 -1.76,3.68 -3.68,3.68 -5.6,3.68 -7.2,1.92 -7.2,0 c 0,-1.92 1.6,-3.52 3.52,-3.52 1.92,0 3.68,1.6 3.68,3.52 z"
           style="fill:#000000;fill-opacity:1;fill-rule:nonzero;stroke:none"
           transform="translate(322.72,473.11999)" /><path
           id="path89"
           d="M 0,0 C 0,1.92 -1.76,3.68 -3.68,3.68 -5.6,3.68 -7.2,1.92 -7.2,0 c 0,-1.92 1.6,-3.52 3.52,-3.52 1.92,0 3.68,1.6 3.68,3.52 z"
           style="fill:#000000;fill-opacity:1;fill-rule:nonzero;stroke:none"
           transform="translate(313.12,463.51998)" /><path
           id="path90"
           d="M 0,0 C 0,1.92 -1.76,3.68 -3.68,3.68 -5.6,3.68 -7.2,1.92 -7.2,0 c 0,-1.92 1.6,-3.52 3.52,-3.52 1.92,0 3.68,1.6 3.68,3.52 z"
           style="fill:#000000;fill-opacity:1;fill-rule:nonzero;stroke:none"
           transform="translate(303.51999,473.11999)" /><path
           id="path91"
           d="M 0,0 C 0,1.92 -1.76,3.68 -3.68,3.68 -5.6,3.68 -7.2,1.92 -7.2,0 c 0,-1.92 1.6,-3.52 3.52,-3.52 1.92,0 3.68,1.6 3.68,3.52 z"
           style="fill:#000000;fill-opacity:1;fill-rule:nonzero;stroke:none"
           transform="translate(322.72,463.51998)" /><path
           id="path92"
           d="m 337.76001,437.28 h 8.16 v 5.76001 h -8.16 z M 325.12,460 h 7.04 v 7.04001 h -7.04 z m 12.64001,-5.60001 h 8.16 V 460.16 h -8.16 z"
           style="fill:#000000;fill-opacity:1;fill-rule:evenodd;stroke:none" /><path
           id="path93"
           d="M 0,0 C 0,1.92 -1.76,3.68 -3.68,3.68 -5.6,3.68 -7.2,1.92 -7.2,0 c 0,-1.92 1.6,-3.52 3.52,-3.52 1.92,0 3.68,1.6 3.68,3.52 z"
           style="fill:#000000;fill-opacity:1;fill-rule:nonzero;stroke:none"
           transform="translate(332.32001,473.11999)" /><path
           id="path94"
           d="M 0,0 C 0,1.92 -1.76,3.68 -3.68,3.68 -5.6,3.68 -7.2,1.92 -7.2,0 c 0,-1.92 1.6,-3.52 3.52,-3.52 1.92,0 3.68,1.6 3.68,3.52 z"
           style="fill:#000000;fill-opacity:1;fill-rule:nonzero;stroke:none"
           transform="translate(303.51999,525.44)" /><path
           id="path95"
           d="M 0,0 C 0,1.92 -1.76,3.68 -3.68,3.68 -5.6,3.68 -7.2,1.92 -7.2,0 c 0,-1.92 1.6,-3.52 3.52,-3.52 1.92,0 3.68,1.6 3.68,3.52 z"
           style="fill:#000000;fill-opacity:1;fill-rule:nonzero;stroke:none"
           transform="translate(303.51999,535.03997)" /><path
           id="path96"
           d="M 0,0 C 0,1.92 -1.76,3.68 -3.68,3.68 -5.6,3.68 -7.2,1.92 -7.2,0 c 0,-1.92 1.6,-3.52 3.52,-3.52 1.92,0 3.68,1.6 3.68,3.52 z"
           style="fill:#000000;fill-opacity:1;fill-rule:nonzero;stroke:none"
           transform="translate(303.51999,515.84002)" /><path
           id="path97"
           d="M 0,0 C 0,1.92 -1.76,3.68 -3.68,3.68 -5.6,3.68 -7.2,1.92 -7.2,0 c 0,-1.92 1.6,-3.52 3.52,-3.52 1.92,0 3.68,1.6 3.68,3.52 z"
           style="fill:#000000;fill-opacity:1;fill-rule:nonzero;stroke:none"
           transform="translate(303.51999,544.64001)" /><path
           id="path98"
           d="M 0,0 C 0,1.92 -1.76,3.68 -3.68,3.68 -5.6,3.68 -7.2,1.92 -7.2,0 c 0,-1.92 1.6,-3.52 3.52,-3.52 1.92,0 3.68,1.6 3.68,3.52 z"
           style="fill:#000000;fill-opacity:1;fill-rule:nonzero;stroke:none"
           transform="translate(274.72,563.84002)" /><path
           id="path99"
           d="M 0,0 C 0,1.92 -1.76,3.68 -3.68,3.68 -5.6,3.68 -7.2,1.92 -7.2,0 c 0,-1.92 1.6,-3.52 3.52,-3.52 1.92,0 3.68,1.6 3.68,3.52 z"
           style="fill:#000000;fill-opacity:1;fill-rule:nonzero;stroke:none"
           transform="translate(284.32001,573.44)" /><path
           id="path100"
           d="M 0,0 C 0,1.92 -1.76,3.68 -3.68,3.68 -5.6,3.68 -7.2,1.92 -7.2,0 c 0,-1.92 1.6,-3.52 3.52,-3.52 1.92,0 3.68,1.6 3.68,3.52 z"
           style="fill:#000000;fill-opacity:1;fill-rule:nonzero;stroke:none"
           transform="translate(284.32001,583.03997)" /><path
           id="path101"
           d="M 0,0 C 0,1.92 -1.76,3.68 -3.68,3.68 -5.6,3.68 -7.2,1.92 -7.2,0 c 0,-1.92 1.6,-3.52 3.52,-3.52 1.92,0 3.68,1.6 3.68,3.52 z"
           style="fill:#000000;fill-opacity:1;fill-rule:nonzero;stroke:none"
           transform="translate(274.72,583.03997)" /><path
           id="path102"
           d="M 0,0 C 0,1.92 -1.76,3.68 -3.68,3.68 -5.6,3.68 -7.2,1.92 -7.2,0 c 0,-1.92 1.6,-3.52 3.52,-3.52 1.92,0 3.68,1.6 3.68,3.52 z"
           style="fill:#000000;fill-opacity:1;fill-rule:nonzero;stroke:none"
           transform="translate(274.72,573.44)" /><path
           id="path103"
           d="m 296.32001,579.67999 h 7.03998 V 586.56 h -7.03998 z"
           style="fill:#000000;fill-opacity:1;fill-rule:nonzero;stroke:none" /><path
           id="path104"
           d="M 0,0 C 0,1.92 -1.76,3.68 -3.68,3.68 -5.6,3.68 -7.2,1.92 -7.2,0 c 0,-1.92 1.6,-3.52 3.52,-3.52 1.92,0 3.68,1.6 3.68,3.52 z"
           style="fill:#000000;fill-opacity:1;fill-rule:nonzero;stroke:none"
           transform="translate(284.32001,563.84002)" /><path
           id="path105"
           d="M 0,0 C 0,1.92 -1.76,3.68 -3.68,3.68 -5.6,3.68 -7.2,1.92 -7.2,0 c 0,-1.92 1.6,-3.52 3.52,-3.52 1.92,0 3.68,1.6 3.68,3.52 z"
           style="fill:#000000;fill-opacity:1;fill-rule:nonzero;stroke:none"
           transform="translate(274.72,554.23998)" /><path
           id="path106"
           d="M 0,0 C 0,1.92 -1.76,3.68 -3.68,3.68 -5.6,3.68 -7.2,1.92 -7.2,0 c 0,-1.92 1.6,-3.52 3.52,-3.52 1.92,0 3.68,1.6 3.68,3.52 z"
           style="fill:#000000;fill-opacity:1;fill-rule:nonzero;stroke:none"
           transform="translate(284.32001,554.23998)" /><path
           id="path107"
           d="M 0,0 C 0,1.92 -1.76,3.68 -3.68,3.68 -5.6,3.68 -7.2,1.92 -7.2,0 c 0,-1.92 1.6,-3.52 3.52,-3.52 1.92,0 3.68,1.6 3.68,3.52 z"
           style="fill:#000000;fill-opacity:1;fill-rule:nonzero;stroke:none"
           transform="translate(303.51999,554.23998)" /><path
           id="path108"
           d="M 0,0 C 0,1.92 -1.76,3.68 -3.68,3.68 -5.6,3.68 -7.2,1.92 -7.2,0 c 0,-1.92 1.6,-3.52 3.52,-3.52 1.92,0 3.68,1.6 3.68,3.52 z"
           style="fill:#000000;fill-opacity:1;fill-rule:nonzero;stroke:none"
           transform="translate(303.51999,563.84002)" /><path
           id="path109"
           d="M 0,0 C 0,1.92 -1.76,3.68 -3.68,3.68 -5.6,3.68 -7.2,1.92 -7.2,0 c 0,-1.92 1.6,-3.52 3.52,-3.52 1.92,0 3.68,1.6 3.68,3.52 z"
           style="fill:#000000;fill-opacity:1;fill-rule:nonzero;stroke:none"
           transform="translate(303.51999,611.84002)" /><path
           id="path110"
           d="M 0,0 C 0,1.92 -1.76,3.68 -3.68,3.68 -5.6,3.68 -7.2,1.92 -7.2,0 c 0,-1.92 1.6,-3.52 3.52,-3.52 1.92,0 3.68,1.6 3.68,3.52 z"
           style="fill:#000000;fill-opacity:1;fill-rule:nonzero;stroke:none"
           transform="translate(303.51999,631.03997)" /><path
           id="path111"
           d="M 0,0 C 0,1.92 -1.76,3.68 -3.68,3.68 -5.6,3.68 -7.2,1.92 -7.2,0 c 0,-1.92 1.6,-3.52 3.52,-3.52 1.92,0 3.68,1.6 3.68,3.52 z"
           style="fill:#000000;fill-opacity:1;fill-rule:nonzero;stroke:none"
           transform="translate(324.48001,628.47997)" /><path
           id="path112"
           d="m 326.88,624.96002 h 7.04001 V 632 H 326.88 Z"
           style="fill:#000000;fill-opacity:1;fill-rule:nonzero;stroke:none" /><path
           id="path113"
           d="M 0,0 C 0,1.92 -1.76,3.68 -3.68,3.68 -5.6,3.68 -7.2,1.92 -7.2,0 c 0,-1.92 1.6,-3.52 3.52,-3.52 1.92,0 3.68,1.6 3.68,3.52 z"
           style="fill:#000000;fill-opacity:1;fill-rule:nonzero;stroke:none"
           transform="translate(303.51999,602.23998)" /><path
           id="path114"
           d="M 0,0 C 0,1.92 -1.76,3.68 -3.68,3.68 -5.6,3.68 -7.2,1.92 -7.2,0 c 0,-1.92 1.6,-3.52 3.52,-3.52 1.92,0 3.68,1.6 3.68,3.52 z"
           style="fill:#000000;fill-opacity:1;fill-rule:nonzero;stroke:none"
           transform="translate(303.51999,592.64001)" /><path
           id="path115"
           d="M 0,0 C 0,1.92 -1.76,3.68 -3.68,3.68 -5.6,3.68 -7.2,1.92 -7.2,0 c 0,-1.92 1.6,-3.52 3.52,-3.52 1.92,0 3.68,1.6 3.68,3.52 z"
           style="fill:#000000;fill-opacity:1;fill-rule:nonzero;stroke:none"
           transform="translate(274.72,631.03997)" /><path
           id="path116"
           d="M 0,0 C 0,1.92 -1.76,3.68 -3.68,3.68 -5.6,3.68 -7.2,1.92 -7.2,0 c 0,-1.92 1.6,-3.52 3.52,-3.52 1.92,0 3.68,1.6 3.68,3.52 z"
           style="fill:#000000;fill-opacity:1;fill-rule:nonzero;stroke:none"
           transform="translate(303.51999,621.44)" /><path
           id="path117"
           d="M 0,0 C 0,1.92 -1.76,3.68 -3.68,3.68 -5.6,3.68 -7.2,1.92 -7.2,0 c 0,-1.92 1.6,-3.52 3.52,-3.52 1.92,0 3.68,1.6 3.68,3.52 z"
           style="fill:#000000;fill-opacity:1;fill-rule:nonzero;stroke:none"
           transform="translate(274.72,621.44)" /><path
           id="path118"
           d="M 0,0 C 0,1.92 -1.76,3.68 -3.68,3.68 -5.6,3.68 -7.2,1.92 -7.2,0 c 0,-1.92 1.6,-3.52 3.52,-3.52 1.92,0 3.68,1.6 3.68,3.52 z"
           style="fill:#000000;fill-opacity:1;fill-rule:nonzero;stroke:none"
           transform="translate(284.32001,631.03997)" /><path
           id="path119"
           d="M 0,0 C 0,1.92 -1.76,3.68 -3.68,3.68 -5.6,3.68 -7.2,1.92 -7.2,0 c 0,-1.92 1.6,-3.52 3.52,-3.52 1.92,0 3.68,1.6 3.68,3.52 z"
           style="fill:#000000;fill-opacity:1;fill-rule:nonzero;stroke:none"
           transform="translate(284.32001,621.44)" /><path
           id="path120"
           d="M 0,0 C 0,1.92 -1.76,3.68 -3.68,3.68 -5.6,3.68 -7.2,1.92 -7.2,0 c 0,-1.92 1.6,-3.52 3.52,-3.52 1.92,0 3.68,1.6 3.68,3.52 z"
           style="fill:#000000;fill-opacity:1;fill-rule:nonzero;stroke:none"
           transform="translate(274.72,611.84002)" /><path
           id="path121"
           d="M 0,0 C 0,1.92 -1.76,3.68 -3.68,3.68 -5.6,3.68 -7.2,1.92 -7.2,0 c 0,-1.92 1.6,-3.52 3.52,-3.52 1.92,0 3.68,1.6 3.68,3.52 z"
           style="fill:#000000;fill-opacity:1;fill-rule:nonzero;stroke:none"
           transform="translate(284.32001,602.23998)" /><path
           id="path122"
           d="M 0,0 C 0,1.92 -1.76,3.68 -3.68,3.68 -5.6,3.68 -7.2,1.92 -7.2,0 c 0,-1.92 1.6,-3.52 3.52,-3.52 1.92,0 3.68,1.6 3.68,3.52 z"
           style="fill:#000000;fill-opacity:1;fill-rule:nonzero;stroke:none"
           transform="translate(274.72,602.23998)" /><path
           id="path123"
           d="M 0,0 C 0,1.92 -1.76,3.68 -3.68,3.68 -5.6,3.68 -7.2,1.92 -7.2,0 c 0,-1.92 1.6,-3.52 3.52,-3.52 1.92,0 3.68,1.6 3.68,3.52 z"
           style="fill:#000000;fill-opacity:1;fill-rule:nonzero;stroke:none"
           transform="translate(274.72,592.64001)" /><path
           id="path124"
           d="M 0,0 C 0,1.92 -1.76,3.68 -3.68,3.68 -5.6,3.68 -7.2,1.92 -7.2,0 c 0,-1.92 1.6,-3.52 3.52,-3.52 1.92,0 3.68,1.6 3.68,3.52 z"
           style="fill:#000000;fill-opacity:1;fill-rule:nonzero;stroke:none"
           transform="translate(284.32001,592.64001)" /><path
           id="path125"
           d="M 0,0 C 0,1.92 -1.76,3.68 -3.68,3.68 -5.6,3.68 -7.2,1.92 -7.2,0 c 0,-1.92 1.6,-3.52 3.52,-3.52 1.92,0 3.68,1.6 3.68,3.52 z"
           style="fill:#000000;fill-opacity:1;fill-rule:nonzero;stroke:none"
           transform="translate(284.32001,611.84002)" /><path
           id="path126"
           d="m 266.39999,642.71997 c -4.16,0 -7.51999,-3.51996 -7.51999,-7.67999"
           style="fill:none;stroke:#000000;stroke-width:0.16;stroke-linecap:butt;stroke-linejoin:miter;stroke-miterlimit:10;stroke-dasharray:none;stroke-opacity:1" /><path
           id="path127"
           d="m 266.39999,642.56 h 35.84"
           style="fill:none;stroke:#000000;stroke-width:0.16;stroke-linecap:butt;stroke-linejoin:miter;stroke-miterlimit:10;stroke-dasharray:none;stroke-opacity:1" /><path
           id="path128"
           d="m 302.23999,642.56 7.52002,7.52002"
           style="fill:none;stroke:#000000;stroke-width:0.16;stroke-linecap:butt;stroke-linejoin:miter;stroke-miterlimit:10;stroke-dasharray:none;stroke-opacity:1" /><path
           id="path129"
           d="M 309.76001,650.08002 H 434.56"
           style="fill:none;stroke:#000000;stroke-width:0.16;stroke-linecap:butt;stroke-linejoin:miter;stroke-miterlimit:10;stroke-dasharray:none;stroke-opacity:1" /><path
           id="path130"
           d="M 258.72,434.72 V 635.03998"
           style="fill:none;stroke:#000000;stroke-width:0.16;stroke-linecap:butt;stroke-linejoin:miter;stroke-miterlimit:10;stroke-dasharray:none;stroke-opacity:1" /><path
           id="path131"
           d="m 330.56,434.72 h 71.83999"
           style="fill:none;stroke:#000000;stroke-width:0.16;stroke-linecap:butt;stroke-linejoin:miter;stroke-miterlimit:10;stroke-dasharray:none;stroke-opacity:1" /><path
           id="path132"
           d="m 404.32001,432.79999 c 0,1.12002 -0.80002,1.92001 -1.92002,1.92001"
           style="fill:none;stroke:#000000;stroke-width:0.16;stroke-linecap:butt;stroke-linejoin:miter;stroke-miterlimit:10;stroke-dasharray:none;stroke-opacity:1" /><path
           id="path133"
           d="m 402.39999,430.88 c 1.12,0 1.92002,0.79999 1.92002,1.91999"
           style="fill:none;stroke:#000000;stroke-width:0.16;stroke-linecap:butt;stroke-linejoin:miter;stroke-miterlimit:10;stroke-dasharray:none;stroke-opacity:1" /><path
           id="path134"
           d="M 434.56,650.08002 442.07999,642.56"
           style="fill:none;stroke:#000000;stroke-width:0.16;stroke-linecap:butt;stroke-linejoin:miter;stroke-miterlimit:10;stroke-dasharray:none;stroke-opacity:1" /><path
           id="path135"
           d="m 442.07999,642.56 h 73.76004"
           style="fill:none;stroke:#000000;stroke-width:0.16;stroke-linecap:butt;stroke-linejoin:miter;stroke-miterlimit:10;stroke-dasharray:none;stroke-opacity:1" /><path
           id="path136"
           d="m 523.35998,635.03998 c 0,4.16003 -3.35998,7.52002 -7.51995,7.52002"
           style="fill:none;stroke:#000000;stroke-width:0.16;stroke-linecap:butt;stroke-linejoin:miter;stroke-miterlimit:10;stroke-dasharray:none;stroke-opacity:1" /><path
           id="path137"
           d="M 523.35998,635.03998 V 434.72"
           style="fill:none;stroke:#000000;stroke-width:0.16;stroke-linecap:butt;stroke-linejoin:miter;stroke-miterlimit:10;stroke-dasharray:none;stroke-opacity:1" /><path
           id="path138"
           d="M 523.35998,434.72 H 462.88"
           style="fill:none;stroke:#000000;stroke-width:0.16;stroke-linecap:butt;stroke-linejoin:miter;stroke-miterlimit:10;stroke-dasharray:none;stroke-opacity:1" /><path
           id="path139"
           d="M 0,0 C 0.48,0 0.96,0.16 1.28,0.64 1.76,0.96 1.92,1.44 1.92,1.92 1.92,2.4 1.76,2.88 1.28,3.2 0.96,3.68 0.48,3.84 0,3.84"
           style="fill:none;stroke:#000000;stroke-width:0.16;stroke-linecap:butt;stroke-linejoin:miter;stroke-miterlimit:10;stroke-dasharray:none;stroke-opacity:1"
           transform="translate(317.44,430.88)" /><path
           id="path140"
           d="m 328.64001,432.79999 c 0,-1.12 0.79999,-1.91999 1.91999,-1.91999"
           style="fill:none;stroke:#000000;stroke-width:0.16;stroke-linecap:butt;stroke-linejoin:miter;stroke-miterlimit:10;stroke-dasharray:none;stroke-opacity:1" /><path
           id="path141"
           d="m 330.56,434.72 c -1.12,0 -1.91999,-0.79999 -1.91999,-1.92001"
           style="fill:none;stroke:#000000;stroke-width:0.16;stroke-linecap:butt;stroke-linejoin:miter;stroke-miterlimit:10;stroke-dasharray:none;stroke-opacity:1" /><path
           id="path142"
           d="M 317.44,434.72 H 258.72"
           style="fill:none;stroke:#000000;stroke-width:0.16;stroke-linecap:butt;stroke-linejoin:miter;stroke-miterlimit:10;stroke-dasharray:none;stroke-opacity:1" /><path
           id="path143"
           d="m 462.88,434.72 c -1.11999,0 -1.92001,-0.79999 -1.92001,-1.92001 0,-1.12 0.80002,-1.91999 1.92001,-1.91999"
           style="fill:none;stroke:#000000;stroke-width:0.16;stroke-linecap:butt;stroke-linejoin:miter;stroke-miterlimit:10;stroke-dasharray:none;stroke-opacity:1" /><path
           id="path144"
           d="m 417.92001,432.79999 c 0,-1.12 0.79999,-1.91999 1.91999,-1.91999"
           style="fill:none;stroke:#000000;stroke-width:0.16;stroke-linecap:butt;stroke-linejoin:miter;stroke-miterlimit:10;stroke-dasharray:none;stroke-opacity:1" /><path
           id="path145"
           d="m 419.84,434.72 h 27.67999"
           style="fill:none;stroke:#000000;stroke-width:0.16;stroke-linecap:butt;stroke-linejoin:miter;stroke-miterlimit:10;stroke-dasharray:none;stroke-opacity:1" /><path
           id="path146"
           d="m 449.44,432.79999 c 0,1.12002 -0.79999,1.92001 -1.92001,1.92001"
           style="fill:none;stroke:#000000;stroke-width:0.16;stroke-linecap:butt;stroke-linejoin:miter;stroke-miterlimit:10;stroke-dasharray:none;stroke-opacity:1" /><path
           id="path147"
           d="m 447.51999,430.88 c 1.12002,0 1.92001,0.79999 1.92001,1.91999"
           style="fill:none;stroke:#000000;stroke-width:0.16;stroke-linecap:butt;stroke-linejoin:miter;stroke-miterlimit:10;stroke-dasharray:none;stroke-opacity:1" /><path
           id="path148"
           d="m 419.84,434.72 c -1.12,0 -1.91999,-0.79999 -1.91999,-1.92001"
           style="fill:none;stroke:#000000;stroke-width:0.16;stroke-linecap:butt;stroke-linejoin:miter;stroke-miterlimit:10;stroke-dasharray:none;stroke-opacity:1" /><path
           id="path149"
           d="m 0,0 c 0,3.36 -2.88,6.24 -6.24,6.24 -3.36,0 -6.08,-2.88 -6.08,-6.24 0,-3.36 2.72,-6.08 6.08,-6.08 C -2.88,-6.08 0,-3.36 0,0 Z"
           style="fill:#000000;fill-opacity:1;fill-rule:nonzero;stroke:none"
           transform="translate(306.07999,443.83999)" /><path
           id="path150"
           d="m 0,0 c 0,3.36 -2.88,6.24 -6.24,6.24 -3.36,0 -6.08,-2.88 -6.08,-6.24 0,-3.36 2.72,-6.08 6.08,-6.08 C -2.88,-6.08 0,-3.36 0,0 Z"
           style="fill:#000000;fill-opacity:1;fill-rule:nonzero;stroke:none"
           transform="translate(430.88,640.64001)" /><path
           id="path151"
           d="m 0,0 c 0,3.36 -2.88,6.24 -6.24,6.24 -3.36,0 -6.08,-2.88 -6.08,-6.24 0,-3.36 2.72,-6.08 6.08,-6.08 C -2.88,-6.08 0,-3.36 0,0 Z"
           style="fill:#000000;fill-opacity:1;fill-rule:nonzero;stroke:none"
           transform="translate(488.48001,448.64001)" /><path
           id="path152"
           d="M 0,0 C 0,1.12 -0.96,2.08 -2.08,2.08 -3.2,2.08 -4,1.12 -4,0 -4,-1.12 -3.2,-1.92 -2.08,-1.92 -0.96,-1.92 0,-1.12 0,0 Z"
           style="fill:#ffffff;fill-opacity:1;fill-rule:nonzero;stroke:none"
           transform="translate(503.51999,611.84002)" /><path
           id="path153"
           d="M 0,0 C 0,1.12 -0.96,2.08 -2.08,2.08 -3.2,2.08 -4,1.12 -4,0 -4,-1.12 -3.2,-1.92 -2.08,-1.92 -0.96,-1.92 0,-1.12 0,0 Z"
           style="fill:#ffffff;fill-opacity:1;fill-rule:nonzero;stroke:none"
           transform="translate(513.12,602.23998)" /><path
           id="path154"
           d="M 0,0 C 0,1.12 -0.96,2.08 -2.08,2.08 -3.2,2.08 -4,1.12 -4,0 -4,-1.12 -3.2,-1.92 -2.08,-1.92 -0.96,-1.92 0,-1.12 0,0 Z"
           style="fill:#ffffff;fill-opacity:1;fill-rule:nonzero;stroke:none"
           transform="translate(513.12,592.64001)" /><path
           id="path155"
           d="M 0,0 C 0,1.12 -0.96,2.08 -2.08,2.08 -3.2,2.08 -4,1.12 -4,0 -4,-1.12 -3.2,-1.92 -2.08,-1.92 -0.96,-1.92 0,-1.12 0,0 Z"
           style="fill:#ffffff;fill-opacity:1;fill-rule:nonzero;stroke:none"
           transform="translate(513.12,611.84002)" /><path
           id="path156"
           d="M 0,0 C 0,1.12 -0.96,2.08 -2.08,2.08 -3.2,2.08 -4,1.12 -4,0 -4,-1.12 -3.2,-1.92 -2.08,-1.92 -0.96,-1.92 0,-1.12 0,0 Z"
           style="fill:#ffffff;fill-opacity:1;fill-rule:nonzero;stroke:none"
           transform="translate(513.12,583.03997)" /><path
           id="path157"
           d="M 0,0 C 0,1.12 -0.96,2.08 -2.08,2.08 -3.2,2.08 -4,1.12 -4,0 -4,-1.12 -3.2,-1.92 -2.08,-1.92 -0.96,-1.92 0,-1.12 0,0 Z"
           style="fill:#ffffff;fill-opacity:1;fill-rule:nonzero;stroke:none"
           transform="translate(503.51999,592.64001)" /><path
           id="path158"
           d="M 0,0 C 0,1.12 -0.96,2.08 -2.08,2.08 -3.2,2.08 -4,1.12 -4,0 -4,-1.12 -3.2,-1.92 -2.08,-1.92 -0.96,-1.92 0,-1.12 0,0 Z"
           style="fill:#ffffff;fill-opacity:1;fill-rule:nonzero;stroke:none"
           transform="translate(503.51999,602.23998)" /><path
           id="path159"
           d="M 0,0 C 0,1.12 -0.96,2.08 -2.08,2.08 -3.2,2.08 -4,1.12 -4,0 -4,-1.12 -3.2,-1.92 -2.08,-1.92 -0.96,-1.92 0,-1.12 0,0 Z"
           style="fill:#ffffff;fill-opacity:1;fill-rule:nonzero;stroke:none"
           transform="translate(503.51999,583.03997)" /><path
           id="path160"
           d="M 0,0 C 0,1.12 -0.96,2.08 -2.08,2.08 -3.2,2.08 -4,1.12 -4,0 -4,-1.12 -3.2,-1.92 -2.08,-1.92 -0.96,-1.92 0,-1.12 0,0 Z"
           style="fill:#ffffff;fill-opacity:1;fill-rule:nonzero;stroke:none"
           transform="translate(503.51999,563.84002)" /><path
           id="path161"
           d="M 0,0 C 0,1.12 -0.96,2.08 -2.08,2.08 -3.2,2.08 -4,1.12 -4,0 -4,-1.12 -3.2,-1.92 -2.08,-1.92 -0.96,-1.92 0,-1.12 0,0 Z"
           style="fill:#ffffff;fill-opacity:1;fill-rule:nonzero;stroke:none"
           transform="translate(513.12,554.23998)" /><path
           id="path162"
           d="M 0,0 C 0,1.12 -0.96,2.08 -2.08,2.08 -3.2,2.08 -4,1.12 -4,0 -4,-1.12 -3.2,-1.92 -2.08,-1.92 -0.96,-1.92 0,-1.12 0,0 Z"
           style="fill:#ffffff;fill-opacity:1;fill-rule:nonzero;stroke:none"
           transform="translate(513.12,563.84002)" /><path
           id="path163"
           d="M 0,0 C 0,1.12 -0.96,2.08 -2.08,2.08 -3.2,2.08 -4,1.12 -4,0 -4,-1.12 -3.2,-1.92 -2.08,-1.92 -0.96,-1.92 0,-1.12 0,0 Z"
           style="fill:#ffffff;fill-opacity:1;fill-rule:nonzero;stroke:none"
           transform="translate(503.51999,554.23998)" /><path
           id="path164"
           d="M 0,0 C 0,1.12 -0.96,2.08 -2.08,2.08 -3.2,2.08 -4,1.12 -4,0 -4,-1.12 -3.2,-1.92 -2.08,-1.92 -0.96,-1.92 0,-1.12 0,0 Z"
           style="fill:#ffffff;fill-opacity:1;fill-rule:nonzero;stroke:none"
           transform="translate(513.12,573.44)" /><path
           id="path165"
           d="M 0,0 C 0,1.12 -0.96,2.08 -2.08,2.08 -3.2,2.08 -4,1.12 -4,0 -4,-1.12 -3.2,-1.92 -2.08,-1.92 -0.96,-1.92 0,-1.12 0,0 Z"
           style="fill:#ffffff;fill-opacity:1;fill-rule:nonzero;stroke:none"
           transform="translate(457.12,623.20001)" /><path
           id="path166"
           d="M 0,0 C 0,1.12 -0.96,2.08 -2.08,2.08 -3.2,2.08 -4,1.12 -4,0 -4,-1.12 -3.2,-1.92 -2.08,-1.92 -0.96,-1.92 0,-1.12 0,0 Z"
           style="fill:#ffffff;fill-opacity:1;fill-rule:nonzero;stroke:none"
           transform="translate(457.12,632.79998)" /><path
           id="path167"
           d="m 0,0 c 0,1.12 -1.12,2.24 -2.24,2.24 -1.12,0 -2.08,-1.12 -2.08,-2.24 0,-1.12 0.96,-2.08 2.08,-2.08 C -1.12,-2.08 0,-1.12 0,0 Z"
           style="fill:#ffffff;fill-opacity:1;fill-rule:nonzero;stroke:none"
           transform="translate(484.48001,631.03997)" /><path
           id="path168"
           d="M 0,0 C 0,1.12 -0.96,2.08 -2.08,2.08 -3.2,2.08 -4,1.12 -4,0 -4,-1.12 -3.2,-1.92 -2.08,-1.92 -0.96,-1.92 0,-1.12 0,0 Z"
           style="fill:#ffffff;fill-opacity:1;fill-rule:nonzero;stroke:none"
           transform="translate(457.12,613.59997)" /><path
           id="path169"
           d="m 0,0 c 0,1.12 -1.12,2.24 -2.24,2.24 -1.12,0 -2.08,-1.12 -2.08,-2.24 0,-1.12 0.96,-2.08 2.08,-2.08 C -1.12,-2.08 0,-1.12 0,0 Z"
           style="fill:#ffffff;fill-opacity:1;fill-rule:nonzero;stroke:none"
           transform="translate(484.48001,621.44)" /><path
           id="path170"
           d="M 0,0 C 0,1.12 -0.96,2.08 -2.08,2.08 -3.2,2.08 -4,1.12 -4,0 -4,-1.12 -3.2,-1.92 -2.08,-1.92 -0.96,-1.92 0,-1.12 0,0 Z"
           style="fill:#ffffff;fill-opacity:1;fill-rule:nonzero;stroke:none"
           transform="translate(503.51999,621.44)" /><path
           id="path171"
           d="M 0,0 C 0,1.12 -0.96,2.08 -2.08,2.08 -3.2,2.08 -4,1.12 -4,0 -4,-1.12 -3.2,-1.92 -2.08,-1.92 -0.96,-1.92 0,-1.12 0,0 Z"
           style="fill:#ffffff;fill-opacity:1;fill-rule:nonzero;stroke:none"
           transform="translate(503.51999,631.03997)" /><path
           id="path172"
           d="m 0,0 c 0,1.12 -1.12,2.24 -2.24,2.24 -1.12,0 -2.08,-1.12 -2.08,-2.24 0,-1.12 0.96,-2.08 2.08,-2.08 C -1.12,-2.08 0,-1.12 0,0 Z"
           style="fill:#ffffff;fill-opacity:1;fill-rule:nonzero;stroke:none"
           transform="translate(484.48001,592.64001)" /><path
           id="path173"
           d="m 0,0 c 0,1.12 -1.12,2.24 -2.24,2.24 -1.12,0 -2.08,-1.12 -2.08,-2.24 0,-1.12 0.96,-2.08 2.08,-2.08 C -1.12,-2.08 0,-1.12 0,0 Z"
           style="fill:#ffffff;fill-opacity:1;fill-rule:nonzero;stroke:none"
           transform="translate(484.48001,611.84002)" /><path
           id="path174"
           d="m 0,0 c 0,1.12 -1.12,2.24 -2.24,2.24 -1.12,0 -2.08,-1.12 -2.08,-2.24 0,-1.12 0.96,-2.08 2.08,-2.08 C -1.12,-2.08 0,-1.12 0,0 Z"
           style="fill:#ffffff;fill-opacity:1;fill-rule:nonzero;stroke:none"
           transform="translate(484.48001,602.23998)" /><path
           id="path175"
           d="M 0,0 C 0,1.12 -0.96,2.08 -2.08,2.08 -3.2,2.08 -4,1.12 -4,0 -4,-1.12 -3.2,-1.92 -2.08,-1.92 -0.96,-1.92 0,-1.12 0,0 Z"
           style="fill:#ffffff;fill-opacity:1;fill-rule:nonzero;stroke:none"
           transform="translate(513.12,621.44)" /><path
           id="path176"
           d="M 0,0 C 0,1.12 -0.96,2.08 -2.08,2.08 -3.2,2.08 -4,1.12 -4,0 -4,-1.12 -3.2,-1.92 -2.08,-1.92 -0.96,-1.92 0,-1.12 0,0 Z"
           style="fill:#ffffff;fill-opacity:1;fill-rule:nonzero;stroke:none"
           transform="translate(513.12,631.03997)" /><path
           id="path177"
           d="M 0,0 C 0,1.12 -0.96,2.08 -2.08,2.08 -3.2,2.08 -4,1.12 -4,0 -4,-1.12 -3.2,-1.92 -2.08,-1.92 -0.96,-1.92 0,-1.12 0,0 Z"
           style="fill:#ffffff;fill-opacity:1;fill-rule:nonzero;stroke:none"
           transform="translate(503.51999,573.44)" /><path
           id="path178"
           d="m 0,0 c 0,1.12 -1.12,2.24 -2.24,2.24 -1.12,0 -2.08,-1.12 -2.08,-2.24 0,-1.12 0.96,-2.08 2.08,-2.08 C -1.12,-2.08 0,-1.12 0,0 Z"
           style="fill:#ffffff;fill-opacity:1;fill-rule:nonzero;stroke:none"
           transform="translate(484.48001,563.84002)" /><path
           id="path179"
           d="m 0,0 c 0,1.12 -1.12,2.24 -2.24,2.24 -1.12,0 -2.08,-1.12 -2.08,-2.24 0,-1.12 0.96,-2.08 2.08,-2.08 C -1.12,-2.08 0,-1.12 0,0 Z"
           style="fill:#ffffff;fill-opacity:1;fill-rule:nonzero;stroke:none"
           transform="translate(484.48001,573.44)" /><path
           id="path180"
           d="m 0,0 c 0,1.12 -1.12,2.24 -2.24,2.24 -1.12,0 -2.08,-1.12 -2.08,-2.24 0,-1.12 0.96,-2.08 2.08,-2.08 C -1.12,-2.08 0,-1.12 0,0 Z"
           style="fill:#ffffff;fill-opacity:1;fill-rule:nonzero;stroke:none"
           transform="translate(484.48001,583.03997)" /><path
           id="path181"
           d="m 0,0 c 0,1.12 -1.12,2.24 -2.24,2.24 -1.12,0 -2.08,-1.12 -2.08,-2.24 0,-1.12 0.96,-2.08 2.08,-2.08 C -1.12,-2.08 0,-1.12 0,0 Z"
           style="fill:#ffffff;fill-opacity:1;fill-rule:nonzero;stroke:none"
           transform="translate(484.48001,548.47997)" /><path
           id="path182"
           d="M 0,0 C 0,1.12 -0.96,2.08 -2.08,2.08 -3.2,2.08 -4,1.12 -4,0 -4,-1.12 -3.2,-1.92 -2.08,-1.92 -0.96,-1.92 0,-1.12 0,0 Z"
           style="fill:#ffffff;fill-opacity:1;fill-rule:nonzero;stroke:none"
           transform="translate(273.12,563.84002)" /><path
           id="path183"
           d="M 0,0 C 0,1.12 -0.96,2.08 -2.08,2.08 -3.2,2.08 -4,1.12 -4,0 -4,-1.12 -3.2,-1.92 -2.08,-1.92 -0.96,-1.92 0,-1.12 0,0 Z"
           style="fill:#ffffff;fill-opacity:1;fill-rule:nonzero;stroke:none"
           transform="translate(273.12,554.23998)" /><path
           id="path184"
           d="M 0,0 C 0,1.12 -0.96,2.08 -2.08,2.08 -3.2,2.08 -4,1.12 -4,0 -4,-1.12 -3.2,-1.92 -2.08,-1.92 -0.96,-1.92 0,-1.12 0,0 Z"
           style="fill:#ffffff;fill-opacity:1;fill-rule:nonzero;stroke:none"
           transform="translate(273.12,544.64001)" /><path
           id="path185"
           d="M 0,0 C 0,1.12 -0.96,2.08 -2.08,2.08 -3.2,2.08 -4,1.12 -4,0 -4,-1.12 -3.2,-1.92 -2.08,-1.92 -0.96,-1.92 0,-1.12 0,0 Z"
           style="fill:#ffffff;fill-opacity:1;fill-rule:nonzero;stroke:none"
           transform="translate(282.72,554.23998)" /><path
           id="path186"
           d="M 0,0 C 0,1.12 -0.96,2.08 -2.08,2.08 -3.2,2.08 -4,1.12 -4,0 -4,-1.12 -3.2,-1.92 -2.08,-1.92 -0.96,-1.92 0,-1.12 0,0 Z"
           style="fill:#ffffff;fill-opacity:1;fill-rule:nonzero;stroke:none"
           transform="translate(282.72,544.64001)" /><path
           id="path187"
           d="M 0,0 C 0,1.12 -0.96,2.08 -2.08,2.08 -3.2,2.08 -4,1.12 -4,0 -4,-1.12 -3.2,-1.92 -2.08,-1.92 -0.96,-1.92 0,-1.12 0,0 Z"
           style="fill:#ffffff;fill-opacity:1;fill-rule:nonzero;stroke:none"
           transform="translate(273.12,621.44)" /><path
           id="path188"
           d="M 0,0 C 0,1.12 -0.96,2.08 -2.08,2.08 -3.2,2.08 -4,1.12 -4,0 -4,-1.12 -3.2,-1.92 -2.08,-1.92 -0.96,-1.92 0,-1.12 0,0 Z"
           style="fill:#ffffff;fill-opacity:1;fill-rule:nonzero;stroke:none"
           transform="translate(273.12,631.03997)" /><path
           id="path189"
           d="M 0,0 C 0,1.12 -0.96,2.08 -2.08,2.08 -3.2,2.08 -4,1.12 -4,0 -4,-1.12 -3.2,-1.92 -2.08,-1.92 -0.96,-1.92 0,-1.12 0,0 Z"
           style="fill:#ffffff;fill-opacity:1;fill-rule:nonzero;stroke:none"
           transform="translate(282.72,621.44)" /><path
           id="path190"
           d="M 0,0 C 0,1.12 -0.96,2.08 -2.08,2.08 -3.2,2.08 -4,1.12 -4,0 -4,-1.12 -3.2,-1.92 -2.08,-1.92 -0.96,-1.92 0,-1.12 0,0 Z"
           style="fill:#ffffff;fill-opacity:1;fill-rule:nonzero;stroke:none"
           transform="translate(273.12,611.84002)" /><path
           id="path191"
           d="M 0,0 C 0,1.12 -0.96,2.08 -2.08,2.08 -3.2,2.08 -4,1.12 -4,0 -4,-1.12 -3.2,-1.92 -2.08,-1.92 -0.96,-1.92 0,-1.12 0,0 Z"
           style="fill:#ffffff;fill-opacity:1;fill-rule:nonzero;stroke:none"
           transform="translate(282.72,631.03997)" /><path
           id="path192"
           d="M 0,0 C 0,1.12 -0.96,2.08 -2.08,2.08 -3.2,2.08 -4,1.12 -4,0 -4,-1.12 -3.2,-1.92 -2.08,-1.92 -0.96,-1.92 0,-1.12 0,0 Z"
           style="fill:#ffffff;fill-opacity:1;fill-rule:nonzero;stroke:none"
           transform="translate(282.72,611.84002)" /><path
           id="path193"
           d="m 0,0 c 0,1.12 -1.12,2.24 -2.24,2.24 -1.12,0 -2.08,-1.12 -2.08,-2.24 0,-1.12 0.96,-2.08 2.08,-2.08 C -1.12,-2.08 0,-1.12 0,0 Z"
           style="fill:#ffffff;fill-opacity:1;fill-rule:nonzero;stroke:none"
           transform="translate(302.07999,554.23998)" /><path
           id="path194"
           d="m 0,0 c 0,1.12 -1.12,2.24 -2.24,2.24 -1.12,0 -2.08,-1.12 -2.08,-2.24 0,-1.12 0.96,-2.08 2.08,-2.08 C -1.12,-2.08 0,-1.12 0,0 Z"
           style="fill:#ffffff;fill-opacity:1;fill-rule:nonzero;stroke:none"
           transform="translate(302.07999,544.64001)" /><path
           id="path195"
           d="M 0,0 C 0,1.12 -0.96,2.08 -2.08,2.08 -3.2,2.08 -4,1.12 -4,0 -4,-1.12 -3.2,-1.92 -2.08,-1.92 -0.96,-1.92 0,-1.12 0,0 Z"
           style="fill:#ffffff;fill-opacity:1;fill-rule:nonzero;stroke:none"
           transform="translate(282.72,563.84002)" /><path
           id="path196"
           d="m 0,0 c 0,1.12 -1.12,2.24 -2.24,2.24 -1.12,0 -2.08,-1.12 -2.08,-2.24 0,-1.12 0.96,-2.08 2.08,-2.08 C -1.12,-2.08 0,-1.12 0,0 Z"
           style="fill:#ffffff;fill-opacity:1;fill-rule:nonzero;stroke:none"
           transform="translate(302.07999,563.84002)" /><path
           id="path197"
           d="m 0,0 c 0,1.12 -1.12,2.24 -2.24,2.24 -1.12,0 -2.08,-1.12 -2.08,-2.24 0,-1.12 0.96,-2.08 2.08,-2.08 C -1.12,-2.08 0,-1.12 0,0 Z"
           style="fill:#ffffff;fill-opacity:1;fill-rule:nonzero;stroke:none"
           transform="translate(302.07999,602.23998)" /><path
           id="path198"
           d="m 0,0 c 0,1.12 -1.12,2.24 -2.24,2.24 -1.12,0 -2.08,-1.12 -2.08,-2.24 0,-1.12 0.96,-2.08 2.08,-2.08 C -1.12,-2.08 0,-1.12 0,0 Z"
           style="fill:#ffffff;fill-opacity:1;fill-rule:nonzero;stroke:none"
           transform="translate(302.07999,611.84002)" /><path
           id="path199"
           d="m 0,0 c 0,1.12 -1.12,2.24 -2.24,2.24 -1.12,0 -2.08,-1.12 -2.08,-2.24 0,-1.12 0.96,-2.08 2.08,-2.08 C -1.12,-2.08 0,-1.12 0,0 Z"
           style="fill:#ffffff;fill-opacity:1;fill-rule:nonzero;stroke:none"
           transform="translate(302.07999,592.64001)" /><path
           id="path200"
           d="m 0,0 c 0,1.12 -1.12,2.24 -2.24,2.24 -1.12,0 -2.08,-1.12 -2.08,-2.24 0,-1.12 0.96,-2.08 2.08,-2.08 C -1.12,-2.08 0,-1.12 0,0 Z"
           style="fill:#ffffff;fill-opacity:1;fill-rule:nonzero;stroke:none"
           transform="translate(302.07999,583.03997)" /><path
           id="path201"
           d="m 0,0 c 0,1.12 -1.12,2.24 -2.24,2.24 -1.12,0 -2.08,-1.12 -2.08,-2.24 0,-1.12 0.96,-2.08 2.08,-2.08 C -1.12,-2.08 0,-1.12 0,0 Z"
           style="fill:#ffffff;fill-opacity:1;fill-rule:nonzero;stroke:none"
           transform="translate(302.07999,621.44)" /><path
           id="path202"
           d="m 0,0 c 0,1.12 -1.12,2.24 -2.24,2.24 -1.12,0 -2.08,-1.12 -2.08,-2.24 0,-1.12 0.96,-2.08 2.08,-2.08 C -1.12,-2.08 0,-1.12 0,0 Z"
           style="fill:#ffffff;fill-opacity:1;fill-rule:nonzero;stroke:none"
           transform="translate(302.07999,631.03997)" /><path
           id="path203"
           d="M 0,0 C 0,1.12 -0.96,2.08 -2.08,2.08 -3.2,2.08 -4,1.12 -4,0 -4,-1.12 -3.2,-1.92 -2.08,-1.92 -0.96,-1.92 0,-1.12 0,0 Z"
           style="fill:#ffffff;fill-opacity:1;fill-rule:nonzero;stroke:none"
           transform="translate(332.48001,628.47997)" /><path
           id="path204"
           d="M 0,0 C 0,1.12 -0.96,2.08 -2.08,2.08 -3.2,2.08 -4,1.12 -4,0 -4,-1.12 -3.2,-1.92 -2.08,-1.92 -0.96,-1.92 0,-1.12 0,0 Z"
           style="fill:#ffffff;fill-opacity:1;fill-rule:nonzero;stroke:none"
           transform="translate(322.88,628.47997)" /><path
           id="path205"
           d="M 0,0 C 0,1.12 -0.96,2.08 -2.08,2.08 -3.2,2.08 -4,1.12 -4,0 -4,-1.12 -3.2,-1.92 -2.08,-1.92 -0.96,-1.92 0,-1.12 0,0 Z"
           style="fill:#ffffff;fill-opacity:1;fill-rule:nonzero;stroke:none"
           transform="translate(282.72,573.44)" /><path
           id="path206"
           d="M 0,0 C 0,1.12 -0.96,2.08 -2.08,2.08 -3.2,2.08 -4,1.12 -4,0 -4,-1.12 -3.2,-1.92 -2.08,-1.92 -0.96,-1.92 0,-1.12 0,0 Z"
           style="fill:#ffffff;fill-opacity:1;fill-rule:nonzero;stroke:none"
           transform="translate(282.72,583.03997)" /><path
           id="path207"
           d="M 0,0 C 0,1.12 -0.96,2.08 -2.08,2.08 -3.2,2.08 -4,1.12 -4,0 -4,-1.12 -3.2,-1.92 -2.08,-1.92 -0.96,-1.92 0,-1.12 0,0 Z"
           style="fill:#ffffff;fill-opacity:1;fill-rule:nonzero;stroke:none"
           transform="translate(273.12,592.64001)" /><path
           id="path208"
           d="M 0,0 C 0,1.12 -0.96,2.08 -2.08,2.08 -3.2,2.08 -4,1.12 -4,0 -4,-1.12 -3.2,-1.92 -2.08,-1.92 -0.96,-1.92 0,-1.12 0,0 Z"
           style="fill:#ffffff;fill-opacity:1;fill-rule:nonzero;stroke:none"
           transform="translate(282.72,592.64001)" /><path
           id="path209"
           d="M 0,0 C 0,1.12 -0.96,2.08 -2.08,2.08 -3.2,2.08 -4,1.12 -4,0 -4,-1.12 -3.2,-1.92 -2.08,-1.92 -0.96,-1.92 0,-1.12 0,0 Z"
           style="fill:#ffffff;fill-opacity:1;fill-rule:nonzero;stroke:none"
           transform="translate(273.12,602.23998)" /><path
           id="path210"
           d="M 0,0 C 0,1.12 -0.96,2.08 -2.08,2.08 -3.2,2.08 -4,1.12 -4,0 -4,-1.12 -3.2,-1.92 -2.08,-1.92 -0.96,-1.92 0,-1.12 0,0 Z"
           style="fill:#ffffff;fill-opacity:1;fill-rule:nonzero;stroke:none"
           transform="translate(282.72,602.23998)" /><path
           id="path211"
           d="M 0,0 C 0,1.12 -0.96,2.08 -2.08,2.08 -3.2,2.08 -4,1.12 -4,0 -4,-1.12 -3.2,-1.92 -2.08,-1.92 -0.96,-1.92 0,-1.12 0,0 Z"
           style="fill:#ffffff;fill-opacity:1;fill-rule:nonzero;stroke:none"
           transform="translate(273.12,583.03997)" /><path
           id="path212"
           d="M 0,0 C 0,1.12 -0.96,2.08 -2.08,2.08 -3.2,2.08 -4,1.12 -4,0 -4,-1.12 -3.2,-1.92 -2.08,-1.92 -0.96,-1.92 0,-1.12 0,0 Z"
           style="fill:#ffffff;fill-opacity:1;fill-rule:nonzero;stroke:none"
           transform="translate(273.12,573.44)" /><path
           id="path213"
           d="m 0,0 c 0,1.12 -1.12,2.24 -2.24,2.24 -1.12,0 -2.08,-1.12 -2.08,-2.24 0,-1.12 0.96,-2.08 2.08,-2.08 C -1.12,-2.08 0,-1.12 0,0 Z"
           style="fill:#ffffff;fill-opacity:1;fill-rule:nonzero;stroke:none"
           transform="translate(484.48001,538.88)" /><path
           id="path214"
           d="M 0,0 C 0,1.12 -0.96,2.08 -2.08,2.08 -3.2,2.08 -4,1.12 -4,0 -4,-1.12 -3.2,-1.92 -2.08,-1.92 -0.96,-1.92 0,-1.12 0,0 Z"
           style="fill:#ffffff;fill-opacity:1;fill-rule:nonzero;stroke:none"
           transform="translate(503.51999,544.64001)" /><path
           id="path215"
           d="m 0,0 c 0,1.12 -1.12,2.24 -2.24,2.24 -1.12,0 -2.08,-1.12 -2.08,-2.24 0,-1.12 0.96,-2.08 2.08,-2.08 C -1.12,-2.08 0,-1.12 0,0 Z"
           style="fill:#ffffff;fill-opacity:1;fill-rule:nonzero;stroke:none"
           transform="translate(484.48001,529.28002)" /><path
           id="path216"
           d="M 0,0 C 0,1.12 -0.96,2.08 -2.08,2.08 -3.2,2.08 -4,1.12 -4,0 -4,-1.12 -3.2,-1.92 -2.08,-1.92 -0.96,-1.92 0,-1.12 0,0 Z"
           style="fill:#ffffff;fill-opacity:1;fill-rule:nonzero;stroke:none"
           transform="translate(513.12,544.64001)" /><path
           id="path217"
           d="M 0,0 C 0,1.12 -0.96,2.08 -2.08,2.08 -3.2,2.08 -4,1.12 -4,0 -4,-1.12 -3.2,-1.92 -2.08,-1.92 -0.96,-1.92 0,-1.12 0,0 Z"
           style="fill:#ffffff;fill-opacity:1;fill-rule:nonzero;stroke:none"
           transform="translate(503.51999,535.03997)" /><path
           id="path218"
           d="M 0,0 C 0,1.12 -0.96,2.08 -2.08,2.08 -3.2,2.08 -4,1.12 -4,0 -4,-1.12 -3.2,-1.92 -2.08,-1.92 -0.96,-1.92 0,-1.12 0,0 Z"
           style="fill:#ffffff;fill-opacity:1;fill-rule:nonzero;stroke:none"
           transform="translate(513.12,535.03997)" /><path
           id="path219"
           d="m 0,0 c 0,1.12 -1.12,2.24 -2.24,2.24 -1.12,0 -2.08,-1.12 -2.08,-2.24 0,-1.12 0.96,-2.08 2.08,-2.08 C -1.12,-2.08 0,-1.12 0,0 Z"
           style="fill:#ffffff;fill-opacity:1;fill-rule:nonzero;stroke:none"
           transform="translate(484.48001,519.67999)" /><path
           id="path220"
           d="m 0,0 c 0,1.12 -1.12,2.24 -2.24,2.24 -1.12,0 -2.08,-1.12 -2.08,-2.24 0,-1.12 0.96,-2.08 2.08,-2.08 C -1.12,-2.08 0,-1.12 0,0 Z"
           style="fill:#ffffff;fill-opacity:1;fill-rule:nonzero;stroke:none"
           transform="translate(484.48001,510.07998)" /><path
           id="path221"
           d="M 0,0 C 0,1.12 -0.96,2.08 -2.08,2.08 -3.2,2.08 -4,1.12 -4,0 -4,-1.12 -3.2,-1.92 -2.08,-1.92 -0.96,-1.92 0,-1.12 0,0 Z"
           style="fill:#ffffff;fill-opacity:1;fill-rule:nonzero;stroke:none"
           transform="translate(503.51999,467.83999)" /><path
           id="path222"
           d="M 0,0 C 0,1.12 -0.96,2.08 -2.08,2.08 -3.2,2.08 -4,1.12 -4,0 -4,-1.12 -3.2,-1.92 -2.08,-1.92 -0.96,-1.92 0,-1.12 0,0 Z"
           style="fill:#ffffff;fill-opacity:1;fill-rule:nonzero;stroke:none"
           transform="translate(503.51999,487.04)" /><path
           id="path223"
           d="M 0,0 C 0,1.12 -0.96,2.08 -2.08,2.08 -3.2,2.08 -4,1.12 -4,0 -4,-1.12 -3.2,-1.92 -2.08,-1.92 -0.96,-1.92 0,-1.12 0,0 Z"
           style="fill:#ffffff;fill-opacity:1;fill-rule:nonzero;stroke:none"
           transform="translate(503.51999,477.44)" /><path
           id="path224"
           d="M 0,0 C 0,1.12 -0.96,2.08 -2.08,2.08 -3.2,2.08 -4,1.12 -4,0 -4,-1.12 -3.2,-1.92 -2.08,-1.92 -0.96,-1.92 0,-1.12 0,0 Z"
           style="fill:#ffffff;fill-opacity:1;fill-rule:nonzero;stroke:none"
           transform="translate(513.12,477.44)" /><path
           id="path225"
           d="M 0,0 C 0,1.12 -0.96,2.08 -2.08,2.08 -3.2,2.08 -4,1.12 -4,0 -4,-1.12 -3.2,-1.92 -2.08,-1.92 -0.96,-1.92 0,-1.12 0,0 Z"
           style="fill:#ffffff;fill-opacity:1;fill-rule:nonzero;stroke:none"
           transform="translate(513.12,487.04)" /><path
           id="path226"
           d="M 0,0 C 0,1.12 -0.96,2.08 -2.08,2.08 -3.2,2.08 -4,1.12 -4,0 -4,-1.12 -3.2,-1.92 -2.08,-1.92 -0.96,-1.92 0,-1.12 0,0 Z"
           style="fill:#ffffff;fill-opacity:1;fill-rule:nonzero;stroke:none"
           transform="translate(513.12,458.23998)" /><path
           id="path227"
           d="M 0,0 C 0,1.12 -0.96,2.08 -2.08,2.08 -3.2,2.08 -4,1.12 -4,0 -4,-1.12 -3.2,-1.92 -2.08,-1.92 -0.96,-1.92 0,-1.12 0,0 Z"
           style="fill:#ffffff;fill-opacity:1;fill-rule:nonzero;stroke:none"
           transform="translate(503.51999,458.23998)" /><path
           id="path228"
           d="M 0,0 C 0,1.12 -0.96,2.08 -2.08,2.08 -3.2,2.08 -4,1.12 -4,0 -4,-1.12 -3.2,-1.92 -2.08,-1.92 -0.96,-1.92 0,-1.12 0,0 Z"
           style="fill:#ffffff;fill-opacity:1;fill-rule:nonzero;stroke:none"
           transform="translate(513.12,467.83999)" /><path
           id="path229"
           d="M 0,0 C 0,1.12 -0.96,2.08 -2.08,2.08 -3.2,2.08 -4,1.12 -4,0 -4,-1.12 -3.2,-1.92 -2.08,-1.92 -0.96,-1.92 0,-1.12 0,0 Z"
           style="fill:#ffffff;fill-opacity:1;fill-rule:nonzero;stroke:none"
           transform="translate(503.51999,496.64001)" /><path
           id="path230"
           d="M 0,0 C 0,1.12 -0.96,2.08 -2.08,2.08 -3.2,2.08 -4,1.12 -4,0 -4,-1.12 -3.2,-1.92 -2.08,-1.92 -0.96,-1.92 0,-1.12 0,0 Z"
           style="fill:#ffffff;fill-opacity:1;fill-rule:nonzero;stroke:none"
           transform="translate(503.51999,506.23998)" /><path
           id="path231"
           d="M 0,0 C 0,1.12 -0.96,2.08 -2.08,2.08 -3.2,2.08 -4,1.12 -4,0 -4,-1.12 -3.2,-1.92 -2.08,-1.92 -0.96,-1.92 0,-1.12 0,0 Z"
           style="fill:#ffffff;fill-opacity:1;fill-rule:nonzero;stroke:none"
           transform="translate(513.12,496.64001)" /><path
           id="path232"
           d="M 0,0 C 0,1.12 -0.96,2.08 -2.08,2.08 -3.2,2.08 -4,1.12 -4,0 -4,-1.12 -3.2,-1.92 -2.08,-1.92 -0.96,-1.92 0,-1.12 0,0 Z"
           style="fill:#ffffff;fill-opacity:1;fill-rule:nonzero;stroke:none"
           transform="translate(513.12,515.84002)" /><path
           id="path233"
           d="M 0,0 C 0,1.12 -0.96,2.08 -2.08,2.08 -3.2,2.08 -4,1.12 -4,0 -4,-1.12 -3.2,-1.92 -2.08,-1.92 -0.96,-1.92 0,-1.12 0,0 Z"
           style="fill:#ffffff;fill-opacity:1;fill-rule:nonzero;stroke:none"
           transform="translate(513.12,525.44)" /><path
           id="path234"
           d="M 0,0 C 0,1.12 -0.96,2.08 -2.08,2.08 -3.2,2.08 -4,1.12 -4,0 -4,-1.12 -3.2,-1.92 -2.08,-1.92 -0.96,-1.92 0,-1.12 0,0 Z"
           style="fill:#ffffff;fill-opacity:1;fill-rule:nonzero;stroke:none"
           transform="translate(513.12,506.23998)" /><path
           id="path235"
           d="M 0,0 C 0,1.12 -0.96,2.08 -2.08,2.08 -3.2,2.08 -4,1.12 -4,0 -4,-1.12 -3.2,-1.92 -2.08,-1.92 -0.96,-1.92 0,-1.12 0,0 Z"
           style="fill:#ffffff;fill-opacity:1;fill-rule:nonzero;stroke:none"
           transform="translate(503.51999,515.84002)" /><path
           id="path236"
           d="M 0,0 C 0,1.12 -0.96,2.08 -2.08,2.08 -3.2,2.08 -4,1.12 -4,0 -4,-1.12 -3.2,-1.92 -2.08,-1.92 -0.96,-1.92 0,-1.12 0,0 Z"
           style="fill:#ffffff;fill-opacity:1;fill-rule:nonzero;stroke:none"
           transform="translate(503.51999,525.44)" /><path
           id="path237"
           d="M 0,0 C 0,1.12 -0.96,2.08 -2.08,2.08 -3.2,2.08 -4,1.12 -4,0 -4,-1.12 -3.2,-1.92 -2.08,-1.92 -0.96,-1.92 0,-1.12 0,0 Z"
           style="fill:#ffffff;fill-opacity:1;fill-rule:nonzero;stroke:none"
           transform="translate(385.92001,494.23998)" /><path
           id="path238"
           d="m 0,0 c 0,1.12 -1.12,2.24 -2.24,2.24 -1.12,0 -2.08,-1.12 -2.08,-2.24 0,-1.12 0.96,-2.08 2.08,-2.08 C -1.12,-2.08 0,-1.12 0,0 Z"
           style="fill:#ffffff;fill-opacity:1;fill-rule:nonzero;stroke:none"
           transform="translate(484.48001,490.88)" /><path
           id="path239"
           d="m 0,0 c 0,1.12 -1.12,2.24 -2.24,2.24 -1.12,0 -2.08,-1.12 -2.08,-2.24 0,-1.12 0.96,-2.08 2.08,-2.08 C -1.12,-2.08 0,-1.12 0,0 Z"
           style="fill:#ffffff;fill-opacity:1;fill-rule:nonzero;stroke:none"
           transform="translate(484.48001,500.48001)" /><path
           id="path240"
           d="m 0,0 c 0,1.12 -1.12,2.24 -2.24,2.24 -1.12,0 -2.08,-1.12 -2.08,-2.24 0,-1.12 0.96,-2.08 2.08,-2.08 C -1.12,-2.08 0,-1.12 0,0 Z"
           style="fill:#ffffff;fill-opacity:1;fill-rule:nonzero;stroke:none"
           transform="translate(484.48001,481.27999)" /><path
           id="path241"
           d="m 0,0 c 0,1.12 -1.12,2.24 -2.24,2.24 -1.12,0 -2.08,-1.12 -2.08,-2.24 0,-1.12 0.96,-2.08 2.08,-2.08 C -1.12,-2.08 0,-1.12 0,0 Z"
           style="fill:#ffffff;fill-opacity:1;fill-rule:nonzero;stroke:none"
           transform="translate(484.48001,471.67999)" /><path
           id="path242"
           d="M 0,0 C 0,1.12 -0.96,2.08 -2.08,2.08 -3.2,2.08 -4,1.12 -4,0 -4,-1.12 -3.2,-1.92 -2.08,-1.92 -0.96,-1.92 0,-1.12 0,0 Z"
           style="fill:#ffffff;fill-opacity:1;fill-rule:nonzero;stroke:none"
           transform="translate(395.51999,494.23998)" /><path
           id="path243"
           d="m 0,0 c 0,1.12 -1.12,2.24 -2.24,2.24 -1.12,0 -2.08,-1.12 -2.08,-2.24 0,-1.12 0.96,-2.08 2.08,-2.08 C -1.12,-2.08 0,-1.12 0,0 Z"
           style="fill:#ffffff;fill-opacity:1;fill-rule:nonzero;stroke:none"
           transform="translate(484.48001,462.07998)" /><path
           id="path244"
           d="M 0,0 C 0,1.12 -0.96,2.08 -2.08,2.08 -3.2,2.08 -4,1.12 -4,0 -4,-1.12 -3.2,-1.92 -2.08,-1.92 -0.96,-1.92 0,-1.12 0,0 Z"
           style="fill:#ffffff;fill-opacity:1;fill-rule:nonzero;stroke:none"
           transform="translate(301.92001,463.51998)" /><path
           id="path245"
           d="M 0,0 C 0,1.12 -0.96,2.08 -2.08,2.08 -3.2,2.08 -4,1.12 -4,0 -4,-1.12 -3.2,-1.92 -2.08,-1.92 -0.96,-1.92 0,-1.12 0,0 Z"
           style="fill:#ffffff;fill-opacity:1;fill-rule:nonzero;stroke:none"
           transform="translate(273.12,477.44)" /><path
           id="path246"
           d="M 0,0 C 0,1.12 -0.96,2.08 -2.08,2.08 -3.2,2.08 -4,1.12 -4,0 -4,-1.12 -3.2,-1.92 -2.08,-1.92 -0.96,-1.92 0,-1.12 0,0 Z"
           style="fill:#ffffff;fill-opacity:1;fill-rule:nonzero;stroke:none"
           transform="translate(282.72,477.44)" /><path
           id="path247"
           d="M 0,0 C 0,1.12 -0.96,2.08 -2.08,2.08 -3.2,2.08 -4,1.12 -4,0 -4,-1.12 -3.2,-1.92 -2.08,-1.92 -0.96,-1.92 0,-1.12 0,0 Z"
           style="fill:#ffffff;fill-opacity:1;fill-rule:nonzero;stroke:none"
           transform="translate(282.72,467.83999)" /><path
           id="path248"
           d="M 0,0 C 0,1.12 -0.96,2.08 -2.08,2.08 -3.2,2.08 -4,1.12 -4,0 -4,-1.12 -3.2,-1.92 -2.08,-1.92 -0.96,-1.92 0,-1.12 0,0 Z"
           style="fill:#ffffff;fill-opacity:1;fill-rule:nonzero;stroke:none"
           transform="translate(301.92001,473.11999)" /><path
           id="path249"
           d="M 0,0 C 0,1.12 -0.96,2.08 -2.08,2.08 -3.2,2.08 -4,1.12 -4,0 -4,-1.12 -3.2,-1.92 -2.08,-1.92 -0.96,-1.92 0,-1.12 0,0 Z"
           style="fill:#ffffff;fill-opacity:1;fill-rule:nonzero;stroke:none"
           transform="translate(273.12,458.23998)" /><path
           id="path250"
           d="M 0,0 C 0,1.12 -0.96,2.08 -2.08,2.08 -3.2,2.08 -4,1.12 -4,0 -4,-1.12 -3.2,-1.92 -2.08,-1.92 -0.96,-1.92 0,-1.12 0,0 Z"
           style="fill:#ffffff;fill-opacity:1;fill-rule:nonzero;stroke:none"
           transform="translate(273.12,467.83999)" /><path
           id="path251"
           d="M 0,0 C 0,1.12 -0.96,2.08 -2.08,2.08 -3.2,2.08 -4,1.12 -4,0 -4,-1.12 -3.2,-1.92 -2.08,-1.92 -0.96,-1.92 0,-1.12 0,0 Z"
           style="fill:#ffffff;fill-opacity:1;fill-rule:nonzero;stroke:none"
           transform="translate(282.72,458.23998)" /><path
           id="path252"
           d="m 0,0 c 0,1.12 -1.12,2.24 -2.24,2.24 -1.12,0 -2.08,-1.12 -2.08,-2.24 0,-1.12 0.96,-2.08 2.08,-2.08 C -1.12,-2.08 0,-1.12 0,0 Z"
           style="fill:#ffffff;fill-opacity:1;fill-rule:nonzero;stroke:none"
           transform="translate(302.07999,515.84002)" /><path
           id="path253"
           d="m 0,0 c 0,1.12 -1.12,2.24 -2.24,2.24 -1.12,0 -2.08,-1.12 -2.08,-2.24 0,-1.12 0.96,-2.08 2.08,-2.08 C -1.12,-2.08 0,-1.12 0,0 Z"
           style="fill:#ffffff;fill-opacity:1;fill-rule:nonzero;stroke:none"
           transform="translate(302.07999,535.03997)" /><path
           id="path254"
           d="m 0,0 c 0,1.12 -1.12,2.24 -2.24,2.24 -1.12,0 -2.08,-1.12 -2.08,-2.24 0,-1.12 0.96,-2.08 2.08,-2.08 C -1.12,-2.08 0,-1.12 0,0 Z"
           style="fill:#ffffff;fill-opacity:1;fill-rule:nonzero;stroke:none"
           transform="translate(302.07999,496.64001)" /><path
           id="path255"
           d="m 0,0 c 0,1.12 -1.12,2.24 -2.24,2.24 -1.12,0 -2.08,-1.12 -2.08,-2.24 0,-1.12 0.96,-2.08 2.08,-2.08 C -1.12,-2.08 0,-1.12 0,0 Z"
           style="fill:#ffffff;fill-opacity:1;fill-rule:nonzero;stroke:none"
           transform="translate(302.07999,506.23998)" /><path
           id="path256"
           d="m 0,0 c 0,1.12 -1.12,2.24 -2.24,2.24 -1.12,0 -2.08,-1.12 -2.08,-2.24 0,-1.12 0.96,-2.08 2.08,-2.08 C -1.12,-2.08 0,-1.12 0,0 Z"
           style="fill:#ffffff;fill-opacity:1;fill-rule:nonzero;stroke:none"
           transform="translate(302.07999,525.44)" /><path
           id="path257"
           d="M 0,0 C 0,1.12 -0.96,2.08 -2.08,2.08 -3.2,2.08 -4,1.12 -4,0 -4,-1.12 -3.2,-1.92 -2.08,-1.92 -0.96,-1.92 0,-1.12 0,0 Z"
           style="fill:#ffffff;fill-opacity:1;fill-rule:nonzero;stroke:none"
           transform="translate(282.72,496.64001)" /><path
           id="path258"
           d="M 0,0 C 0,1.12 -0.96,2.08 -2.08,2.08 -3.2,2.08 -4,1.12 -4,0 -4,-1.12 -3.2,-1.92 -2.08,-1.92 -0.96,-1.92 0,-1.12 0,0 Z"
           style="fill:#ffffff;fill-opacity:1;fill-rule:nonzero;stroke:none"
           transform="translate(273.12,487.04)" /><path
           id="path259"
           d="M 0,0 C 0,1.12 -0.96,2.08 -2.08,2.08 -3.2,2.08 -4,1.12 -4,0 -4,-1.12 -3.2,-1.92 -2.08,-1.92 -0.96,-1.92 0,-1.12 0,0 Z"
           style="fill:#ffffff;fill-opacity:1;fill-rule:nonzero;stroke:none"
           transform="translate(282.72,487.04)" /><path
           id="path260"
           d="M 0,0 C 0,1.12 -0.96,2.08 -2.08,2.08 -3.2,2.08 -4,1.12 -4,0 -4,-1.12 -3.2,-1.92 -2.08,-1.92 -0.96,-1.92 0,-1.12 0,0 Z"
           style="fill:#ffffff;fill-opacity:1;fill-rule:nonzero;stroke:none"
           transform="translate(282.72,506.23998)" /><path
           id="path261"
           d="M 0,0 C 0,1.12 -0.96,2.08 -2.08,2.08 -3.2,2.08 -4,1.12 -4,0 -4,-1.12 -3.2,-1.92 -2.08,-1.92 -0.96,-1.92 0,-1.12 0,0 Z"
           style="fill:#ffffff;fill-opacity:1;fill-rule:nonzero;stroke:none"
           transform="translate(273.12,506.23998)" /><path
           id="path262"
           d="M 0,0 C 0,1.12 -0.96,2.08 -2.08,2.08 -3.2,2.08 -4,1.12 -4,0 -4,-1.12 -3.2,-1.92 -2.08,-1.92 -0.96,-1.92 0,-1.12 0,0 Z"
           style="fill:#ffffff;fill-opacity:1;fill-rule:nonzero;stroke:none"
           transform="translate(273.12,496.64001)" /><path
           id="path263"
           d="M 0,0 C 0,1.12 -0.96,2.08 -2.08,2.08 -3.2,2.08 -4,1.12 -4,0 -4,-1.12 -3.2,-1.92 -2.08,-1.92 -0.96,-1.92 0,-1.12 0,0 Z"
           style="fill:#ffffff;fill-opacity:1;fill-rule:nonzero;stroke:none"
           transform="translate(282.72,515.84002)" /><path
           id="path264"
           d="M 0,0 C 0,1.12 -0.96,2.08 -2.08,2.08 -3.2,2.08 -4,1.12 -4,0 -4,-1.12 -3.2,-1.92 -2.08,-1.92 -0.96,-1.92 0,-1.12 0,0 Z"
           style="fill:#ffffff;fill-opacity:1;fill-rule:nonzero;stroke:none"
           transform="translate(273.12,515.84002)" /><path
           id="path265"
           d="M 0,0 C 0,1.12 -0.96,2.08 -2.08,2.08 -3.2,2.08 -4,1.12 -4,0 -4,-1.12 -3.2,-1.92 -2.08,-1.92 -0.96,-1.92 0,-1.12 0,0 Z"
           style="fill:#ffffff;fill-opacity:1;fill-rule:nonzero;stroke:none"
           transform="translate(282.72,525.44)" /><path
           id="path266"
           d="M 0,0 C 0,1.12 -0.96,2.08 -2.08,2.08 -3.2,2.08 -4,1.12 -4,0 -4,-1.12 -3.2,-1.92 -2.08,-1.92 -0.96,-1.92 0,-1.12 0,0 Z"
           style="fill:#ffffff;fill-opacity:1;fill-rule:nonzero;stroke:none"
           transform="translate(273.12,535.03997)" /><path
           id="path267"
           d="M 0,0 C 0,1.12 -0.96,2.08 -2.08,2.08 -3.2,2.08 -4,1.12 -4,0 -4,-1.12 -3.2,-1.92 -2.08,-1.92 -0.96,-1.92 0,-1.12 0,0 Z"
           style="fill:#ffffff;fill-opacity:1;fill-rule:nonzero;stroke:none"
           transform="translate(282.72,535.03997)" /><path
           id="path268"
           d="M 0,0 C 0,1.12 -0.96,2.08 -2.08,2.08 -3.2,2.08 -4,1.12 -4,0 -4,-1.12 -3.2,-1.92 -2.08,-1.92 -0.96,-1.92 0,-1.12 0,0 Z"
           style="fill:#ffffff;fill-opacity:1;fill-rule:nonzero;stroke:none"
           transform="translate(273.12,525.44)" /><path
           id="path269"
           d="M 0,0 C 0,1.12 -0.96,2.08 -2.08,2.08 -3.2,2.08 -4,1.12 -4,0 -4,-1.12 -3.2,-1.92 -2.08,-1.92 -0.96,-1.92 0,-1.12 0,0 Z"
           style="fill:#ffffff;fill-opacity:1;fill-rule:nonzero;stroke:none"
           transform="translate(330.72,473.11999)" /><path
           id="path270"
           d="M 0,0 C 0,1.12 -0.96,2.08 -2.08,2.08 -3.2,2.08 -4,1.12 -4,0 -4,-1.12 -3.2,-1.92 -2.08,-1.92 -0.96,-1.92 0,-1.12 0,0 Z"
           style="fill:#ffffff;fill-opacity:1;fill-rule:nonzero;stroke:none"
           transform="translate(321.12,473.11999)" /><path
           id="path271"
           d="M 0,0 C 0,1.12 -0.96,2.08 -2.08,2.08 -3.2,2.08 -4,1.12 -4,0 -4,-1.12 -3.2,-1.92 -2.08,-1.92 -0.96,-1.92 0,-1.12 0,0 Z"
           style="fill:#ffffff;fill-opacity:1;fill-rule:nonzero;stroke:none"
           transform="translate(330.72,463.51998)" /><path
           id="path272"
           d="M 0,0 C 0,1.12 -0.96,2.08 -2.08,2.08 -3.2,2.08 -4,1.12 -4,0 -4,-1.12 -3.2,-1.92 -2.08,-1.92 -0.96,-1.92 0,-1.12 0,0 Z"
           style="fill:#ffffff;fill-opacity:1;fill-rule:nonzero;stroke:none"
           transform="translate(311.51999,473.11999)" /><path
           id="path273"
           d="M 0,0 C 0,1.12 -0.96,2.08 -2.08,2.08 -3.2,2.08 -4,1.12 -4,0 -4,-1.12 -3.2,-1.92 -2.08,-1.92 -0.96,-1.92 0,-1.12 0,0 Z"
           style="fill:#ffffff;fill-opacity:1;fill-rule:nonzero;stroke:none"
           transform="translate(311.51999,463.51998)" /><path
           id="path274"
           d="M 0,0 C 0,1.12 -0.96,2.08 -2.08,2.08 -3.2,2.08 -4,1.12 -4,0 -4,-1.12 -3.2,-1.92 -2.08,-1.92 -0.96,-1.92 0,-1.12 0,0 Z"
           style="fill:#ffffff;fill-opacity:1;fill-rule:nonzero;stroke:none"
           transform="translate(321.12,463.51998)" /></g></g></g></svg>
