<?xml version="1.0" encoding="UTF-8" standalone="no"?>
<!-- Created with Inkscape (http://www.inkscape.org/) -->

<svg
   width="70.40033mm"
   height="75.226334mm"
   viewBox="0 0 70.40033 75.226334"
   version="1.1"
   id="svg1"
   xml:space="preserve"
   inkscape:version="1.4.2 (f4327f4, 2025-05-13)"
   sodipodi:docname="mb1642d.svg"
   xmlns:inkscape="http://www.inkscape.org/namespaces/inkscape"
   xmlns:sodipodi="http://sodipodi.sourceforge.net/DTD/sodipodi-0.dtd"
   xmlns="http://www.w3.org/2000/svg"
   xmlns:svg="http://www.w3.org/2000/svg"><sodipodi:namedview
     id="namedview1"
     pagecolor="#ffffff"
     bordercolor="#000000"
     borderopacity="0.25"
     inkscape:showpageshadow="2"
     inkscape:pageopacity="0.0"
     inkscape:pagecheckerboard="0"
     inkscape:deskcolor="#d1d1d1"
     inkscape:document-units="mm"
     inkscape:zoom="0.68862935"
     inkscape:cx="530.76448"
     inkscape:cy="182.24608"
     inkscape:window-width="1920"
     inkscape:window-height="991"
     inkscape:window-x="-9"
     inkscape:window-y="-9"
     inkscape:window-maximized="1"
     inkscape:current-layer="layer1" /><defs
     id="defs1" /><g
     inkscape:label="Layer 1"
     inkscape:groupmode="layer"
     id="layer1"
     transform="translate(35.411828,64.949931)"><g
       id="g2"><g
         id="g1"
         inkscape:label="1"
         transform="matrix(0.26458333,0,0,0.26458333,-105.24066,-148.57943)"><path
           id="path600"
           d="M 0,0 C 0,1.92 -1.76,3.68 -3.68,3.68 -5.6,3.68 -7.2,1.92 -7.2,0 c 0,-1.92 1.6,-3.52 3.52,-3.52 1.92,0 3.68,1.6 3.68,3.52 z"
           style="fill:#000000;fill-opacity:1;fill-rule:evenodd;stroke:none"
           transform="translate(280.64001,411.67999)" /><path
           id="path601"
           d="M 0,0 C 0,1.92 -1.76,3.68 -3.68,3.68 -5.6,3.68 -7.2,1.92 -7.2,0 c 0,-1.92 1.6,-3.52 3.52,-3.52 1.92,0 3.68,1.6 3.68,3.52 z"
           style="fill:#000000;fill-opacity:1;fill-rule:evenodd;stroke:none"
           transform="translate(280.64001,402.07998)" /><path
           id="path602"
           d="M 0,0 C 0,1.92 -1.76,3.68 -3.68,3.68 -5.6,3.68 -7.2,1.92 -7.2,0 c 0,-1.92 1.6,-3.52 3.52,-3.52 1.92,0 3.68,1.6 3.68,3.52 z"
           style="fill:#000000;fill-opacity:1;fill-rule:evenodd;stroke:none"
           transform="translate(290.23999,402.07998)" /><path
           id="path603"
           d="M 0,0 C 0,1.92 -1.76,3.68 -3.68,3.68 -5.6,3.68 -7.2,1.92 -7.2,0 c 0,-1.92 1.6,-3.52 3.52,-3.52 1.92,0 3.68,1.6 3.68,3.52 z"
           style="fill:#000000;fill-opacity:1;fill-rule:evenodd;stroke:none"
           transform="translate(290.23999,411.67999)" /><path
           id="path604"
           d="M 0,0 C 0,1.92 -1.76,3.68 -3.68,3.68 -5.6,3.68 -7.2,1.92 -7.2,0 c 0,-1.92 1.6,-3.52 3.52,-3.52 1.92,0 3.68,1.6 3.68,3.52 z"
           style="fill:#000000;fill-opacity:1;fill-rule:evenodd;stroke:none"
           transform="translate(290.23999,421.27999)" /><path
           id="path605"
           d="M 0,0 C 0,1.92 -1.76,3.68 -3.68,3.68 -5.6,3.68 -7.2,1.92 -7.2,0 c 0,-1.92 1.6,-3.52 3.52,-3.52 1.92,0 3.68,1.6 3.68,3.52 z"
           style="fill:#000000;fill-opacity:1;fill-rule:evenodd;stroke:none"
           transform="translate(280.64001,421.27999)" /><path
           id="path606"
           d="M 0,0 C 0,1.92 -1.76,3.68 -3.68,3.68 -5.6,3.68 -7.2,1.92 -7.2,0 c 0,-1.92 1.6,-3.52 3.52,-3.52 1.92,0 3.68,1.6 3.68,3.52 z"
           style="fill:#000000;fill-opacity:1;fill-rule:evenodd;stroke:none"
           transform="translate(280.64001,354.07998)" /><path
           id="path607"
           d="M 0,0 C 0,1.92 -1.76,3.68 -3.68,3.68 -5.6,3.68 -7.2,1.92 -7.2,0 c 0,-1.92 1.6,-3.52 3.52,-3.52 1.92,0 3.68,1.6 3.68,3.52 z"
           style="fill:#000000;fill-opacity:1;fill-rule:evenodd;stroke:none"
           transform="translate(290.23999,344.48001)" /><path
           id="path608"
           d="M 0,0 C 0,1.92 -1.76,3.68 -3.68,3.68 -5.6,3.68 -7.2,1.92 -7.2,0 c 0,-1.92 1.6,-3.52 3.52,-3.52 1.92,0 3.68,1.6 3.68,3.52 z"
           style="fill:#000000;fill-opacity:1;fill-rule:evenodd;stroke:none"
           transform="translate(290.23999,354.07998)" /><path
           id="path609"
           d="M 0,0 C 0,1.92 -1.76,3.68 -3.68,3.68 -5.6,3.68 -7.2,1.92 -7.2,0 c 0,-1.92 1.6,-3.52 3.52,-3.52 1.92,0 3.68,1.6 3.68,3.52 z"
           style="fill:#000000;fill-opacity:1;fill-rule:evenodd;stroke:none"
           transform="translate(280.64001,363.67999)" /><path
           id="path610"
           d="M 0,0 C 0,1.92 -1.76,3.68 -3.68,3.68 -5.6,3.68 -7.2,1.92 -7.2,0 c 0,-1.92 1.6,-3.52 3.52,-3.52 1.92,0 3.68,1.6 3.68,3.52 z"
           style="fill:#000000;fill-opacity:1;fill-rule:evenodd;stroke:none"
           transform="translate(290.23999,363.67999)" /><path
           id="path611"
           d="m 273.44,341.12 h 6.88001 V 348 H 273.44 Z"
           style="fill:#000000;fill-opacity:1;fill-rule:evenodd;stroke:none" /><path
           id="path612"
           d="M 0,0 C 0,1.92 -1.76,3.68 -3.68,3.68 -5.6,3.68 -7.2,1.92 -7.2,0 c 0,-1.92 1.6,-3.52 3.52,-3.52 1.92,0 3.68,1.6 3.68,3.52 z"
           style="fill:#000000;fill-opacity:1;fill-rule:evenodd;stroke:none"
           transform="translate(280.64001,382.88)" /><path
           id="path613"
           d="M 0,0 C 0,1.92 -1.76,3.68 -3.68,3.68 -5.6,3.68 -7.2,1.92 -7.2,0 c 0,-1.92 1.6,-3.52 3.52,-3.52 1.92,0 3.68,1.6 3.68,3.52 z"
           style="fill:#000000;fill-opacity:1;fill-rule:evenodd;stroke:none"
           transform="translate(290.23999,392.48001)" /><path
           id="path614"
           d="M 0,0 C 0,1.92 -1.76,3.68 -3.68,3.68 -5.6,3.68 -7.2,1.92 -7.2,0 c 0,-1.92 1.6,-3.52 3.52,-3.52 1.92,0 3.68,1.6 3.68,3.52 z"
           style="fill:#000000;fill-opacity:1;fill-rule:evenodd;stroke:none"
           transform="translate(290.23999,373.27999)" /><path
           id="path615"
           d="M 0,0 C 0,1.92 -1.76,3.68 -3.68,3.68 -5.6,3.68 -7.2,1.92 -7.2,0 c 0,-1.92 1.6,-3.52 3.52,-3.52 1.92,0 3.68,1.6 3.68,3.52 z"
           style="fill:#000000;fill-opacity:1;fill-rule:evenodd;stroke:none"
           transform="translate(290.23999,382.88)" /><path
           id="path616"
           d="M 0,0 C 0,1.92 -1.76,3.68 -3.68,3.68 -5.6,3.68 -7.2,1.92 -7.2,0 c 0,-1.92 1.6,-3.52 3.52,-3.52 1.92,0 3.68,1.6 3.68,3.52 z"
           style="fill:#000000;fill-opacity:1;fill-rule:evenodd;stroke:none"
           transform="translate(280.64001,373.27999)" /><path
           id="path617"
           d="M 0,0 C 0,1.92 -1.76,3.68 -3.68,3.68 -5.6,3.68 -7.2,1.92 -7.2,0 c 0,-1.92 1.6,-3.52 3.52,-3.52 1.92,0 3.68,1.6 3.68,3.52 z"
           style="fill:#000000;fill-opacity:1;fill-rule:evenodd;stroke:none"
           transform="translate(280.64001,392.48001)" /><path
           id="path618"
           d="M 0,0 C 0,1.92 -1.76,3.68 -3.68,3.68 -5.6,3.68 -7.2,1.92 -7.2,0 c 0,-1.92 1.6,-3.52 3.52,-3.52 1.92,0 3.68,1.6 3.68,3.52 z"
           style="fill:#000000;fill-opacity:1;fill-rule:evenodd;stroke:none"
           transform="translate(290.23999,450.07998)" /><path
           id="path619"
           d="M 0,0 C 0,1.92 -1.76,3.68 -3.68,3.68 -5.6,3.68 -7.2,1.92 -7.2,0 c 0,-1.92 1.6,-3.52 3.52,-3.52 1.92,0 3.68,1.6 3.68,3.52 z"
           style="fill:#000000;fill-opacity:1;fill-rule:evenodd;stroke:none"
           transform="translate(280.64001,430.88)" /><path
           id="path620"
           d="M 0,0 C 0,1.92 -1.76,3.68 -3.68,3.68 -5.6,3.68 -7.2,1.92 -7.2,0 c 0,-1.92 1.6,-3.52 3.52,-3.52 1.92,0 3.68,1.6 3.68,3.52 z"
           style="fill:#000000;fill-opacity:1;fill-rule:evenodd;stroke:none"
           transform="translate(290.23999,440.48001)" /><path
           id="path621"
           d="M 0,0 C 0,1.92 -1.76,3.68 -3.68,3.68 -5.6,3.68 -7.2,1.92 -7.2,0 c 0,-1.92 1.6,-3.52 3.52,-3.52 1.92,0 3.68,1.6 3.68,3.52 z"
           style="fill:#000000;fill-opacity:1;fill-rule:evenodd;stroke:none"
           transform="translate(280.64001,450.07998)" /><path
           id="path622"
           d="M 0,0 C 0,1.92 -1.76,3.68 -3.68,3.68 -5.6,3.68 -7.2,1.92 -7.2,0 c 0,-1.92 1.6,-3.52 3.52,-3.52 1.92,0 3.68,1.6 3.68,3.52 z"
           style="fill:#000000;fill-opacity:1;fill-rule:evenodd;stroke:none"
           transform="translate(290.23999,430.88)" /><path
           id="path623"
           d="M 0,0 C 0,1.92 -1.76,3.68 -3.68,3.68 -5.6,3.68 -7.2,1.92 -7.2,0 c 0,-1.92 1.6,-3.52 3.52,-3.52 1.92,0 3.68,1.6 3.68,3.52 z"
           style="fill:#000000;fill-opacity:1;fill-rule:evenodd;stroke:none"
           transform="translate(280.64001,440.48001)" /><path
           id="path624"
           d="M 0,0 C 0,1.92 -1.76,3.68 -3.68,3.68 -5.6,3.68 -7.2,1.92 -7.2,0 c 0,-1.92 1.6,-3.52 3.52,-3.52 1.92,0 3.68,1.6 3.68,3.52 z"
           style="fill:#000000;fill-opacity:1;fill-rule:evenodd;stroke:none"
           transform="translate(290.23999,478.88)" /><path
           id="path625"
           d="M 0,0 C 0,1.92 -1.76,3.68 -3.68,3.68 -5.6,3.68 -7.2,1.92 -7.2,0 c 0,-1.92 1.6,-3.52 3.52,-3.52 1.92,0 3.68,1.6 3.68,3.52 z"
           style="fill:#000000;fill-opacity:1;fill-rule:evenodd;stroke:none"
           transform="translate(280.64001,478.88)" /><path
           id="path626"
           d="M 0,0 C 0,1.92 -1.76,3.68 -3.68,3.68 -5.6,3.68 -7.2,1.92 -7.2,0 c 0,-1.92 1.6,-3.52 3.52,-3.52 1.92,0 3.68,1.6 3.68,3.52 z"
           style="fill:#000000;fill-opacity:1;fill-rule:evenodd;stroke:none"
           transform="translate(280.64001,469.27999)" /><path
           id="path627"
           d="M 0,0 C 0,1.92 -1.76,3.68 -3.68,3.68 -5.6,3.68 -7.2,1.92 -7.2,0 c 0,-1.92 1.6,-3.52 3.52,-3.52 1.92,0 3.68,1.6 3.68,3.52 z"
           style="fill:#000000;fill-opacity:1;fill-rule:evenodd;stroke:none"
           transform="translate(290.23999,469.27999)" /><path
           id="path628"
           d="M 0,0 C 0,1.92 -1.76,3.68 -3.68,3.68 -5.6,3.68 -7.2,1.92 -7.2,0 c 0,-1.92 1.6,-3.52 3.52,-3.52 1.92,0 3.68,1.6 3.68,3.52 z"
           style="fill:#000000;fill-opacity:1;fill-rule:evenodd;stroke:none"
           transform="translate(290.23999,459.67999)" /><path
           id="path629"
           d="M 0,0 C 0,1.92 -1.76,3.68 -3.68,3.68 -5.6,3.68 -7.2,1.92 -7.2,0 c 0,-1.92 1.6,-3.52 3.52,-3.52 1.92,0 3.68,1.6 3.68,3.52 z"
           style="fill:#000000;fill-opacity:1;fill-rule:evenodd;stroke:none"
           transform="translate(280.64001,459.67999)" /><path
           id="path630"
           d="M 0,0 C 0,1.92 -1.76,3.68 -3.68,3.68 -5.6,3.68 -7.2,1.92 -7.2,0 c 0,-1.92 1.6,-3.52 3.52,-3.52 1.92,0 3.68,1.6 3.68,3.52 z"
           style="fill:#000000;fill-opacity:1;fill-rule:evenodd;stroke:none"
           transform="translate(280.64001,488.48001)" /><path
           id="path631"
           d="M 0,0 C 0,1.92 -1.76,3.68 -3.68,3.68 -5.6,3.68 -7.2,1.92 -7.2,0 c 0,-1.92 1.6,-3.52 3.52,-3.52 1.92,0 3.68,1.6 3.68,3.52 z"
           style="fill:#000000;fill-opacity:1;fill-rule:evenodd;stroke:none"
           transform="translate(290.23999,488.48001)" /><path
           id="path632"
           d="M 0,0 C 0,1.92 -1.76,3.68 -3.68,3.68 -5.6,3.68 -7.2,1.92 -7.2,0 c 0,-1.92 1.6,-3.52 3.52,-3.52 1.92,0 3.68,1.6 3.68,3.52 z"
           style="fill:#000000;fill-opacity:1;fill-rule:evenodd;stroke:none"
           transform="translate(280.64001,498.07998)" /><path
           id="path633"
           d="M 0,0 C 0,1.92 -1.76,3.68 -3.68,3.68 -5.6,3.68 -7.2,1.92 -7.2,0 c 0,-1.92 1.6,-3.52 3.52,-3.52 1.92,0 3.68,1.6 3.68,3.52 z"
           style="fill:#000000;fill-opacity:1;fill-rule:evenodd;stroke:none"
           transform="translate(290.23999,498.07998)" /><path
           id="path634"
           d="M 0,0 C 0,1.92 -1.76,3.68 -3.68,3.68 -5.6,3.68 -7.2,1.92 -7.2,0 c 0,-1.92 1.6,-3.52 3.52,-3.52 1.92,0 3.68,1.6 3.68,3.52 z"
           style="fill:#000000;fill-opacity:1;fill-rule:evenodd;stroke:none"
           transform="translate(280.64001,507.67999)" /><path
           id="path635"
           d="M 0,0 C 0,1.92 -1.76,3.68 -3.68,3.68 -5.6,3.68 -7.2,1.92 -7.2,0 c 0,-1.92 1.6,-3.52 3.52,-3.52 1.92,0 3.68,1.6 3.68,3.52 z"
           style="fill:#000000;fill-opacity:1;fill-rule:evenodd;stroke:none"
           transform="translate(290.23999,507.67999)" /><path
           id="path636"
           d="M 0,0 C 0,1.92 -1.76,3.68 -3.68,3.68 -5.6,3.68 -7.2,1.92 -7.2,0 c 0,-1.92 1.6,-3.52 3.52,-3.52 1.92,0 3.68,1.6 3.68,3.52 z"
           style="fill:#000000;fill-opacity:1;fill-rule:evenodd;stroke:none"
           transform="translate(290.23999,517.28002)" /><path
           id="path637"
           d="M 0,0 C 0,1.92 -1.76,3.68 -3.68,3.68 -5.6,3.68 -7.2,1.92 -7.2,0 c 0,-1.92 1.6,-3.52 3.52,-3.52 1.92,0 3.68,1.6 3.68,3.52 z"
           style="fill:#000000;fill-opacity:1;fill-rule:evenodd;stroke:none"
           transform="translate(280.64001,517.28002)" /><path
           id="path638"
           d="M 0,0 C 0,1.92 -1.76,3.68 -3.68,3.68 -5.6,3.68 -7.2,1.92 -7.2,0 c 0,-1.92 1.6,-3.52 3.52,-3.52 1.92,0 3.68,1.6 3.68,3.52 z"
           style="fill:#000000;fill-opacity:1;fill-rule:evenodd;stroke:none"
           transform="translate(511.04001,450.07998)" /><path
           id="path639"
           d="M 0,0 C 0,1.92 -1.76,3.68 -3.68,3.68 -5.6,3.68 -7.2,1.92 -7.2,0 c 0,-1.92 1.6,-3.52 3.52,-3.52 1.92,0 3.68,1.6 3.68,3.52 z"
           style="fill:#000000;fill-opacity:1;fill-rule:evenodd;stroke:none"
           transform="translate(511.04001,459.67999)" /><path
           id="path640"
           d="M 0,0 C 0,1.92 -1.76,3.68 -3.68,3.68 -5.6,3.68 -7.2,1.92 -7.2,0 c 0,-1.92 1.6,-3.52 3.52,-3.52 1.92,0 3.68,1.6 3.68,3.52 z"
           style="fill:#000000;fill-opacity:1;fill-rule:evenodd;stroke:none"
           transform="translate(511.04001,469.27999)" /><path
           id="path641"
           d="M 0,0 C 0,1.92 -1.76,3.68 -3.68,3.68 -5.6,3.68 -7.2,1.92 -7.2,0 c 0,-1.92 1.6,-3.52 3.52,-3.52 1.92,0 3.68,1.6 3.68,3.52 z"
           style="fill:#000000;fill-opacity:1;fill-rule:evenodd;stroke:none"
           transform="translate(520.64001,469.27999)" /><path
           id="path642"
           d="M 0,0 C 0,1.92 -1.76,3.68 -3.68,3.68 -5.6,3.68 -7.2,1.92 -7.2,0 c 0,-1.92 1.6,-3.52 3.52,-3.52 1.92,0 3.68,1.6 3.68,3.52 z"
           style="fill:#000000;fill-opacity:1;fill-rule:evenodd;stroke:none"
           transform="translate(520.64001,459.67999)" /><path
           id="path643"
           d="M 0,0 C 0,1.92 -1.76,3.68 -3.68,3.68 -5.6,3.68 -7.2,1.92 -7.2,0 c 0,-1.92 1.6,-3.52 3.52,-3.52 1.92,0 3.68,1.6 3.68,3.52 z"
           style="fill:#000000;fill-opacity:1;fill-rule:evenodd;stroke:none"
           transform="translate(520.64001,450.07998)" /><path
           id="path644"
           d="M 0,0 C 0,1.92 -1.76,3.68 -3.68,3.68 -5.6,3.68 -7.2,1.92 -7.2,0 c 0,-1.92 1.6,-3.52 3.52,-3.52 1.92,0 3.68,1.6 3.68,3.52 z"
           style="fill:#000000;fill-opacity:1;fill-rule:evenodd;stroke:none"
           transform="translate(511.04001,402.07998)" /><path
           id="path645"
           d="M 0,0 C 0,1.92 -1.76,3.68 -3.68,3.68 -5.6,3.68 -7.2,1.92 -7.2,0 c 0,-1.92 1.6,-3.52 3.52,-3.52 1.92,0 3.68,1.6 3.68,3.52 z"
           style="fill:#000000;fill-opacity:1;fill-rule:evenodd;stroke:none"
           transform="translate(520.64001,382.88)" /><path
           id="path646"
           d="M 0,0 C 0,1.92 -1.76,3.68 -3.68,3.68 -5.6,3.68 -7.2,1.92 -7.2,0 c 0,-1.92 1.6,-3.52 3.52,-3.52 1.92,0 3.68,1.6 3.68,3.52 z"
           style="fill:#000000;fill-opacity:1;fill-rule:evenodd;stroke:none"
           transform="translate(520.64001,411.67999)" /><path
           id="path647"
           d="M 0,0 C 0,1.92 -1.76,3.68 -3.68,3.68 -5.6,3.68 -7.2,1.92 -7.2,0 c 0,-1.92 1.6,-3.52 3.52,-3.52 1.92,0 3.68,1.6 3.68,3.52 z"
           style="fill:#000000;fill-opacity:1;fill-rule:evenodd;stroke:none"
           transform="translate(511.04001,392.48001)" /><path
           id="path648"
           d="M 0,0 C 0,1.92 -1.76,3.68 -3.68,3.68 -5.6,3.68 -7.2,1.92 -7.2,0 c 0,-1.92 1.6,-3.52 3.52,-3.52 1.92,0 3.68,1.6 3.68,3.52 z"
           style="fill:#000000;fill-opacity:1;fill-rule:evenodd;stroke:none"
           transform="translate(511.04001,382.88)" /><path
           id="path649"
           d="M 0,0 C 0,1.92 -1.76,3.68 -3.68,3.68 -5.6,3.68 -7.2,1.92 -7.2,0 c 0,-1.92 1.6,-3.52 3.52,-3.52 1.92,0 3.68,1.6 3.68,3.52 z"
           style="fill:#000000;fill-opacity:1;fill-rule:evenodd;stroke:none"
           transform="translate(511.04001,411.67999)" /><path
           id="path650"
           d="M 0,0 C 0,1.92 -1.76,3.68 -3.68,3.68 -5.6,3.68 -7.2,1.92 -7.2,0 c 0,-1.92 1.6,-3.52 3.52,-3.52 1.92,0 3.68,1.6 3.68,3.52 z"
           style="fill:#000000;fill-opacity:1;fill-rule:evenodd;stroke:none"
           transform="translate(520.64001,402.07998)" /><path
           id="path651"
           d="M 0,0 C 0,1.92 -1.76,3.68 -3.68,3.68 -5.6,3.68 -7.2,1.92 -7.2,0 c 0,-1.92 1.6,-3.52 3.52,-3.52 1.92,0 3.68,1.6 3.68,3.52 z"
           style="fill:#000000;fill-opacity:1;fill-rule:evenodd;stroke:none"
           transform="translate(520.64001,392.48001)" /><path
           id="path652"
           d="M 0,0 C 0,1.92 -1.76,3.68 -3.68,3.68 -5.6,3.68 -7.2,1.92 -7.2,0 c 0,-1.92 1.6,-3.52 3.52,-3.52 1.92,0 3.68,1.6 3.68,3.52 z"
           style="fill:#000000;fill-opacity:1;fill-rule:evenodd;stroke:none"
           transform="translate(511.04001,373.27999)" /><path
           id="path653"
           d="M 0,0 C 0,1.92 -1.76,3.68 -3.68,3.68 -5.6,3.68 -7.2,1.92 -7.2,0 c 0,-1.92 1.6,-3.52 3.52,-3.52 1.92,0 3.68,1.6 3.68,3.52 z"
           style="fill:#000000;fill-opacity:1;fill-rule:evenodd;stroke:none"
           transform="translate(520.64001,373.27999)" /><path
           id="path654"
           d="M 0,0 C 0,1.92 -1.76,3.68 -3.68,3.68 -5.6,3.68 -7.2,1.92 -7.2,0 c 0,-1.92 1.6,-3.52 3.52,-3.52 1.92,0 3.68,1.6 3.68,3.52 z"
           style="fill:#000000;fill-opacity:1;fill-rule:evenodd;stroke:none"
           transform="translate(520.64001,363.67999)" /><path
           id="path655"
           d="M 0,0 C 0,1.92 -1.76,3.68 -3.68,3.68 -5.6,3.68 -7.2,1.92 -7.2,0 c 0,-1.92 1.6,-3.52 3.52,-3.52 1.92,0 3.68,1.6 3.68,3.52 z"
           style="fill:#000000;fill-opacity:1;fill-rule:evenodd;stroke:none"
           transform="translate(511.04001,354.07998)" /><path
           id="path656"
           d="M 0,0 C 0,1.92 -1.76,3.68 -3.68,3.68 -5.6,3.68 -7.2,1.92 -7.2,0 c 0,-1.92 1.6,-3.52 3.52,-3.52 1.92,0 3.68,1.6 3.68,3.52 z"
           style="fill:#000000;fill-opacity:1;fill-rule:evenodd;stroke:none"
           transform="translate(520.64001,354.07998)" /><path
           id="path657"
           d="m 503.84,341.12 h 6.88 V 348 h -6.88 z"
           style="fill:#000000;fill-opacity:1;fill-rule:evenodd;stroke:none" /><path
           id="path658"
           d="M 0,0 C 0,1.92 -1.76,3.68 -3.68,3.68 -5.6,3.68 -7.2,1.92 -7.2,0 c 0,-1.92 1.6,-3.52 3.52,-3.52 1.92,0 3.68,1.6 3.68,3.52 z"
           style="fill:#000000;fill-opacity:1;fill-rule:evenodd;stroke:none"
           transform="translate(511.04001,363.67999)" /><path
           id="path659"
           d="M 0,0 C 0,1.92 -1.76,3.68 -3.68,3.68 -5.6,3.68 -7.2,1.92 -7.2,0 c 0,-1.92 1.6,-3.52 3.52,-3.52 1.92,0 3.68,1.6 3.68,3.52 z"
           style="fill:#000000;fill-opacity:1;fill-rule:evenodd;stroke:none"
           transform="translate(520.64001,344.48001)" /><path
           id="path660"
           d="M 0,0 C 0,1.92 -1.76,3.68 -3.68,3.68 -5.6,3.68 -7.2,1.92 -7.2,0 c 0,-1.92 1.6,-3.52 3.52,-3.52 1.92,0 3.68,1.6 3.68,3.52 z"
           style="fill:#000000;fill-opacity:1;fill-rule:evenodd;stroke:none"
           transform="translate(520.64001,430.88)" /><path
           id="path661"
           d="M 0,0 C 0,1.92 -1.76,3.68 -3.68,3.68 -5.6,3.68 -7.2,1.92 -7.2,0 c 0,-1.92 1.6,-3.52 3.52,-3.52 1.92,0 3.68,1.6 3.68,3.52 z"
           style="fill:#000000;fill-opacity:1;fill-rule:evenodd;stroke:none"
           transform="translate(511.04001,430.88)" /><path
           id="path662"
           d="M 0,0 C 0,1.92 -1.76,3.68 -3.68,3.68 -5.6,3.68 -7.2,1.92 -7.2,0 c 0,-1.92 1.6,-3.52 3.52,-3.52 1.92,0 3.68,1.6 3.68,3.52 z"
           style="fill:#000000;fill-opacity:1;fill-rule:evenodd;stroke:none"
           transform="translate(520.64001,440.48001)" /><path
           id="path663"
           d="M 0,0 C 0,1.92 -1.76,3.68 -3.68,3.68 -5.6,3.68 -7.2,1.92 -7.2,0 c 0,-1.92 1.6,-3.52 3.52,-3.52 1.92,0 3.68,1.6 3.68,3.52 z"
           style="fill:#000000;fill-opacity:1;fill-rule:evenodd;stroke:none"
           transform="translate(511.04001,440.48001)" /><path
           id="path664"
           d="M 0,0 C 0,1.92 -1.76,3.68 -3.68,3.68 -5.6,3.68 -7.2,1.92 -7.2,0 c 0,-1.92 1.6,-3.52 3.52,-3.52 1.92,0 3.68,1.6 3.68,3.52 z"
           style="fill:#000000;fill-opacity:1;fill-rule:evenodd;stroke:none"
           transform="translate(511.04001,421.27999)" /><path
           id="path665"
           d="M 0,0 C 0,1.92 -1.76,3.68 -3.68,3.68 -5.6,3.68 -7.2,1.92 -7.2,0 c 0,-1.92 1.6,-3.52 3.52,-3.52 1.92,0 3.68,1.6 3.68,3.52 z"
           style="fill:#000000;fill-opacity:1;fill-rule:evenodd;stroke:none"
           transform="translate(520.64001,421.27999)" /><path
           id="path666"
           d="M 0,0 C 0,1.92 -1.76,3.68 -3.68,3.68 -5.6,3.68 -7.2,1.92 -7.2,0 c 0,-1.92 1.6,-3.52 3.52,-3.52 1.92,0 3.68,1.6 3.68,3.52 z"
           style="fill:#000000;fill-opacity:1;fill-rule:evenodd;stroke:none"
           transform="translate(520.64001,488.48001)" /><path
           id="path667"
           d="M 0,0 C 0,1.92 -1.76,3.68 -3.68,3.68 -5.6,3.68 -7.2,1.92 -7.2,0 c 0,-1.92 1.6,-3.52 3.52,-3.52 1.92,0 3.68,1.6 3.68,3.52 z"
           style="fill:#000000;fill-opacity:1;fill-rule:evenodd;stroke:none"
           transform="translate(520.64001,478.88)" /><path
           id="path668"
           d="M 0,0 C 0,1.92 -1.76,3.68 -3.68,3.68 -5.6,3.68 -7.2,1.92 -7.2,0 c 0,-1.92 1.6,-3.52 3.52,-3.52 1.92,0 3.68,1.6 3.68,3.52 z"
           style="fill:#000000;fill-opacity:1;fill-rule:evenodd;stroke:none"
           transform="translate(520.64001,498.07998)" /><path
           id="path669"
           d="M 0,0 C 0,1.92 -1.76,3.68 -3.68,3.68 -5.6,3.68 -7.2,1.92 -7.2,0 c 0,-1.92 1.6,-3.52 3.52,-3.52 1.92,0 3.68,1.6 3.68,3.52 z"
           style="fill:#000000;fill-opacity:1;fill-rule:evenodd;stroke:none"
           transform="translate(511.04001,498.07998)" /><path
           id="path670"
           d="M 0,0 C 0,1.92 -1.76,3.68 -3.68,3.68 -5.6,3.68 -7.2,1.92 -7.2,0 c 0,-1.92 1.6,-3.52 3.52,-3.52 1.92,0 3.68,1.6 3.68,3.52 z"
           style="fill:#000000;fill-opacity:1;fill-rule:evenodd;stroke:none"
           transform="translate(511.04001,478.88)" /><path
           id="path671"
           d="M 0,0 C 0,1.92 -1.76,3.68 -3.68,3.68 -5.6,3.68 -7.2,1.92 -7.2,0 c 0,-1.92 1.6,-3.52 3.52,-3.52 1.92,0 3.68,1.6 3.68,3.52 z"
           style="fill:#000000;fill-opacity:1;fill-rule:evenodd;stroke:none"
           transform="translate(511.04001,488.48001)" /><path
           id="path672"
           d="M 0,0 C 0,1.92 -1.76,3.68 -3.68,3.68 -5.6,3.68 -7.2,1.92 -7.2,0 c 0,-1.92 1.6,-3.52 3.52,-3.52 1.92,0 3.68,1.6 3.68,3.52 z"
           style="fill:#000000;fill-opacity:1;fill-rule:evenodd;stroke:none"
           transform="translate(520.64001,517.28002)" /><path
           id="path673"
           d="M 0,0 C 0,1.92 -1.76,3.68 -3.68,3.68 -5.6,3.68 -7.2,1.92 -7.2,0 c 0,-1.92 1.6,-3.52 3.52,-3.52 1.92,0 3.68,1.6 3.68,3.52 z"
           style="fill:#000000;fill-opacity:1;fill-rule:evenodd;stroke:none"
           transform="translate(511.04001,507.67999)" /><path
           id="path674"
           d="M 0,0 C 0,1.92 -1.76,3.68 -3.68,3.68 -5.6,3.68 -7.2,1.92 -7.2,0 c 0,-1.92 1.6,-3.52 3.52,-3.52 1.92,0 3.68,1.6 3.68,3.52 z"
           style="fill:#000000;fill-opacity:1;fill-rule:evenodd;stroke:none"
           transform="translate(520.64001,507.67999)" /><path
           id="path675"
           d="M 0,0 C 0,1.92 -1.76,3.68 -3.68,3.68 -5.6,3.68 -7.2,1.92 -7.2,0 c 0,-1.92 1.6,-3.52 3.52,-3.52 1.92,0 3.68,1.6 3.68,3.52 z"
           style="fill:#000000;fill-opacity:1;fill-rule:evenodd;stroke:none"
           transform="translate(511.04001,517.28002)" /><path
           id="path676"
           d="m 272,600.32001 c -4.48001,0 -8,-3.52002 -8,-8"
           style="fill:none;stroke:#000000;stroke-width:0.16;stroke-linecap:butt;stroke-linejoin:miter;stroke-miterlimit:10;stroke-dasharray:none;stroke-opacity:1" /><path
           id="path677"
           d="M 272,600.32001 H 521.44"
           style="fill:none;stroke:#000000;stroke-width:0.16;stroke-linecap:butt;stroke-linejoin:miter;stroke-miterlimit:10;stroke-dasharray:none;stroke-opacity:1" /><path
           id="path678"
           d="m 521.59998,600.32001 c 0,0 -0.15998,0 -0.15998,0"
           style="fill:none;stroke:#000000;stroke-width:0.16;stroke-linecap:butt;stroke-linejoin:miter;stroke-miterlimit:10;stroke-dasharray:none;stroke-opacity:1" /><path
           id="path679"
           d="m 521.76001,600.32001 c 0,0 -0.16003,0 -0.16003,0"
           style="fill:none;stroke:#000000;stroke-width:0.16;stroke-linecap:butt;stroke-linejoin:miter;stroke-miterlimit:10;stroke-dasharray:none;stroke-opacity:1" /><path
           id="path680"
           d="m 529.76001,592.32001 c 0,4.47998 -3.52002,8 -8,8"
           style="fill:none;stroke:#000000;stroke-width:0.16;stroke-linecap:butt;stroke-linejoin:miter;stroke-miterlimit:10;stroke-dasharray:none;stroke-opacity:1" /><path
           id="path681"
           d="m 529.76001,592.15997 c 0,0 0,0.16004 0,0.16004"
           style="fill:none;stroke:#000000;stroke-width:0.16;stroke-linecap:butt;stroke-linejoin:miter;stroke-miterlimit:10;stroke-dasharray:none;stroke-opacity:1" /><path
           id="path682"
           d="m 529.91998,592 c 0,0 0,0.15997 -0.15997,0.15997"
           style="fill:none;stroke:#000000;stroke-width:0.16;stroke-linecap:butt;stroke-linejoin:miter;stroke-miterlimit:10;stroke-dasharray:none;stroke-opacity:1" /><path
           id="path683"
           d="M 529.91998,592 V 324.32001"
           style="fill:none;stroke:#000000;stroke-width:0.16;stroke-linecap:butt;stroke-linejoin:miter;stroke-miterlimit:10;stroke-dasharray:none;stroke-opacity:1" /><path
           id="path684"
           d="m 529.91998,324.16 c 0,0.16001 0,0.16001 0,0.16001"
           style="fill:none;stroke:#000000;stroke-width:0.16;stroke-linecap:butt;stroke-linejoin:miter;stroke-miterlimit:10;stroke-dasharray:none;stroke-opacity:1" /><path
           id="path685"
           d="m 264,324.32001 v 268"
           style="fill:none;stroke:#000000;stroke-width:0.16;stroke-linecap:butt;stroke-linejoin:miter;stroke-miterlimit:10;stroke-dasharray:none;stroke-opacity:1" /><path
           id="path686"
           d="m 521.76001,316.16 c 4.47998,0 8,3.68 8.15997,8"
           style="fill:none;stroke:#000000;stroke-width:0.16;stroke-linecap:butt;stroke-linejoin:miter;stroke-miterlimit:10;stroke-dasharray:none;stroke-opacity:1" /><path
           id="path687"
           d="M 521.76001,316.16 H 482.07999"
           style="fill:none;stroke:#000000;stroke-width:0.16;stroke-linecap:butt;stroke-linejoin:miter;stroke-miterlimit:10;stroke-dasharray:none;stroke-opacity:1" /><path
           id="path688"
           d="m 474.07999,324.32001 c 0,-4.48001 3.52002,-8 8,-8"
           style="fill:none;stroke:#000000;stroke-width:0.16;stroke-linecap:butt;stroke-linejoin:miter;stroke-miterlimit:10;stroke-dasharray:none;stroke-opacity:1" /><path
           id="path689"
           d="M 474.07999,324.32001 V 346.56"
           style="fill:none;stroke:#000000;stroke-width:0.16;stroke-linecap:butt;stroke-linejoin:miter;stroke-miterlimit:10;stroke-dasharray:none;stroke-opacity:1" /><path
           id="path690"
           d="m 474.07999,346.56 c 0,3.83999 -3.19999,7.04001 -7.03998,7.04001"
           style="fill:none;stroke:#000000;stroke-width:0.16;stroke-linecap:butt;stroke-linejoin:miter;stroke-miterlimit:10;stroke-dasharray:none;stroke-opacity:1" /><path
           id="path691"
           d="m 466.88,353.60001 c 0,0 0.16001,0 0.16001,0"
           style="fill:none;stroke:#000000;stroke-width:0.16;stroke-linecap:butt;stroke-linejoin:miter;stroke-miterlimit:10;stroke-dasharray:none;stroke-opacity:1" /><path
           id="path692"
           d="M 466.88,353.60001 H 341.60001"
           style="fill:none;stroke:#000000;stroke-width:0.16;stroke-linecap:butt;stroke-linejoin:miter;stroke-miterlimit:10;stroke-dasharray:none;stroke-opacity:1" /><path
           id="path693"
           d="m 341.44,353.60001 c 0,0 0.16001,0 0.16001,0"
           style="fill:none;stroke:#000000;stroke-width:0.16;stroke-linecap:butt;stroke-linejoin:miter;stroke-miterlimit:10;stroke-dasharray:none;stroke-opacity:1" /><path
           id="path694"
           d="M 341.44,353.60001 H 326.72"
           style="fill:none;stroke:#000000;stroke-width:0.16;stroke-linecap:butt;stroke-linejoin:miter;stroke-miterlimit:10;stroke-dasharray:none;stroke-opacity:1" /><path
           id="path695"
           d="m 326.72,353.60001 c -3.84,0 -7.04001,-3.20002 -7.04001,-7.04001"
           style="fill:none;stroke:#000000;stroke-width:0.16;stroke-linecap:butt;stroke-linejoin:miter;stroke-miterlimit:10;stroke-dasharray:none;stroke-opacity:1" /><path
           id="path696"
           d="M 319.67999,346.56 V 324.32001"
           style="fill:none;stroke:#000000;stroke-width:0.16;stroke-linecap:butt;stroke-linejoin:miter;stroke-miterlimit:10;stroke-dasharray:none;stroke-opacity:1" /><path
           id="path697"
           d="m 311.67999,316.32001 c 4.48001,0 8.16001,3.51999 8.16001,8"
           style="fill:none;stroke:#000000;stroke-width:0.16;stroke-linecap:butt;stroke-linejoin:miter;stroke-miterlimit:10;stroke-dasharray:none;stroke-opacity:1" /><path
           id="path698"
           d="M 311.67999,316.16 H 272"
           style="fill:none;stroke:#000000;stroke-width:0.16;stroke-linecap:butt;stroke-linejoin:miter;stroke-miterlimit:10;stroke-dasharray:none;stroke-opacity:1" /><path
           id="path699"
           d="m 264,324.32001 c 0,-4.48001 3.51999,-8 8,-8"
           style="fill:none;stroke:#000000;stroke-width:0.16;stroke-linecap:butt;stroke-linejoin:miter;stroke-miterlimit:10;stroke-dasharray:none;stroke-opacity:1" /><path
           id="path700"
           d="M 345.60001,586.56 H 447.67999"
           style="fill:none;stroke:#000000;stroke-width:11.36;stroke-linecap:round;stroke-linejoin:round;stroke-miterlimit:10;stroke-dasharray:none;stroke-opacity:1" /><path
           id="path701"
           d="m 0,0 c 0,1.12 -1.12,2.24 -2.24,2.24 -1.12,0 -2.08,-1.12 -2.08,-2.24 0,-1.12 0.96,-2.08 2.08,-2.08 C -1.12,-2.08 0,-1.12 0,0 Z"
           style="fill:#ffffff;fill-opacity:1;fill-rule:evenodd;stroke:none"
           transform="translate(288.79999,498.07998)" /><path
           id="path702"
           d="m 0,0 c 0,1.12 -1.12,2.24 -2.24,2.24 -1.12,0 -2.08,-1.12 -2.08,-2.24 0,-1.12 0.96,-2.08 2.08,-2.08 C -1.12,-2.08 0,-1.12 0,0 Z"
           style="fill:#ffffff;fill-opacity:1;fill-rule:evenodd;stroke:none"
           transform="translate(279.20001,517.28002)" /><path
           id="path703"
           d="m 0,0 c 0,1.12 -1.12,2.24 -2.24,2.24 -1.12,0 -2.08,-1.12 -2.08,-2.24 0,-1.12 0.96,-2.08 2.08,-2.08 C -1.12,-2.08 0,-1.12 0,0 Z"
           style="fill:#ffffff;fill-opacity:1;fill-rule:evenodd;stroke:none"
           transform="translate(288.79999,507.67999)" /><path
           id="path704"
           d="m 0,0 c 0,1.12 -1.12,2.24 -2.24,2.24 -1.12,0 -2.08,-1.12 -2.08,-2.24 0,-1.12 0.96,-2.08 2.08,-2.08 C -1.12,-2.08 0,-1.12 0,0 Z"
           style="fill:#ffffff;fill-opacity:1;fill-rule:evenodd;stroke:none"
           transform="translate(279.20001,498.07998)" /><path
           id="path705"
           d="m 0,0 c 0,1.12 -1.12,2.24 -2.24,2.24 -1.12,0 -2.08,-1.12 -2.08,-2.24 0,-1.12 0.96,-2.08 2.08,-2.08 C -1.12,-2.08 0,-1.12 0,0 Z"
           style="fill:#ffffff;fill-opacity:1;fill-rule:evenodd;stroke:none"
           transform="translate(288.79999,517.28002)" /><path
           id="path706"
           d="m 0,0 c 0,1.12 -1.12,2.24 -2.24,2.24 -1.12,0 -2.08,-1.12 -2.08,-2.24 0,-1.12 0.96,-2.08 2.08,-2.08 C -1.12,-2.08 0,-1.12 0,0 Z"
           style="fill:#ffffff;fill-opacity:1;fill-rule:evenodd;stroke:none"
           transform="translate(279.20001,507.67999)" /><path
           id="path707"
           d="m 0,0 c 0,1.12 -1.12,2.24 -2.24,2.24 -1.12,0 -2.08,-1.12 -2.08,-2.24 0,-1.12 0.96,-2.08 2.08,-2.08 C -1.12,-2.08 0,-1.12 0,0 Z"
           style="fill:#ffffff;fill-opacity:1;fill-rule:evenodd;stroke:none"
           transform="translate(519.20001,517.28002)" /><path
           id="path708"
           d="m 0,0 c 0,1.12 -1.12,2.24 -2.24,2.24 -1.12,0 -2.08,-1.12 -2.08,-2.24 0,-1.12 0.96,-2.08 2.08,-2.08 C -1.12,-2.08 0,-1.12 0,0 Z"
           style="fill:#ffffff;fill-opacity:1;fill-rule:evenodd;stroke:none"
           transform="translate(519.20001,498.07998)" /><path
           id="path709"
           d="m 0,0 c 0,1.12 -1.12,2.24 -2.24,2.24 -1.12,0 -2.08,-1.12 -2.08,-2.24 0,-1.12 0.96,-2.08 2.08,-2.08 C -1.12,-2.08 0,-1.12 0,0 Z"
           style="fill:#ffffff;fill-opacity:1;fill-rule:evenodd;stroke:none"
           transform="translate(509.60001,507.67999)" /><path
           id="path710"
           d="m 0,0 c 0,1.12 -1.12,2.24 -2.24,2.24 -1.12,0 -2.08,-1.12 -2.08,-2.24 0,-1.12 0.96,-2.08 2.08,-2.08 C -1.12,-2.08 0,-1.12 0,0 Z"
           style="fill:#ffffff;fill-opacity:1;fill-rule:evenodd;stroke:none"
           transform="translate(519.20001,507.67999)" /><path
           id="path711"
           d="m 0,0 c 0,1.12 -1.12,2.24 -2.24,2.24 -1.12,0 -2.08,-1.12 -2.08,-2.24 0,-1.12 0.96,-2.08 2.08,-2.08 C -1.12,-2.08 0,-1.12 0,0 Z"
           style="fill:#ffffff;fill-opacity:1;fill-rule:evenodd;stroke:none"
           transform="translate(509.60001,517.28002)" /><path
           id="path712"
           d="m 0,0 c 0,1.12 -1.12,2.24 -2.24,2.24 -1.12,0 -2.08,-1.12 -2.08,-2.24 0,-1.12 0.96,-2.08 2.08,-2.08 C -1.12,-2.08 0,-1.12 0,0 Z"
           style="fill:#ffffff;fill-opacity:1;fill-rule:evenodd;stroke:none"
           transform="translate(509.60001,498.07998)" /><path
           id="path713"
           d="m 0,0 c 0,1.12 -1.12,2.24 -2.24,2.24 -1.12,0 -2.08,-1.12 -2.08,-2.24 0,-1.12 0.96,-2.08 2.08,-2.08 C -1.12,-2.08 0,-1.12 0,0 Z"
           style="fill:#ffffff;fill-opacity:1;fill-rule:evenodd;stroke:none"
           transform="translate(509.60001,459.67999)" /><path
           id="path714"
           d="m 0,0 c 0,1.12 -1.12,2.24 -2.24,2.24 -1.12,0 -2.08,-1.12 -2.08,-2.24 0,-1.12 0.96,-2.08 2.08,-2.08 C -1.12,-2.08 0,-1.12 0,0 Z"
           style="fill:#ffffff;fill-opacity:1;fill-rule:evenodd;stroke:none"
           transform="translate(509.60001,478.88)" /><path
           id="path715"
           d="m 0,0 c 0,1.12 -1.12,2.24 -2.24,2.24 -1.12,0 -2.08,-1.12 -2.08,-2.24 0,-1.12 0.96,-2.08 2.08,-2.08 C -1.12,-2.08 0,-1.12 0,0 Z"
           style="fill:#ffffff;fill-opacity:1;fill-rule:evenodd;stroke:none"
           transform="translate(519.20001,459.67999)" /><path
           id="path716"
           d="m 0,0 c 0,1.12 -1.12,2.24 -2.24,2.24 -1.12,0 -2.08,-1.12 -2.08,-2.24 0,-1.12 0.96,-2.08 2.08,-2.08 C -1.12,-2.08 0,-1.12 0,0 Z"
           style="fill:#ffffff;fill-opacity:1;fill-rule:evenodd;stroke:none"
           transform="translate(519.20001,488.48001)" /><path
           id="path717"
           d="m 0,0 c 0,1.12 -1.12,2.24 -2.24,2.24 -1.12,0 -2.08,-1.12 -2.08,-2.24 0,-1.12 0.96,-2.08 2.08,-2.08 C -1.12,-2.08 0,-1.12 0,0 Z"
           style="fill:#ffffff;fill-opacity:1;fill-rule:evenodd;stroke:none"
           transform="translate(519.20001,469.27999)" /><path
           id="path718"
           d="m 0,0 c 0,1.12 -1.12,2.24 -2.24,2.24 -1.12,0 -2.08,-1.12 -2.08,-2.24 0,-1.12 0.96,-2.08 2.08,-2.08 C -1.12,-2.08 0,-1.12 0,0 Z"
           style="fill:#ffffff;fill-opacity:1;fill-rule:evenodd;stroke:none"
           transform="translate(519.20001,478.88)" /><path
           id="path719"
           d="m 0,0 c 0,1.12 -1.12,2.24 -2.24,2.24 -1.12,0 -2.08,-1.12 -2.08,-2.24 0,-1.12 0.96,-2.08 2.08,-2.08 C -1.12,-2.08 0,-1.12 0,0 Z"
           style="fill:#ffffff;fill-opacity:1;fill-rule:evenodd;stroke:none"
           transform="translate(509.60001,469.27999)" /><path
           id="path720"
           d="m 0,0 c 0,1.12 -1.12,2.24 -2.24,2.24 -1.12,0 -2.08,-1.12 -2.08,-2.24 0,-1.12 0.96,-2.08 2.08,-2.08 C -1.12,-2.08 0,-1.12 0,0 Z"
           style="fill:#ffffff;fill-opacity:1;fill-rule:evenodd;stroke:none"
           transform="translate(509.60001,488.48001)" /><path
           id="path721"
           d="m 0,0 c 0,1.12 -1.12,2.24 -2.24,2.24 -1.12,0 -2.08,-1.12 -2.08,-2.24 0,-1.12 0.96,-2.08 2.08,-2.08 C -1.12,-2.08 0,-1.12 0,0 Z"
           style="fill:#ffffff;fill-opacity:1;fill-rule:evenodd;stroke:none"
           transform="translate(519.20001,430.88)" /><path
           id="path722"
           d="m 0,0 c 0,1.12 -1.12,2.24 -2.24,2.24 -1.12,0 -2.08,-1.12 -2.08,-2.24 0,-1.12 0.96,-2.08 2.08,-2.08 C -1.12,-2.08 0,-1.12 0,0 Z"
           style="fill:#ffffff;fill-opacity:1;fill-rule:evenodd;stroke:none"
           transform="translate(519.20001,450.07998)" /><path
           id="path723"
           d="m 0,0 c 0,1.12 -1.12,2.24 -2.24,2.24 -1.12,0 -2.08,-1.12 -2.08,-2.24 0,-1.12 0.96,-2.08 2.08,-2.08 C -1.12,-2.08 0,-1.12 0,0 Z"
           style="fill:#ffffff;fill-opacity:1;fill-rule:evenodd;stroke:none"
           transform="translate(509.60001,440.48001)" /><path
           id="path724"
           d="m 0,0 c 0,1.12 -1.12,2.24 -2.24,2.24 -1.12,0 -2.08,-1.12 -2.08,-2.24 0,-1.12 0.96,-2.08 2.08,-2.08 C -1.12,-2.08 0,-1.12 0,0 Z"
           style="fill:#ffffff;fill-opacity:1;fill-rule:evenodd;stroke:none"
           transform="translate(509.60001,450.07998)" /><path
           id="path725"
           d="m 0,0 c 0,1.12 -1.12,2.24 -2.24,2.24 -1.12,0 -2.08,-1.12 -2.08,-2.24 0,-1.12 0.96,-2.08 2.08,-2.08 C -1.12,-2.08 0,-1.12 0,0 Z"
           style="fill:#ffffff;fill-opacity:1;fill-rule:evenodd;stroke:none"
           transform="translate(519.20001,440.48001)" /><path
           id="path726"
           d="m 0,0 c 0,1.12 -1.12,2.24 -2.24,2.24 -1.12,0 -2.08,-1.12 -2.08,-2.24 0,-1.12 0.96,-2.08 2.08,-2.08 C -1.12,-2.08 0,-1.12 0,0 Z"
           style="fill:#ffffff;fill-opacity:1;fill-rule:evenodd;stroke:none"
           transform="translate(509.60001,430.88)" /><path
           id="path727"
           d="m 0,0 c 0,1.12 -1.12,2.24 -2.24,2.24 -1.12,0 -2.08,-1.12 -2.08,-2.24 0,-1.12 0.96,-2.08 2.08,-2.08 C -1.12,-2.08 0,-1.12 0,0 Z"
           style="fill:#ffffff;fill-opacity:1;fill-rule:evenodd;stroke:none"
           transform="translate(509.60001,421.27999)" /><path
           id="path728"
           d="m 0,0 c 0,1.12 -1.12,2.24 -2.24,2.24 -1.12,0 -2.08,-1.12 -2.08,-2.24 0,-1.12 0.96,-2.08 2.08,-2.08 C -1.12,-2.08 0,-1.12 0,0 Z"
           style="fill:#ffffff;fill-opacity:1;fill-rule:evenodd;stroke:none"
           transform="translate(519.20001,421.27999)" /><path
           id="path729"
           d="m 0,0 c 0,1.12 -1.12,2.24 -2.24,2.24 -1.12,0 -2.08,-1.12 -2.08,-2.24 0,-1.12 0.96,-2.08 2.08,-2.08 C -1.12,-2.08 0,-1.12 0,0 Z"
           style="fill:#ffffff;fill-opacity:1;fill-rule:evenodd;stroke:none"
           transform="translate(509.60001,382.88)" /><path
           id="path730"
           d="m 0,0 c 0,1.12 -1.12,2.24 -2.24,2.24 -1.12,0 -2.08,-1.12 -2.08,-2.24 0,-1.12 0.96,-2.08 2.08,-2.08 C -1.12,-2.08 0,-1.12 0,0 Z"
           style="fill:#ffffff;fill-opacity:1;fill-rule:evenodd;stroke:none"
           transform="translate(509.60001,402.07998)" /><path
           id="path731"
           d="m 0,0 c 0,1.12 -1.12,2.24 -2.24,2.24 -1.12,0 -2.08,-1.12 -2.08,-2.24 0,-1.12 0.96,-2.08 2.08,-2.08 C -1.12,-2.08 0,-1.12 0,0 Z"
           style="fill:#ffffff;fill-opacity:1;fill-rule:evenodd;stroke:none"
           transform="translate(509.60001,411.67999)" /><path
           id="path732"
           d="m 0,0 c 0,1.12 -1.12,2.24 -2.24,2.24 -1.12,0 -2.08,-1.12 -2.08,-2.24 0,-1.12 0.96,-2.08 2.08,-2.08 C -1.12,-2.08 0,-1.12 0,0 Z"
           style="fill:#ffffff;fill-opacity:1;fill-rule:evenodd;stroke:none"
           transform="translate(519.20001,402.07998)" /><path
           id="path733"
           d="m 0,0 c 0,1.12 -1.12,2.24 -2.24,2.24 -1.12,0 -2.08,-1.12 -2.08,-2.24 0,-1.12 0.96,-2.08 2.08,-2.08 C -1.12,-2.08 0,-1.12 0,0 Z"
           style="fill:#ffffff;fill-opacity:1;fill-rule:evenodd;stroke:none"
           transform="translate(519.20001,382.88)" /><path
           id="path734"
           d="m 0,0 c 0,1.12 -1.12,2.24 -2.24,2.24 -1.12,0 -2.08,-1.12 -2.08,-2.24 0,-1.12 0.96,-2.08 2.08,-2.08 C -1.12,-2.08 0,-1.12 0,0 Z"
           style="fill:#ffffff;fill-opacity:1;fill-rule:evenodd;stroke:none"
           transform="translate(519.20001,411.67999)" /><path
           id="path735"
           d="m 0,0 c 0,1.12 -1.12,2.24 -2.24,2.24 -1.12,0 -2.08,-1.12 -2.08,-2.24 0,-1.12 0.96,-2.08 2.08,-2.08 C -1.12,-2.08 0,-1.12 0,0 Z"
           style="fill:#ffffff;fill-opacity:1;fill-rule:evenodd;stroke:none"
           transform="translate(509.60001,392.48001)" /><path
           id="path736"
           d="m 0,0 c 0,1.12 -1.12,2.24 -2.24,2.24 -1.12,0 -2.08,-1.12 -2.08,-2.24 0,-1.12 0.96,-2.08 2.08,-2.08 C -1.12,-2.08 0,-1.12 0,0 Z"
           style="fill:#ffffff;fill-opacity:1;fill-rule:evenodd;stroke:none"
           transform="translate(519.20001,392.48001)" /><path
           id="path737"
           d="m 0,0 c 0,1.12 -1.12,2.24 -2.24,2.24 -1.12,0 -2.08,-1.12 -2.08,-2.24 0,-1.12 0.96,-2.08 2.08,-2.08 C -1.12,-2.08 0,-1.12 0,0 Z"
           style="fill:#ffffff;fill-opacity:1;fill-rule:evenodd;stroke:none"
           transform="translate(519.20001,363.67999)" /><path
           id="path738"
           d="m 0,0 c 0,1.12 -1.12,2.24 -2.24,2.24 -1.12,0 -2.08,-1.12 -2.08,-2.24 0,-1.12 0.96,-2.08 2.08,-2.08 C -1.12,-2.08 0,-1.12 0,0 Z"
           style="fill:#ffffff;fill-opacity:1;fill-rule:evenodd;stroke:none"
           transform="translate(509.60001,373.27999)" /><path
           id="path739"
           d="m 0,0 c 0,1.12 -1.12,2.24 -2.24,2.24 -1.12,0 -2.08,-1.12 -2.08,-2.24 0,-1.12 0.96,-2.08 2.08,-2.08 C -1.12,-2.08 0,-1.12 0,0 Z"
           style="fill:#ffffff;fill-opacity:1;fill-rule:evenodd;stroke:none"
           transform="translate(519.20001,373.27999)" /><path
           id="path740"
           d="m 0,0 c 0,1.12 -1.12,2.24 -2.24,2.24 -1.12,0 -2.08,-1.12 -2.08,-2.24 0,-1.12 0.96,-2.08 2.08,-2.08 C -1.12,-2.08 0,-1.12 0,0 Z"
           style="fill:#ffffff;fill-opacity:1;fill-rule:evenodd;stroke:none"
           transform="translate(509.60001,344.48001)" /><path
           id="path741"
           d="m 0,0 c 0,1.12 -1.12,2.24 -2.24,2.24 -1.12,0 -2.08,-1.12 -2.08,-2.24 0,-1.12 0.96,-2.08 2.08,-2.08 C -1.12,-2.08 0,-1.12 0,0 Z"
           style="fill:#ffffff;fill-opacity:1;fill-rule:evenodd;stroke:none"
           transform="translate(509.60001,354.07998)" /><path
           id="path742"
           d="m 0,0 c 0,1.12 -1.12,2.24 -2.24,2.24 -1.12,0 -2.08,-1.12 -2.08,-2.24 0,-1.12 0.96,-2.08 2.08,-2.08 C -1.12,-2.08 0,-1.12 0,0 Z"
           style="fill:#ffffff;fill-opacity:1;fill-rule:evenodd;stroke:none"
           transform="translate(509.60001,363.67999)" /><path
           id="path743"
           d="m 0,0 c 0,1.12 -1.12,2.24 -2.24,2.24 -1.12,0 -2.08,-1.12 -2.08,-2.24 0,-1.12 0.96,-2.08 2.08,-2.08 C -1.12,-2.08 0,-1.12 0,0 Z"
           style="fill:#ffffff;fill-opacity:1;fill-rule:evenodd;stroke:none"
           transform="translate(519.20001,354.07998)" /><path
           id="path744"
           d="m 0,0 c 0,1.12 -1.12,2.24 -2.24,2.24 -1.12,0 -2.08,-1.12 -2.08,-2.24 0,-1.12 0.96,-2.08 2.08,-2.08 C -1.12,-2.08 0,-1.12 0,0 Z"
           style="fill:#ffffff;fill-opacity:1;fill-rule:evenodd;stroke:none"
           transform="translate(519.20001,344.48001)" /><path
           id="path745"
           d="m 0,0 c 0,1.12 -1.12,2.24 -2.24,2.24 -1.12,0 -2.08,-1.12 -2.08,-2.24 0,-1.12 0.96,-2.08 2.08,-2.08 C -1.12,-2.08 0,-1.12 0,0 Z"
           style="fill:#ffffff;fill-opacity:1;fill-rule:evenodd;stroke:none"
           transform="translate(279.20001,488.48001)" /><path
           id="path746"
           d="m 0,0 c 0,1.12 -1.12,2.24 -2.24,2.24 -1.12,0 -2.08,-1.12 -2.08,-2.24 0,-1.12 0.96,-2.08 2.08,-2.08 C -1.12,-2.08 0,-1.12 0,0 Z"
           style="fill:#ffffff;fill-opacity:1;fill-rule:evenodd;stroke:none"
           transform="translate(288.79999,469.27999)" /><path
           id="path747"
           d="m 0,0 c 0,1.12 -1.12,2.24 -2.24,2.24 -1.12,0 -2.08,-1.12 -2.08,-2.24 0,-1.12 0.96,-2.08 2.08,-2.08 C -1.12,-2.08 0,-1.12 0,0 Z"
           style="fill:#ffffff;fill-opacity:1;fill-rule:evenodd;stroke:none"
           transform="translate(279.20001,478.88)" /><path
           id="path748"
           d="m 0,0 c 0,1.12 -1.12,2.24 -2.24,2.24 -1.12,0 -2.08,-1.12 -2.08,-2.24 0,-1.12 0.96,-2.08 2.08,-2.08 C -1.12,-2.08 0,-1.12 0,0 Z"
           style="fill:#ffffff;fill-opacity:1;fill-rule:evenodd;stroke:none"
           transform="translate(279.20001,459.67999)" /><path
           id="path749"
           d="m 0,0 c 0,1.12 -1.12,2.24 -2.24,2.24 -1.12,0 -2.08,-1.12 -2.08,-2.24 0,-1.12 0.96,-2.08 2.08,-2.08 C -1.12,-2.08 0,-1.12 0,0 Z"
           style="fill:#ffffff;fill-opacity:1;fill-rule:evenodd;stroke:none"
           transform="translate(288.79999,459.67999)" /><path
           id="path750"
           d="m 0,0 c 0,1.12 -1.12,2.24 -2.24,2.24 -1.12,0 -2.08,-1.12 -2.08,-2.24 0,-1.12 0.96,-2.08 2.08,-2.08 C -1.12,-2.08 0,-1.12 0,0 Z"
           style="fill:#ffffff;fill-opacity:1;fill-rule:evenodd;stroke:none"
           transform="translate(279.20001,469.27999)" /><path
           id="path751"
           d="m 0,0 c 0,1.12 -1.12,2.24 -2.24,2.24 -1.12,0 -2.08,-1.12 -2.08,-2.24 0,-1.12 0.96,-2.08 2.08,-2.08 C -1.12,-2.08 0,-1.12 0,0 Z"
           style="fill:#ffffff;fill-opacity:1;fill-rule:evenodd;stroke:none"
           transform="translate(288.79999,478.88)" /><path
           id="path752"
           d="m 0,0 c 0,1.12 -1.12,2.24 -2.24,2.24 -1.12,0 -2.08,-1.12 -2.08,-2.24 0,-1.12 0.96,-2.08 2.08,-2.08 C -1.12,-2.08 0,-1.12 0,0 Z"
           style="fill:#ffffff;fill-opacity:1;fill-rule:evenodd;stroke:none"
           transform="translate(288.79999,488.48001)" /><path
           id="path753"
           d="m 0,0 c 0,1.12 -1.12,2.24 -2.24,2.24 -1.12,0 -2.08,-1.12 -2.08,-2.24 0,-1.12 0.96,-2.08 2.08,-2.08 C -1.12,-2.08 0,-1.12 0,0 Z"
           style="fill:#ffffff;fill-opacity:1;fill-rule:evenodd;stroke:none"
           transform="translate(288.79999,450.07998)" /><path
           id="path754"
           d="m 0,0 c 0,1.12 -1.12,2.24 -2.24,2.24 -1.12,0 -2.08,-1.12 -2.08,-2.24 0,-1.12 0.96,-2.08 2.08,-2.08 C -1.12,-2.08 0,-1.12 0,0 Z"
           style="fill:#ffffff;fill-opacity:1;fill-rule:evenodd;stroke:none"
           transform="translate(288.79999,421.27999)" /><path
           id="path755"
           d="m 0,0 c 0,1.12 -1.12,2.24 -2.24,2.24 -1.12,0 -2.08,-1.12 -2.08,-2.24 0,-1.12 0.96,-2.08 2.08,-2.08 C -1.12,-2.08 0,-1.12 0,0 Z"
           style="fill:#ffffff;fill-opacity:1;fill-rule:evenodd;stroke:none"
           transform="translate(288.79999,440.48001)" /><path
           id="path756"
           d="m 0,0 c 0,1.12 -1.12,2.24 -2.24,2.24 -1.12,0 -2.08,-1.12 -2.08,-2.24 0,-1.12 0.96,-2.08 2.08,-2.08 C -1.12,-2.08 0,-1.12 0,0 Z"
           style="fill:#ffffff;fill-opacity:1;fill-rule:evenodd;stroke:none"
           transform="translate(279.20001,450.07998)" /><path
           id="path757"
           d="m 0,0 c 0,1.12 -1.12,2.24 -2.24,2.24 -1.12,0 -2.08,-1.12 -2.08,-2.24 0,-1.12 0.96,-2.08 2.08,-2.08 C -1.12,-2.08 0,-1.12 0,0 Z"
           style="fill:#ffffff;fill-opacity:1;fill-rule:evenodd;stroke:none"
           transform="translate(288.79999,430.88)" /><path
           id="path758"
           d="m 0,0 c 0,1.12 -1.12,2.24 -2.24,2.24 -1.12,0 -2.08,-1.12 -2.08,-2.24 0,-1.12 0.96,-2.08 2.08,-2.08 C -1.12,-2.08 0,-1.12 0,0 Z"
           style="fill:#ffffff;fill-opacity:1;fill-rule:evenodd;stroke:none"
           transform="translate(279.20001,421.27999)" /><path
           id="path759"
           d="m 0,0 c 0,1.12 -1.12,2.24 -2.24,2.24 -1.12,0 -2.08,-1.12 -2.08,-2.24 0,-1.12 0.96,-2.08 2.08,-2.08 C -1.12,-2.08 0,-1.12 0,0 Z"
           style="fill:#ffffff;fill-opacity:1;fill-rule:evenodd;stroke:none"
           transform="translate(279.20001,430.88)" /><path
           id="path760"
           d="m 0,0 c 0,1.12 -1.12,2.24 -2.24,2.24 -1.12,0 -2.08,-1.12 -2.08,-2.24 0,-1.12 0.96,-2.08 2.08,-2.08 C -1.12,-2.08 0,-1.12 0,0 Z"
           style="fill:#ffffff;fill-opacity:1;fill-rule:evenodd;stroke:none"
           transform="translate(279.20001,440.48001)" /><path
           id="path761"
           d="m 0,0 c 0,1.12 -1.12,2.24 -2.24,2.24 -1.12,0 -2.08,-1.12 -2.08,-2.24 0,-1.12 0.96,-2.08 2.08,-2.08 C -1.12,-2.08 0,-1.12 0,0 Z"
           style="fill:#ffffff;fill-opacity:1;fill-rule:evenodd;stroke:none"
           transform="translate(288.79999,411.67999)" /><path
           id="path762"
           d="m 0,0 c 0,1.12 -1.12,2.24 -2.24,2.24 -1.12,0 -2.08,-1.12 -2.08,-2.24 0,-1.12 0.96,-2.08 2.08,-2.08 C -1.12,-2.08 0,-1.12 0,0 Z"
           style="fill:#ffffff;fill-opacity:1;fill-rule:evenodd;stroke:none"
           transform="translate(279.20001,411.67999)" /><path
           id="path763"
           d="m 0,0 c 0,1.12 -1.12,2.24 -2.24,2.24 -1.12,0 -2.08,-1.12 -2.08,-2.24 0,-1.12 0.96,-2.08 2.08,-2.08 C -1.12,-2.08 0,-1.12 0,0 Z"
           style="fill:#ffffff;fill-opacity:1;fill-rule:evenodd;stroke:none"
           transform="translate(288.79999,382.88)"
           inkscape:label="path763" /><path
           id="path764"
           d="m 0,0 c 0,1.12 -1.12,2.24 -2.24,2.24 -1.12,0 -2.08,-1.12 -2.08,-2.24 0,-1.12 0.96,-2.08 2.08,-2.08 C -1.12,-2.08 0,-1.12 0,0 Z"
           style="fill:#ffffff;fill-opacity:1;fill-rule:evenodd;stroke:none"
           transform="translate(288.79999,392.48001)" /><path
           id="path765"
           d="m 0,0 c 0,1.12 -1.12,2.24 -2.24,2.24 -1.12,0 -2.08,-1.12 -2.08,-2.24 0,-1.12 0.96,-2.08 2.08,-2.08 C -1.12,-2.08 0,-1.12 0,0 Z"
           style="fill:#ffffff;fill-opacity:1;fill-rule:evenodd;stroke:none"
           transform="translate(279.20001,402.07998)" /><path
           id="path766"
           d="m 0,0 c 0,1.12 -1.12,2.24 -2.24,2.24 -1.12,0 -2.08,-1.12 -2.08,-2.24 0,-1.12 0.96,-2.08 2.08,-2.08 C -1.12,-2.08 0,-1.12 0,0 Z"
           style="fill:#ffffff;fill-opacity:1;fill-rule:evenodd;stroke:none"
           transform="translate(279.20001,382.88)" /><path
           id="path767"
           d="m 0,0 c 0,1.12 -1.12,2.24 -2.24,2.24 -1.12,0 -2.08,-1.12 -2.08,-2.24 0,-1.12 0.96,-2.08 2.08,-2.08 C -1.12,-2.08 0,-1.12 0,0 Z"
           style="fill:#ffffff;fill-opacity:1;fill-rule:evenodd;stroke:none"
           transform="translate(288.79999,402.07998)" /><path
           id="path768"
           d="m 0,0 c 0,1.12 -1.12,2.24 -2.24,2.24 -1.12,0 -2.08,-1.12 -2.08,-2.24 0,-1.12 0.96,-2.08 2.08,-2.08 C -1.12,-2.08 0,-1.12 0,0 Z"
           style="fill:#ffffff;fill-opacity:1;fill-rule:evenodd;stroke:none"
           transform="translate(279.20001,392.48001)" /><path
           id="path769"
           d="m 0,0 c 0,1.12 -1.12,2.24 -2.24,2.24 -1.12,0 -2.08,-1.12 -2.08,-2.24 0,-1.12 0.96,-2.08 2.08,-2.08 C -1.12,-2.08 0,-1.12 0,0 Z"
           style="fill:#ffffff;fill-opacity:1;fill-rule:evenodd;stroke:none"
           transform="translate(279.20001,373.27999)" /><path
           id="path770"
           d="m 0,0 c 0,1.12 -1.12,2.24 -2.24,2.24 -1.12,0 -2.08,-1.12 -2.08,-2.24 0,-1.12 0.96,-2.08 2.08,-2.08 C -1.12,-2.08 0,-1.12 0,0 Z"
           style="fill:#ffffff;fill-opacity:1;fill-rule:evenodd;stroke:none"
           transform="translate(288.79999,363.67999)" /><path
           id="path771"
           d="m 0,0 c 0,1.12 -1.12,2.24 -2.24,2.24 -1.12,0 -2.08,-1.12 -2.08,-2.24 0,-1.12 0.96,-2.08 2.08,-2.08 C -1.12,-2.08 0,-1.12 0,0 Z"
           style="fill:#ffffff;fill-opacity:1;fill-rule:evenodd;stroke:none"
           transform="translate(288.79999,373.27999)" /><path
           id="path772"
           d="m 0,0 c 0,1.12 -1.12,2.24 -2.24,2.24 -1.12,0 -2.08,-1.12 -2.08,-2.24 0,-1.12 0.96,-2.08 2.08,-2.08 C -1.12,-2.08 0,-1.12 0,0 Z"
           style="fill:#ffffff;fill-opacity:1;fill-rule:evenodd;stroke:none"
           transform="translate(288.79999,354.07998)" /><path
           id="path773"
           d="m 0,0 c 0,1.12 -1.12,2.24 -2.24,2.24 -1.12,0 -2.08,-1.12 -2.08,-2.24 0,-1.12 0.96,-2.08 2.08,-2.08 C -1.12,-2.08 0,-1.12 0,0 Z"
           style="fill:#ffffff;fill-opacity:1;fill-rule:evenodd;stroke:none"
           transform="translate(279.20001,363.67999)" /><path
           id="path774"
           d="m 0,0 c 0,1.12 -1.12,2.24 -2.24,2.24 -1.12,0 -2.08,-1.12 -2.08,-2.24 0,-1.12 0.96,-2.08 2.08,-2.08 C -1.12,-2.08 0,-1.12 0,0 Z"
           style="fill:#ffffff;fill-opacity:1;fill-rule:evenodd;stroke:none"
           transform="translate(279.20001,354.07998)" /><path
           id="path775"
           d="m 0,0 c 0,1.12 -1.12,2.24 -2.24,2.24 -1.12,0 -2.08,-1.12 -2.08,-2.24 0,-1.12 0.96,-2.08 2.08,-2.08 C -1.12,-2.08 0,-1.12 0,0 Z"
           style="fill:#ffffff;fill-opacity:1;fill-rule:evenodd;stroke:none"
           transform="translate(288.79999,344.48001)" /><path
           id="path776"
           d="m 0,0 c 0,1.12 -1.12,2.24 -2.24,2.24 -1.12,0 -2.08,-1.12 -2.08,-2.24 0,-1.12 0.96,-2.08 2.08,-2.08 C -1.12,-2.08 0,-1.12 0,0 Z"
           style="fill:#ffffff;fill-opacity:1;fill-rule:evenodd;stroke:none"
           transform="translate(279.20001,344.48001)" /></g></g></g></svg>
