<?xml version="1.0" encoding="UTF-8" standalone="no"?>
<!-- Created with Inkscape (http://www.inkscape.org/) -->

<svg
   width="70mm"
   height="82.5mm"
   viewBox="0 0 70 82.5"
   version="1.1"
   id="svg1"
   xml:space="preserve"
   inkscape:version="1.4.2 (f4327f4, 2025-05-13)"
   sodipodi:docname="mb1932.svg"
   xmlns:inkscape="http://www.inkscape.org/namespaces/inkscape"
   xmlns:sodipodi="http://sodipodi.sourceforge.net/DTD/sodipodi-0.dtd"
   xmlns="http://www.w3.org/2000/svg"
   xmlns:svg="http://www.w3.org/2000/svg"><sodipodi:namedview
     id="namedview1"
     pagecolor="#ffffff"
     bordercolor="#000000"
     borderopacity="0.25"
     inkscape:showpageshadow="2"
     inkscape:pageopacity="0.0"
     inkscape:pagecheckerboard="0"
     inkscape:deskcolor="#d1d1d1"
     inkscape:document-units="mm"
     inkscape:zoom="3.8954759"
     inkscape:cx="100.5012"
     inkscape:cy="83.045053"
     inkscape:window-width="1920"
     inkscape:window-height="991"
     inkscape:window-x="-9"
     inkscape:window-y="-9"
     inkscape:window-maximized="1"
     inkscape:current-layer="layer1" /><defs
     id="defs1" /><g
     inkscape:label="Layer 1"
     inkscape:groupmode="layer"
     id="layer1"
     transform="translate(-4.311064e-7,-15.920452)"><g
       id="g2"
       transform="translate(34.977912,57.248383)"><g
         id="g1"
         inkscape:label="1"
         transform="matrix(0.26458333,0,0,0.26458333,-104.97608,-148.57943)"><path
           id="path3"
           d="m 264.64001,412.95999 c 0,-1.91998 0.79999,-3.83999 2.23999,-5.28 1.44001,-1.44 3.35999,-2.23999 5.28,-2.23999"
           style="fill:none;stroke:#000000;stroke-width:0.16;stroke-linecap:butt;stroke-linejoin:miter;stroke-miterlimit:10;stroke-dasharray:none;stroke-opacity:1" /><path
           id="path4"
           d="M 264.64001,498.07999 V 702.08002"
           style="fill:none;stroke:#000000;stroke-width:0.16;stroke-linecap:butt;stroke-linejoin:miter;stroke-miterlimit:10;stroke-dasharray:none;stroke-opacity:1" /><path
           id="path5"
           d="m 264.64001,497.92001 v 0.15998"
           style="fill:none;stroke:#000000;stroke-width:0.16;stroke-linecap:butt;stroke-linejoin:miter;stroke-miterlimit:10;stroke-dasharray:none;stroke-opacity:1" /><path
           id="path6"
           d="M 521.59998,405.44 H 272.16"
           style="fill:none;stroke:#000000;stroke-width:0.16;stroke-linecap:butt;stroke-linejoin:miter;stroke-miterlimit:10;stroke-dasharray:none;stroke-opacity:1" /><path
           id="path7"
           d="m 521.59998,405.44 c 4.16003,0 7.52002,3.35999 7.52002,7.51999"
           style="fill:none;stroke:#000000;stroke-width:0.16;stroke-linecap:butt;stroke-linejoin:miter;stroke-miterlimit:10;stroke-dasharray:none;stroke-opacity:1" /><path
           id="path8"
           d="M 529.12,702.08002 V 412.95999"
           style="fill:none;stroke:#000000;stroke-width:0.16;stroke-linecap:butt;stroke-linejoin:miter;stroke-miterlimit:10;stroke-dasharray:none;stroke-opacity:1" /><path
           id="path9"
           d="m 264.64001,412.95999 v 84.96002"
           style="fill:none;stroke:#000000;stroke-width:0.16;stroke-linecap:butt;stroke-linejoin:miter;stroke-miterlimit:10;stroke-dasharray:none;stroke-opacity:1" /><path
           id="path10"
           d="m 272.16,709.59998 c -4.16,0 -7.51999,-3.35999 -7.51999,-7.51996"
           style="fill:none;stroke:#000000;stroke-width:0.16;stroke-linecap:butt;stroke-linejoin:miter;stroke-miterlimit:10;stroke-dasharray:none;stroke-opacity:1" /><path
           id="path11"
           d="M 272.16,709.59998 H 308"
           style="fill:none;stroke:#000000;stroke-width:0.16;stroke-linecap:butt;stroke-linejoin:miter;stroke-miterlimit:10;stroke-dasharray:none;stroke-opacity:1" /><path
           id="path12"
           d="m 308,709.59998 7.67999,7.52002"
           style="fill:none;stroke:#000000;stroke-width:0.16;stroke-linecap:butt;stroke-linejoin:miter;stroke-miterlimit:10;stroke-dasharray:none;stroke-opacity:1" /><path
           id="path13"
           d="M 315.67999,717.12 H 440.32001"
           style="fill:none;stroke:#000000;stroke-width:0.16;stroke-linecap:butt;stroke-linejoin:miter;stroke-miterlimit:10;stroke-dasharray:none;stroke-opacity:1" /><path
           id="path14"
           d="m 529.12,702.08002 c 0,4.15997 -3.35999,7.51996 -7.52002,7.51996"
           style="fill:none;stroke:#000000;stroke-width:0.16;stroke-linecap:butt;stroke-linejoin:miter;stroke-miterlimit:10;stroke-dasharray:none;stroke-opacity:1" /><path
           id="path15"
           d="M 440.32001,717.12 447.84,709.59998"
           style="fill:none;stroke:#000000;stroke-width:0.16;stroke-linecap:butt;stroke-linejoin:miter;stroke-miterlimit:10;stroke-dasharray:none;stroke-opacity:1" /><path
           id="path16"
           d="m 447.84,709.59998 h 73.75998"
           style="fill:none;stroke:#000000;stroke-width:0.16;stroke-linecap:butt;stroke-linejoin:miter;stroke-miterlimit:10;stroke-dasharray:none;stroke-opacity:1" /><path
           id="path17"
           d="m 432.79999,521.44 h 11.68002 v 3.68 h -11.68002 z"
           style="fill:#000000;fill-opacity:1;fill-rule:nonzero;stroke:none" /><path
           id="path18"
           d="M 0,0 C 0,1.92 -1.76,3.68 -3.68,3.68 -5.6,3.68 -7.2,1.92 -7.2,0 c 0,-1.92 1.6,-3.52 3.52,-3.52 1.92,0 3.68,1.6 3.68,3.52 z"
           style="fill:#000000;fill-opacity:1;fill-rule:nonzero;stroke:none"
           transform="translate(491.67999,548.32)" /><path
           id="path19"
           d="M 0,0 C 0,1.92 -1.76,3.68 -3.68,3.68 -5.6,3.68 -7.2,1.92 -7.2,0 c 0,-1.92 1.6,-3.52 3.52,-3.52 1.92,0 3.68,1.6 3.68,3.52 z"
           style="fill:#000000;fill-opacity:1;fill-rule:nonzero;stroke:none"
           transform="translate(491.67999,538.71997)" /><path
           id="path20"
           d="M 0,0 C 0,1.92 -1.76,3.68 -3.68,3.68 -5.6,3.68 -7.2,1.92 -7.2,0 c 0,-1.92 1.6,-3.52 3.52,-3.52 1.92,0 3.68,1.6 3.68,3.52 z"
           style="fill:#000000;fill-opacity:1;fill-rule:nonzero;stroke:none"
           transform="translate(491.67999,529.11999)" /><path
           id="path21"
           d="M 0,0 C 0,1.92 -1.76,3.68 -3.68,3.68 -5.6,3.68 -7.2,1.92 -7.2,0 c 0,-1.92 1.6,-3.52 3.52,-3.52 1.92,0 3.68,1.6 3.68,3.52 z"
           style="fill:#000000;fill-opacity:1;fill-rule:nonzero;stroke:none"
           transform="translate(510.88,544.47997)" /><path
           id="path22"
           d="M 0,0 C 0,1.92 -1.76,3.68 -3.68,3.68 -5.6,3.68 -7.2,1.92 -7.2,0 c 0,-1.92 1.6,-3.52 3.52,-3.52 1.92,0 3.68,1.6 3.68,3.52 z"
           style="fill:#000000;fill-opacity:1;fill-rule:nonzero;stroke:none"
           transform="translate(510.88,554.08001)" /><path
           id="path23"
           d="M 0,0 C 0,1.92 -1.76,3.68 -3.68,3.68 -5.6,3.68 -7.2,1.92 -7.2,0 c 0,-1.92 1.6,-3.52 3.52,-3.52 1.92,0 3.68,1.6 3.68,3.52 z"
           style="fill:#000000;fill-opacity:1;fill-rule:nonzero;stroke:none"
           transform="translate(520.47998,554.08001)" /><path
           id="path24"
           d="M 0,0 C 0,1.92 -1.76,3.68 -3.68,3.68 -5.6,3.68 -7.2,1.92 -7.2,0 c 0,-1.92 1.6,-3.52 3.52,-3.52 1.92,0 3.68,1.6 3.68,3.52 z"
           style="fill:#000000;fill-opacity:1;fill-rule:nonzero;stroke:none"
           transform="translate(510.88,563.67999)" /><path
           id="path25"
           d="M 0,0 C 0,1.92 -1.76,3.68 -3.68,3.68 -5.6,3.68 -7.2,1.92 -7.2,0 c 0,-1.92 1.6,-3.52 3.52,-3.52 1.92,0 3.68,1.6 3.68,3.52 z"
           style="fill:#000000;fill-opacity:1;fill-rule:nonzero;stroke:none"
           transform="translate(520.47998,563.67999)" /><path
           id="path26"
           d="M 0,0 C 0,1.92 -1.76,3.68 -3.68,3.68 -5.6,3.68 -7.2,1.92 -7.2,0 c 0,-1.92 1.6,-3.52 3.52,-3.52 1.92,0 3.68,1.6 3.68,3.52 z"
           style="fill:#000000;fill-opacity:1;fill-rule:nonzero;stroke:none"
           transform="translate(520.47998,573.28002)" /><path
           id="path27"
           d="M 0,0 C 0,1.92 -1.76,3.68 -3.68,3.68 -5.6,3.68 -7.2,1.92 -7.2,0 c 0,-1.92 1.6,-3.52 3.52,-3.52 1.92,0 3.68,1.6 3.68,3.52 z"
           style="fill:#000000;fill-opacity:1;fill-rule:nonzero;stroke:none"
           transform="translate(510.88,582.88)" /><path
           id="path28"
           d="M 0,0 C 0,1.92 -1.76,3.68 -3.68,3.68 -5.6,3.68 -7.2,1.92 -7.2,0 c 0,-1.92 1.6,-3.52 3.52,-3.52 1.92,0 3.68,1.6 3.68,3.52 z"
           style="fill:#000000;fill-opacity:1;fill-rule:nonzero;stroke:none"
           transform="translate(520.47998,582.88)" /><path
           id="path29"
           d="M 0,0 C 0,1.92 -1.76,3.68 -3.68,3.68 -5.6,3.68 -7.2,1.92 -7.2,0 c 0,-1.92 1.6,-3.52 3.52,-3.52 1.92,0 3.68,1.6 3.68,3.52 z"
           style="fill:#000000;fill-opacity:1;fill-rule:nonzero;stroke:none"
           transform="translate(510.88,592.47997)" /><path
           id="path30"
           d="M 0,0 C 0,1.92 -1.76,3.68 -3.68,3.68 -5.6,3.68 -7.2,1.92 -7.2,0 c 0,-1.92 1.6,-3.52 3.52,-3.52 1.92,0 3.68,1.6 3.68,3.52 z"
           style="fill:#000000;fill-opacity:1;fill-rule:nonzero;stroke:none"
           transform="translate(520.47998,592.47997)" /><path
           id="path31"
           d="M 0,0 C 0,1.92 -1.76,3.68 -3.68,3.68 -5.6,3.68 -7.2,1.92 -7.2,0 c 0,-1.92 1.6,-3.52 3.52,-3.52 1.92,0 3.68,1.6 3.68,3.52 z"
           style="fill:#000000;fill-opacity:1;fill-rule:nonzero;stroke:none"
           transform="translate(520.47998,602.08001)" /><path
           id="path32"
           d="M 0,0 C 0,1.92 -1.76,3.68 -3.68,3.68 -5.6,3.68 -7.2,1.92 -7.2,0 c 0,-1.92 1.6,-3.52 3.52,-3.52 1.92,0 3.68,1.6 3.68,3.52 z"
           style="fill:#000000;fill-opacity:1;fill-rule:nonzero;stroke:none"
           transform="translate(510.88,573.28002)" /><path
           id="path33"
           d="M 0,0 C 0,1.92 -1.76,3.68 -3.68,3.68 -5.6,3.68 -7.2,1.92 -7.2,0 c 0,-1.92 1.6,-3.52 3.52,-3.52 1.92,0 3.68,1.6 3.68,3.52 z"
           style="fill:#000000;fill-opacity:1;fill-rule:nonzero;stroke:none"
           transform="translate(491.67999,596.32)" /><path
           id="path34"
           d="M 0,0 C 0,1.92 -1.76,3.68 -3.68,3.68 -5.6,3.68 -7.2,1.92 -7.2,0 c 0,-1.92 1.6,-3.52 3.52,-3.52 1.92,0 3.68,1.6 3.68,3.52 z"
           style="fill:#000000;fill-opacity:1;fill-rule:nonzero;stroke:none"
           transform="translate(491.67999,586.71997)" /><path
           id="path35"
           d="M 0,0 C 0,1.92 -1.76,3.68 -3.68,3.68 -5.6,3.68 -7.2,1.92 -7.2,0 c 0,-1.92 1.6,-3.52 3.52,-3.52 1.92,0 3.68,1.6 3.68,3.52 z"
           style="fill:#000000;fill-opacity:1;fill-rule:nonzero;stroke:none"
           transform="translate(491.67999,577.11999)" /><path
           id="path36"
           d="M 0,0 C 0,1.92 -1.76,3.68 -3.68,3.68 -5.6,3.68 -7.2,1.92 -7.2,0 c 0,-1.92 1.6,-3.52 3.52,-3.52 1.92,0 3.68,1.6 3.68,3.52 z"
           style="fill:#000000;fill-opacity:1;fill-rule:nonzero;stroke:none"
           transform="translate(491.67999,567.52001)" /><path
           id="path37"
           d="M 0,0 C 0,1.92 -1.76,3.68 -3.68,3.68 -5.6,3.68 -7.2,1.92 -7.2,0 c 0,-1.92 1.6,-3.52 3.52,-3.52 1.92,0 3.68,1.6 3.68,3.52 z"
           style="fill:#000000;fill-opacity:1;fill-rule:nonzero;stroke:none"
           transform="translate(491.67999,557.91998)" /><path
           id="path38"
           d="m 503.84,521.91998 h 6.88 v 6.88001 h -6.88 z"
           style="fill:#000000;fill-opacity:1;fill-rule:nonzero;stroke:none" /><path
           id="path39"
           d="M 0,0 C 0,1.92 -1.76,3.68 -3.68,3.68 -5.6,3.68 -7.2,1.92 -7.2,0 c 0,-1.92 1.6,-3.52 3.52,-3.52 1.92,0 3.68,1.6 3.68,3.52 z"
           style="fill:#000000;fill-opacity:1;fill-rule:nonzero;stroke:none"
           transform="translate(520.47998,525.28002)" /><path
           id="path40"
           d="M 0,0 C 0,1.92 -1.76,3.68 -3.68,3.68 -5.6,3.68 -7.2,1.92 -7.2,0 c 0,-1.92 1.6,-3.52 3.52,-3.52 1.92,0 3.68,1.6 3.68,3.52 z"
           style="fill:#000000;fill-opacity:1;fill-rule:nonzero;stroke:none"
           transform="translate(510.88,534.88)" /><path
           id="path41"
           d="M 0,0 C 0,1.92 -1.76,3.68 -3.68,3.68 -5.6,3.68 -7.2,1.92 -7.2,0 c 0,-1.92 1.6,-3.52 3.52,-3.52 1.92,0 3.68,1.6 3.68,3.52 z"
           style="fill:#000000;fill-opacity:1;fill-rule:nonzero;stroke:none"
           transform="translate(520.47998,534.88)" /><path
           id="path42"
           d="M 0,0 C 0,1.92 -1.76,3.68 -3.68,3.68 -5.6,3.68 -7.2,1.92 -7.2,0 c 0,-1.92 1.6,-3.52 3.52,-3.52 1.92,0 3.68,1.6 3.68,3.52 z"
           style="fill:#000000;fill-opacity:1;fill-rule:nonzero;stroke:none"
           transform="translate(520.47998,544.47997)" /><path
           id="path43"
           d="m 484.64001,694.71997 h 6.87998 v 6.88001 h -6.87998 z"
           style="fill:#000000;fill-opacity:1;fill-rule:nonzero;stroke:none" /><path
           id="path44"
           d="M 0,0 C 0,1.92 -1.76,3.68 -3.68,3.68 -5.6,3.68 -7.2,1.92 -7.2,0 c 0,-1.92 1.6,-3.52 3.52,-3.52 1.92,0 3.68,1.6 3.68,3.52 z"
           style="fill:#000000;fill-opacity:1;fill-rule:nonzero;stroke:none"
           transform="translate(491.67999,688.47997)" /><path
           id="path45"
           d="M 0,0 C 0,1.92 -1.76,3.68 -3.68,3.68 -5.6,3.68 -7.2,1.92 -7.2,0 c 0,-1.92 1.6,-3.52 3.52,-3.52 1.92,0 3.68,1.6 3.68,3.52 z"
           style="fill:#000000;fill-opacity:1;fill-rule:nonzero;stroke:none"
           transform="translate(491.67999,678.88)" /><path
           id="path46"
           d="M 0,0 C 0,1.92 -1.76,3.68 -3.68,3.68 -5.6,3.68 -7.2,1.92 -7.2,0 c 0,-1.92 1.6,-3.52 3.52,-3.52 1.92,0 3.68,1.6 3.68,3.52 z"
           style="fill:#000000;fill-opacity:1;fill-rule:nonzero;stroke:none"
           transform="translate(491.67999,669.28002)" /><path
           id="path47"
           d="M 0,0 C 0,1.92 -1.76,3.68 -3.68,3.68 -5.6,3.68 -7.2,1.92 -7.2,0 c 0,-1.92 1.6,-3.52 3.52,-3.52 1.92,0 3.68,1.6 3.68,3.52 z"
           style="fill:#000000;fill-opacity:1;fill-rule:nonzero;stroke:none"
           transform="translate(491.67999,659.67999)" /><path
           id="path48"
           d="M 0,0 C 0,1.92 -1.76,3.68 -3.68,3.68 -5.6,3.68 -7.2,1.92 -7.2,0 c 0,-1.92 1.6,-3.52 3.52,-3.52 1.92,0 3.68,1.6 3.68,3.52 z"
           style="fill:#000000;fill-opacity:1;fill-rule:nonzero;stroke:none"
           transform="translate(491.67999,650.08001)" /><path
           id="path49"
           d="M 0,0 C 0,1.92 -1.76,3.68 -3.68,3.68 -5.6,3.68 -7.2,1.92 -7.2,0 c 0,-1.92 1.6,-3.52 3.52,-3.52 1.92,0 3.68,1.6 3.68,3.52 z"
           style="fill:#000000;fill-opacity:1;fill-rule:nonzero;stroke:none"
           transform="translate(491.67999,640.47997)" /><path
           id="path50"
           d="M 0,0 C 0,1.92 -1.76,3.68 -3.68,3.68 -5.6,3.68 -7.2,1.92 -7.2,0 c 0,-1.92 1.6,-3.52 3.52,-3.52 1.92,0 3.68,1.6 3.68,3.52 z"
           style="fill:#000000;fill-opacity:1;fill-rule:nonzero;stroke:none"
           transform="translate(491.67999,630.88)" /><path
           id="path51"
           d="M 0,0 C 0,1.92 -1.76,3.68 -3.68,3.68 -5.6,3.68 -7.2,1.92 -7.2,0 c 0,-1.92 1.6,-3.52 3.52,-3.52 1.92,0 3.68,1.6 3.68,3.52 z"
           style="fill:#000000;fill-opacity:1;fill-rule:nonzero;stroke:none"
           transform="translate(510.88,630.88)" /><path
           id="path52"
           d="M 0,0 C 0,1.92 -1.76,3.68 -3.68,3.68 -5.6,3.68 -7.2,1.92 -7.2,0 c 0,-1.92 1.6,-3.52 3.52,-3.52 1.92,0 3.68,1.6 3.68,3.52 z"
           style="fill:#000000;fill-opacity:1;fill-rule:nonzero;stroke:none"
           transform="translate(510.88,602.08001)" /><path
           id="path53"
           d="M 0,0 C 0,1.92 -1.76,3.68 -3.68,3.68 -5.6,3.68 -7.2,1.92 -7.2,0 c 0,-1.92 1.6,-3.52 3.52,-3.52 1.92,0 3.68,1.6 3.68,3.52 z"
           style="fill:#000000;fill-opacity:1;fill-rule:nonzero;stroke:none"
           transform="translate(510.88,611.67999)" /><path
           id="path54"
           d="M 0,0 C 0,1.92 -1.76,3.68 -3.68,3.68 -5.6,3.68 -7.2,1.92 -7.2,0 c 0,-1.92 1.6,-3.52 3.52,-3.52 1.92,0 3.68,1.6 3.68,3.52 z"
           style="fill:#000000;fill-opacity:1;fill-rule:nonzero;stroke:none"
           transform="translate(520.47998,611.67999)" /><path
           id="path55"
           d="M 0,0 C 0,1.92 -1.76,3.68 -3.68,3.68 -5.6,3.68 -7.2,1.92 -7.2,0 c 0,-1.92 1.6,-3.52 3.52,-3.52 1.92,0 3.68,1.6 3.68,3.52 z"
           style="fill:#000000;fill-opacity:1;fill-rule:nonzero;stroke:none"
           transform="translate(510.88,621.28002)" /><path
           id="path56"
           d="M 0,0 C 0,1.92 -1.76,3.68 -3.68,3.68 -5.6,3.68 -7.2,1.92 -7.2,0 c 0,-1.92 1.6,-3.52 3.52,-3.52 1.92,0 3.68,1.6 3.68,3.52 z"
           style="fill:#000000;fill-opacity:1;fill-rule:nonzero;stroke:none"
           transform="translate(520.47998,621.28002)" /><path
           id="path57"
           d="M 0,0 C 0,1.92 -1.76,3.68 -3.68,3.68 -5.6,3.68 -7.2,1.92 -7.2,0 c 0,-1.92 1.6,-3.52 3.52,-3.52 1.92,0 3.68,1.6 3.68,3.52 z"
           style="fill:#000000;fill-opacity:1;fill-rule:nonzero;stroke:none"
           transform="translate(520.47998,630.88)" /><path
           id="path58"
           d="m 484.64001,612.15997 h 6.87998 v 6.88001 h -6.87998 z"
           style="fill:#000000;fill-opacity:1;fill-rule:nonzero;stroke:none" /><path
           id="path59"
           d="M 0,0 C 0,1.92 -1.76,3.68 -3.68,3.68 -5.6,3.68 -7.2,1.92 -7.2,0 c 0,-1.92 1.6,-3.52 3.52,-3.52 1.92,0 3.68,1.6 3.68,3.52 z"
           style="fill:#000000;fill-opacity:1;fill-rule:nonzero;stroke:none"
           transform="translate(491.67999,605.91998)" /><path
           id="path60"
           d="M 0,0 C 0,1.92 -1.76,3.68 -3.68,3.68 -5.6,3.68 -7.2,1.92 -7.2,0 c 0,-1.92 1.6,-3.52 3.52,-3.52 1.92,0 3.68,1.6 3.68,3.52 z"
           style="fill:#000000;fill-opacity:1;fill-rule:nonzero;stroke:none"
           transform="translate(510.88,640.47997)" /><path
           id="path61"
           d="M 0,0 C 0,1.92 -1.76,3.68 -3.68,3.68 -5.6,3.68 -7.2,1.92 -7.2,0 c 0,-1.92 1.6,-3.52 3.52,-3.52 1.92,0 3.68,1.6 3.68,3.52 z"
           style="fill:#000000;fill-opacity:1;fill-rule:nonzero;stroke:none"
           transform="translate(520.47998,640.47997)" /><path
           id="path62"
           d="M 0,0 C 0,1.92 -1.76,3.68 -3.68,3.68 -5.6,3.68 -7.2,1.92 -7.2,0 c 0,-1.92 1.6,-3.52 3.52,-3.52 1.92,0 3.68,1.6 3.68,3.52 z"
           style="fill:#000000;fill-opacity:1;fill-rule:nonzero;stroke:none"
           transform="translate(510.88,650.08001)" /><path
           id="path63"
           d="M 0,0 C 0,1.92 -1.76,3.68 -3.68,3.68 -5.6,3.68 -7.2,1.92 -7.2,0 c 0,-1.92 1.6,-3.52 3.52,-3.52 1.92,0 3.68,1.6 3.68,3.52 z"
           style="fill:#000000;fill-opacity:1;fill-rule:nonzero;stroke:none"
           transform="translate(520.47998,650.08001)" /><path
           id="path64"
           d="M 0,0 C 0,1.92 -1.76,3.68 -3.68,3.68 -5.6,3.68 -7.2,1.92 -7.2,0 c 0,-1.92 1.6,-3.52 3.52,-3.52 1.92,0 3.68,1.6 3.68,3.52 z"
           style="fill:#000000;fill-opacity:1;fill-rule:nonzero;stroke:none"
           transform="translate(510.88,659.67999)" /><path
           id="path65"
           d="M 0,0 C 0,1.92 -1.76,3.68 -3.68,3.68 -5.6,3.68 -7.2,1.92 -7.2,0 c 0,-1.92 1.6,-3.52 3.52,-3.52 1.92,0 3.68,1.6 3.68,3.52 z"
           style="fill:#000000;fill-opacity:1;fill-rule:nonzero;stroke:none"
           transform="translate(520.47998,659.67999)" /><path
           id="path66"
           d="M 0,0 C 0,1.92 -1.76,3.68 -3.68,3.68 -5.6,3.68 -7.2,1.92 -7.2,0 c 0,-1.92 1.6,-3.52 3.52,-3.52 1.92,0 3.68,1.6 3.68,3.52 z"
           style="fill:#000000;fill-opacity:1;fill-rule:nonzero;stroke:none"
           transform="translate(510.88,669.28002)" /><path
           id="path67"
           d="M 0,0 C 0,1.92 -1.76,3.68 -3.68,3.68 -5.6,3.68 -7.2,1.92 -7.2,0 c 0,-1.92 1.6,-3.52 3.52,-3.52 1.92,0 3.68,1.6 3.68,3.52 z"
           style="fill:#000000;fill-opacity:1;fill-rule:nonzero;stroke:none"
           transform="translate(520.47998,669.28002)" /><path
           id="path68"
           d="M 0,0 C 0,1.92 -1.76,3.68 -3.68,3.68 -5.6,3.68 -7.2,1.92 -7.2,0 c 0,-1.92 1.6,-3.52 3.52,-3.52 1.92,0 3.68,1.6 3.68,3.52 z"
           style="fill:#000000;fill-opacity:1;fill-rule:nonzero;stroke:none"
           transform="translate(510.88,678.88)" /><path
           id="path69"
           d="M 0,0 C 0,1.92 -1.76,3.68 -3.68,3.68 -5.6,3.68 -7.2,1.92 -7.2,0 c 0,-1.92 1.6,-3.52 3.52,-3.52 1.92,0 3.68,1.6 3.68,3.52 z"
           style="fill:#000000;fill-opacity:1;fill-rule:nonzero;stroke:none"
           transform="translate(520.47998,678.88)" /><path
           id="path70"
           d="M 0,0 C 0,1.92 -1.76,3.68 -3.68,3.68 -5.6,3.68 -7.2,1.92 -7.2,0 c 0,-1.92 1.6,-3.52 3.52,-3.52 1.92,0 3.68,1.6 3.68,3.52 z"
           style="fill:#000000;fill-opacity:1;fill-rule:nonzero;stroke:none"
           transform="translate(510.88,688.47997)" /><path
           id="path71"
           d="M 0,0 C 0,1.92 -1.76,3.68 -3.68,3.68 -5.6,3.68 -7.2,1.92 -7.2,0 c 0,-1.92 1.6,-3.52 3.52,-3.52 1.92,0 3.68,1.6 3.68,3.52 z"
           style="fill:#000000;fill-opacity:1;fill-rule:nonzero;stroke:none"
           transform="translate(520.47998,688.47997)" /><path
           id="path72"
           d="M 0,0 C 0,1.92 -1.76,3.68 -3.68,3.68 -5.6,3.68 -7.2,1.92 -7.2,0 c 0,-1.92 1.6,-3.52 3.52,-3.52 1.92,0 3.68,1.6 3.68,3.52 z"
           style="fill:#000000;fill-opacity:1;fill-rule:nonzero;stroke:none"
           transform="translate(510.88,698.08001)" /><path
           id="path73"
           d="M 0,0 C 0,1.92 -1.76,3.68 -3.68,3.68 -5.6,3.68 -7.2,1.92 -7.2,0 c 0,-1.92 1.6,-3.52 3.52,-3.52 1.92,0 3.68,1.6 3.68,3.52 z"
           style="fill:#000000;fill-opacity:1;fill-rule:nonzero;stroke:none"
           transform="translate(520.47998,698.08001)" /><path
           id="path74"
           d="m 411.67999,506.23999 h 11.68 v 3.84 h -11.68 z m 21.12,0 h 11.68002 v 3.84 h -11.68002 z m -21.12,15.20001 h 11.68 v 3.68 h -11.68 z m -41.28,0 h 11.68 v 3.68 h -11.68 z m 23.68,29.76001 H 401.12 v 6.88001 h -7.04001 z"
           style="fill:#000000;fill-opacity:1;fill-rule:evenodd;stroke:none" /><path
           id="path75"
           d="M 0,0 C 0,1.92 -1.76,3.68 -3.68,3.68 -5.6,3.68 -7.2,1.92 -7.2,0 c 0,-1.92 1.6,-3.52 3.52,-3.52 1.92,0 3.68,1.6 3.68,3.52 z"
           style="fill:#000000;fill-opacity:1;fill-rule:nonzero;stroke:none"
           transform="translate(410.88,554.55999)" /><path
           id="path76"
           d="m 349.28,506.23999 h 11.67999 v 3.84 H 349.28 Z m 21.11999,0 h 11.68 v 3.84 h -11.68 z M 349.28,521.44 h 11.67999 v 3.68 H 349.28 Z m -75.84,0.47998 h 6.88001 v 6.88001 H 273.44 Z"
           style="fill:#000000;fill-opacity:1;fill-rule:evenodd;stroke:none" /><path
           id="path77"
           d="M 0,0 C 0,1.92 -1.76,3.68 -3.68,3.68 -5.6,3.68 -7.2,1.92 -7.2,0 c 0,-1.92 1.6,-3.52 3.52,-3.52 1.92,0 3.68,1.6 3.68,3.52 z"
           style="fill:#000000;fill-opacity:1;fill-rule:nonzero;stroke:none"
           transform="translate(290.07999,525.28002)" /><path
           id="path78"
           d="M 0,0 C 0,1.92 -1.76,3.68 -3.68,3.68 -5.6,3.68 -7.2,1.92 -7.2,0 c 0,-1.92 1.6,-3.52 3.52,-3.52 1.92,0 3.68,1.6 3.68,3.52 z"
           style="fill:#000000;fill-opacity:1;fill-rule:nonzero;stroke:none"
           transform="translate(280.48001,534.88)" /><path
           id="path79"
           d="M 0,0 C 0,1.92 -1.76,3.68 -3.68,3.68 -5.6,3.68 -7.2,1.92 -7.2,0 c 0,-1.92 1.6,-3.52 3.52,-3.52 1.92,0 3.68,1.6 3.68,3.52 z"
           style="fill:#000000;fill-opacity:1;fill-rule:nonzero;stroke:none"
           transform="translate(290.07999,534.88)" /><path
           id="path80"
           d="M 0,0 C 0,1.92 -1.76,3.68 -3.68,3.68 -5.6,3.68 -7.2,1.92 -7.2,0 c 0,-1.92 1.6,-3.52 3.52,-3.52 1.92,0 3.68,1.6 3.68,3.52 z"
           style="fill:#000000;fill-opacity:1;fill-rule:nonzero;stroke:none"
           transform="translate(280.48001,544.47997)" /><path
           id="path81"
           d="M 0,0 C 0,1.92 -1.76,3.68 -3.68,3.68 -5.6,3.68 -7.2,1.92 -7.2,0 c 0,-1.92 1.6,-3.52 3.52,-3.52 1.92,0 3.68,1.6 3.68,3.52 z"
           style="fill:#000000;fill-opacity:1;fill-rule:nonzero;stroke:none"
           transform="translate(290.07999,544.47997)" /><path
           id="path82"
           d="M 0,0 C 0,1.92 -1.76,3.68 -3.68,3.68 -5.6,3.68 -7.2,1.92 -7.2,0 c 0,-1.92 1.6,-3.52 3.52,-3.52 1.92,0 3.68,1.6 3.68,3.52 z"
           style="fill:#000000;fill-opacity:1;fill-rule:nonzero;stroke:none"
           transform="translate(280.48001,554.08001)" /><path
           id="path83"
           d="M 0,0 C 0,1.92 -1.76,3.68 -3.68,3.68 -5.6,3.68 -7.2,1.92 -7.2,0 c 0,-1.92 1.6,-3.52 3.52,-3.52 1.92,0 3.68,1.6 3.68,3.52 z"
           style="fill:#000000;fill-opacity:1;fill-rule:nonzero;stroke:none"
           transform="translate(290.07999,554.08001)" /><path
           id="path84"
           d="M 0,0 C 0,1.92 -1.76,3.68 -3.68,3.68 -5.6,3.68 -7.2,1.92 -7.2,0 c 0,-1.92 1.6,-3.52 3.52,-3.52 1.92,0 3.68,1.6 3.68,3.52 z"
           style="fill:#000000;fill-opacity:1;fill-rule:nonzero;stroke:none"
           transform="translate(280.48001,563.67999)" /><path
           id="path85"
           d="M 0,0 C 0,1.92 -1.76,3.68 -3.68,3.68 -5.6,3.68 -7.2,1.92 -7.2,0 c 0,-1.92 1.6,-3.52 3.52,-3.52 1.92,0 3.68,1.6 3.68,3.52 z"
           style="fill:#000000;fill-opacity:1;fill-rule:nonzero;stroke:none"
           transform="translate(290.07999,563.67999)" /><path
           id="path86"
           d="M 302.23999,646.71997 H 309.12 v 6.88001 h -6.88001 z"
           style="fill:#000000;fill-opacity:1;fill-rule:nonzero;stroke:none" /><path
           id="path87"
           d="M 0,0 C 0,1.92 -1.76,3.68 -3.68,3.68 -5.6,3.68 -7.2,1.92 -7.2,0 c 0,-1.92 1.6,-3.52 3.52,-3.52 1.92,0 3.68,1.6 3.68,3.52 z"
           style="fill:#000000;fill-opacity:1;fill-rule:nonzero;stroke:none"
           transform="translate(309.28,659.67999)" /><path
           id="path88"
           d="M 0,0 C 0,1.92 -1.76,3.68 -3.68,3.68 -5.6,3.68 -7.2,1.92 -7.2,0 c 0,-1.92 1.6,-3.52 3.52,-3.52 1.92,0 3.68,1.6 3.68,3.52 z"
           style="fill:#000000;fill-opacity:1;fill-rule:nonzero;stroke:none"
           transform="translate(309.28,669.28002)" /><path
           id="path89"
           d="M 0,0 C 0,1.92 -1.76,3.68 -3.68,3.68 -5.6,3.68 -7.2,1.92 -7.2,0 c 0,-1.92 1.6,-3.52 3.52,-3.52 1.92,0 3.68,1.6 3.68,3.52 z"
           style="fill:#000000;fill-opacity:1;fill-rule:nonzero;stroke:none"
           transform="translate(309.28,678.88)" /><path
           id="path90"
           d="M 0,0 C 0,1.92 -1.76,3.68 -3.68,3.68 -5.6,3.68 -7.2,1.92 -7.2,0 c 0,-1.92 1.6,-3.52 3.52,-3.52 1.92,0 3.68,1.6 3.68,3.52 z"
           style="fill:#000000;fill-opacity:1;fill-rule:nonzero;stroke:none"
           transform="translate(309.28,688.47997)" /><path
           id="path91"
           d="M 0,0 C 0,1.92 -1.76,3.68 -3.68,3.68 -5.6,3.68 -7.2,1.92 -7.2,0 c 0,-1.92 1.6,-3.52 3.52,-3.52 1.92,0 3.68,1.6 3.68,3.52 z"
           style="fill:#000000;fill-opacity:1;fill-rule:nonzero;stroke:none"
           transform="translate(309.28,698.08001)" /><path
           id="path92"
           d="M 302.23999,560.32001 H 309.12 v 6.88 h -6.88001 z"
           style="fill:#000000;fill-opacity:1;fill-rule:nonzero;stroke:none" /><path
           id="path93"
           d="M 0,0 C 0,1.92 -1.76,3.68 -3.68,3.68 -5.6,3.68 -7.2,1.92 -7.2,0 c 0,-1.92 1.6,-3.52 3.52,-3.52 1.92,0 3.68,1.6 3.68,3.52 z"
           style="fill:#000000;fill-opacity:1;fill-rule:nonzero;stroke:none"
           transform="translate(309.28,573.28002)" /><path
           id="path94"
           d="M 0,0 C 0,1.92 -1.76,3.68 -3.68,3.68 -5.6,3.68 -7.2,1.92 -7.2,0 c 0,-1.92 1.6,-3.52 3.52,-3.52 1.92,0 3.68,1.6 3.68,3.52 z"
           style="fill:#000000;fill-opacity:1;fill-rule:nonzero;stroke:none"
           transform="translate(309.28,582.88)" /><path
           id="path95"
           d="M 0,0 C 0,1.92 -1.76,3.68 -3.68,3.68 -5.6,3.68 -7.2,1.92 -7.2,0 c 0,-1.92 1.6,-3.52 3.52,-3.52 1.92,0 3.68,1.6 3.68,3.52 z"
           style="fill:#000000;fill-opacity:1;fill-rule:nonzero;stroke:none"
           transform="translate(309.28,592.47997)" /><path
           id="path96"
           d="M 0,0 C 0,1.92 -1.76,3.68 -3.68,3.68 -5.6,3.68 -7.2,1.92 -7.2,0 c 0,-1.92 1.6,-3.52 3.52,-3.52 1.92,0 3.68,1.6 3.68,3.52 z"
           style="fill:#000000;fill-opacity:1;fill-rule:nonzero;stroke:none"
           transform="translate(309.28,602.08001)" /><path
           id="path97"
           d="M 0,0 C 0,1.92 -1.76,3.68 -3.68,3.68 -5.6,3.68 -7.2,1.92 -7.2,0 c 0,-1.92 1.6,-3.52 3.52,-3.52 1.92,0 3.68,1.6 3.68,3.52 z"
           style="fill:#000000;fill-opacity:1;fill-rule:nonzero;stroke:none"
           transform="translate(309.28,611.67999)" /><path
           id="path98"
           d="M 0,0 C 0,1.92 -1.76,3.68 -3.68,3.68 -5.6,3.68 -7.2,1.92 -7.2,0 c 0,-1.92 1.6,-3.52 3.52,-3.52 1.92,0 3.68,1.6 3.68,3.52 z"
           style="fill:#000000;fill-opacity:1;fill-rule:nonzero;stroke:none"
           transform="translate(309.28,621.28002)" /><path
           id="path99"
           d="M 0,0 C 0,1.92 -1.76,3.68 -3.68,3.68 -5.6,3.68 -7.2,1.92 -7.2,0 c 0,-1.92 1.6,-3.52 3.52,-3.52 1.92,0 3.68,1.6 3.68,3.52 z"
           style="fill:#000000;fill-opacity:1;fill-rule:nonzero;stroke:none"
           transform="translate(309.28,630.88)" /><path
           id="path100"
           d="M 0,0 C 0,1.92 -1.76,3.68 -3.68,3.68 -5.6,3.68 -7.2,1.92 -7.2,0 c 0,-1.92 1.6,-3.52 3.52,-3.52 1.92,0 3.68,1.6 3.68,3.52 z"
           style="fill:#000000;fill-opacity:1;fill-rule:nonzero;stroke:none"
           transform="translate(280.48001,573.28002)" /><path
           id="path101"
           d="M 0,0 C 0,1.92 -1.76,3.68 -3.68,3.68 -5.6,3.68 -7.2,1.92 -7.2,0 c 0,-1.92 1.6,-3.52 3.52,-3.52 1.92,0 3.68,1.6 3.68,3.52 z"
           style="fill:#000000;fill-opacity:1;fill-rule:nonzero;stroke:none"
           transform="translate(290.07999,573.28002)" /><path
           id="path102"
           d="M 0,0 C 0,1.92 -1.76,3.68 -3.68,3.68 -5.6,3.68 -7.2,1.92 -7.2,0 c 0,-1.92 1.6,-3.52 3.52,-3.52 1.92,0 3.68,1.6 3.68,3.52 z"
           style="fill:#000000;fill-opacity:1;fill-rule:nonzero;stroke:none"
           transform="translate(280.48001,582.88)" /><path
           id="path103"
           d="M 0,0 C 0,1.92 -1.76,3.68 -3.68,3.68 -5.6,3.68 -7.2,1.92 -7.2,0 c 0,-1.92 1.6,-3.52 3.52,-3.52 1.92,0 3.68,1.6 3.68,3.52 z"
           style="fill:#000000;fill-opacity:1;fill-rule:nonzero;stroke:none"
           transform="translate(290.07999,582.88)" /><path
           id="path104"
           d="M 0,0 C 0,1.92 -1.76,3.68 -3.68,3.68 -5.6,3.68 -7.2,1.92 -7.2,0 c 0,-1.92 1.6,-3.52 3.52,-3.52 1.92,0 3.68,1.6 3.68,3.52 z"
           style="fill:#000000;fill-opacity:1;fill-rule:nonzero;stroke:none"
           transform="translate(280.48001,592.47997)" /><path
           id="path105"
           d="M 0,0 C 0,1.92 -1.76,3.68 -3.68,3.68 -5.6,3.68 -7.2,1.92 -7.2,0 c 0,-1.92 1.6,-3.52 3.52,-3.52 1.92,0 3.68,1.6 3.68,3.52 z"
           style="fill:#000000;fill-opacity:1;fill-rule:nonzero;stroke:none"
           transform="translate(290.07999,592.47997)" /><path
           id="path106"
           d="M 0,0 C 0,1.92 -1.76,3.68 -3.68,3.68 -5.6,3.68 -7.2,1.92 -7.2,0 c 0,-1.92 1.6,-3.52 3.52,-3.52 1.92,0 3.68,1.6 3.68,3.52 z"
           style="fill:#000000;fill-opacity:1;fill-rule:nonzero;stroke:none"
           transform="translate(280.48001,602.08001)" /><path
           id="path107"
           d="M 0,0 C 0,1.92 -1.76,3.68 -3.68,3.68 -5.6,3.68 -7.2,1.92 -7.2,0 c 0,-1.92 1.6,-3.52 3.52,-3.52 1.92,0 3.68,1.6 3.68,3.52 z"
           style="fill:#000000;fill-opacity:1;fill-rule:nonzero;stroke:none"
           transform="translate(290.07999,602.08001)" /><path
           id="path108"
           d="M 0,0 C 0,1.92 -1.76,3.68 -3.68,3.68 -5.6,3.68 -7.2,1.92 -7.2,0 c 0,-1.92 1.6,-3.52 3.52,-3.52 1.92,0 3.68,1.6 3.68,3.52 z"
           style="fill:#000000;fill-opacity:1;fill-rule:nonzero;stroke:none"
           transform="translate(280.48001,611.67999)" /><path
           id="path109"
           d="M 0,0 C 0,1.92 -1.76,3.68 -3.68,3.68 -5.6,3.68 -7.2,1.92 -7.2,0 c 0,-1.92 1.6,-3.52 3.52,-3.52 1.92,0 3.68,1.6 3.68,3.52 z"
           style="fill:#000000;fill-opacity:1;fill-rule:nonzero;stroke:none"
           transform="translate(290.07999,611.67999)" /><path
           id="path110"
           d="M 0,0 C 0,1.92 -1.76,3.68 -3.68,3.68 -5.6,3.68 -7.2,1.92 -7.2,0 c 0,-1.92 1.6,-3.52 3.52,-3.52 1.92,0 3.68,1.6 3.68,3.52 z"
           style="fill:#000000;fill-opacity:1;fill-rule:nonzero;stroke:none"
           transform="translate(280.48001,621.28002)" /><path
           id="path111"
           d="M 0,0 C 0,1.92 -1.76,3.68 -3.68,3.68 -5.6,3.68 -7.2,1.92 -7.2,0 c 0,-1.92 1.6,-3.52 3.52,-3.52 1.92,0 3.68,1.6 3.68,3.52 z"
           style="fill:#000000;fill-opacity:1;fill-rule:nonzero;stroke:none"
           transform="translate(290.07999,621.28002)" /><path
           id="path112"
           d="M 0,0 C 0,1.92 -1.76,3.68 -3.68,3.68 -5.6,3.68 -7.2,1.92 -7.2,0 c 0,-1.92 1.6,-3.52 3.52,-3.52 1.92,0 3.68,1.6 3.68,3.52 z"
           style="fill:#000000;fill-opacity:1;fill-rule:nonzero;stroke:none"
           transform="translate(280.48001,630.88)" /><path
           id="path113"
           d="M 0,0 C 0,1.92 -1.76,3.68 -3.68,3.68 -5.6,3.68 -7.2,1.92 -7.2,0 c 0,-1.92 1.6,-3.52 3.52,-3.52 1.92,0 3.68,1.6 3.68,3.52 z"
           style="fill:#000000;fill-opacity:1;fill-rule:nonzero;stroke:none"
           transform="translate(290.07999,630.88)" /><path
           id="path114"
           d="M 0,0 C 0,1.92 -1.76,3.68 -3.68,3.68 -5.6,3.68 -7.2,1.92 -7.2,0 c 0,-1.92 1.6,-3.52 3.52,-3.52 1.92,0 3.68,1.6 3.68,3.52 z"
           style="fill:#000000;fill-opacity:1;fill-rule:nonzero;stroke:none"
           transform="translate(280.48001,640.47997)" /><path
           id="path115"
           d="M 0,0 C 0,1.92 -1.76,3.68 -3.68,3.68 -5.6,3.68 -7.2,1.92 -7.2,0 c 0,-1.92 1.6,-3.52 3.52,-3.52 1.92,0 3.68,1.6 3.68,3.52 z"
           style="fill:#000000;fill-opacity:1;fill-rule:nonzero;stroke:none"
           transform="translate(290.07999,640.47997)" /><path
           id="path116"
           d="M 0,0 C 0,1.92 -1.76,3.68 -3.68,3.68 -5.6,3.68 -7.2,1.92 -7.2,0 c 0,-1.92 1.6,-3.52 3.52,-3.52 1.92,0 3.68,1.6 3.68,3.52 z"
           style="fill:#000000;fill-opacity:1;fill-rule:nonzero;stroke:none"
           transform="translate(280.48001,650.08001)" /><path
           id="path117"
           d="M 0,0 C 0,1.92 -1.76,3.68 -3.68,3.68 -5.6,3.68 -7.2,1.92 -7.2,0 c 0,-1.92 1.6,-3.52 3.52,-3.52 1.92,0 3.68,1.6 3.68,3.52 z"
           style="fill:#000000;fill-opacity:1;fill-rule:nonzero;stroke:none"
           transform="translate(290.07999,650.08001)" /><path
           id="path118"
           d="M 0,0 C 0,1.92 -1.76,3.68 -3.68,3.68 -5.6,3.68 -7.2,1.92 -7.2,0 c 0,-1.92 1.6,-3.52 3.52,-3.52 1.92,0 3.68,1.6 3.68,3.52 z"
           style="fill:#000000;fill-opacity:1;fill-rule:nonzero;stroke:none"
           transform="translate(280.48001,659.67999)" /><path
           id="path119"
           d="M 0,0 C 0,1.92 -1.76,3.68 -3.68,3.68 -5.6,3.68 -7.2,1.92 -7.2,0 c 0,-1.92 1.6,-3.52 3.52,-3.52 1.92,0 3.68,1.6 3.68,3.52 z"
           style="fill:#000000;fill-opacity:1;fill-rule:nonzero;stroke:none"
           transform="translate(290.07999,659.67999)" /><path
           id="path120"
           d="M 0,0 C 0,1.92 -1.76,3.68 -3.68,3.68 -5.6,3.68 -7.2,1.92 -7.2,0 c 0,-1.92 1.6,-3.52 3.52,-3.52 1.92,0 3.68,1.6 3.68,3.52 z"
           style="fill:#000000;fill-opacity:1;fill-rule:nonzero;stroke:none"
           transform="translate(280.48001,669.28002)" /><path
           id="path121"
           d="M 0,0 C 0,1.92 -1.76,3.68 -3.68,3.68 -5.6,3.68 -7.2,1.92 -7.2,0 c 0,-1.92 1.6,-3.52 3.52,-3.52 1.92,0 3.68,1.6 3.68,3.52 z"
           style="fill:#000000;fill-opacity:1;fill-rule:nonzero;stroke:none"
           transform="translate(290.07999,669.28002)" /><path
           id="path122"
           d="M 0,0 C 0,1.92 -1.76,3.68 -3.68,3.68 -5.6,3.68 -7.2,1.92 -7.2,0 c 0,-1.92 1.6,-3.52 3.52,-3.52 1.92,0 3.68,1.6 3.68,3.52 z"
           style="fill:#000000;fill-opacity:1;fill-rule:nonzero;stroke:none"
           transform="translate(280.48001,678.88)" /><path
           id="path123"
           d="M 0,0 C 0,1.92 -1.76,3.68 -3.68,3.68 -5.6,3.68 -7.2,1.92 -7.2,0 c 0,-1.92 1.6,-3.52 3.52,-3.52 1.92,0 3.68,1.6 3.68,3.52 z"
           style="fill:#000000;fill-opacity:1;fill-rule:nonzero;stroke:none"
           transform="translate(290.07999,678.88)" /><path
           id="path124"
           d="M 0,0 C 0,1.92 -1.76,3.68 -3.68,3.68 -5.6,3.68 -7.2,1.92 -7.2,0 c 0,-1.92 1.6,-3.52 3.52,-3.52 1.92,0 3.68,1.6 3.68,3.52 z"
           style="fill:#000000;fill-opacity:1;fill-rule:nonzero;stroke:none"
           transform="translate(280.48001,688.47997)" /><path
           id="path125"
           d="M 0,0 C 0,1.92 -1.76,3.68 -3.68,3.68 -5.6,3.68 -7.2,1.92 -7.2,0 c 0,-1.92 1.6,-3.52 3.52,-3.52 1.92,0 3.68,1.6 3.68,3.52 z"
           style="fill:#000000;fill-opacity:1;fill-rule:nonzero;stroke:none"
           transform="translate(290.07999,688.47997)" /><path
           id="path126"
           d="M 0,0 C 0,1.92 -1.76,3.68 -3.68,3.68 -5.6,3.68 -7.2,1.92 -7.2,0 c 0,-1.92 1.6,-3.52 3.52,-3.52 1.92,0 3.68,1.6 3.68,3.52 z"
           style="fill:#000000;fill-opacity:1;fill-rule:nonzero;stroke:none"
           transform="translate(280.48001,698.08001)" /><path
           id="path127"
           d="M 0,0 C 0,1.92 -1.76,3.68 -3.68,3.68 -5.6,3.68 -7.2,1.92 -7.2,0 c 0,-1.92 1.6,-3.52 3.52,-3.52 1.92,0 3.68,1.6 3.68,3.52 z"
           style="fill:#000000;fill-opacity:1;fill-rule:nonzero;stroke:none"
           transform="translate(290.07999,698.08001)" /><path
           id="path128"
           d="m 0,0 c 0,3.36 -2.88,6.24 -6.24,6.24 -3.36,0 -6.08,-2.88 -6.08,-6.24 0,-3.36 2.72,-6.08 6.08,-6.08 C -2.88,-6.08 0,-3.36 0,0 Z"
           style="fill:#000000;fill-opacity:1;fill-rule:nonzero;stroke:none"
           transform="translate(312,510.88)" /><path
           id="path129"
           d="m 0,0 c 0,3.36 -2.88,6.24 -6.24,6.24 -3.36,0 -6.08,-2.88 -6.08,-6.24 0,-3.36 2.72,-6.08 6.08,-6.08 C -2.88,-6.08 0,-3.36 0,0 Z"
           style="fill:#000000;fill-opacity:1;fill-rule:nonzero;stroke:none"
           transform="translate(494.39999,515.67999)" /><path
           id="path130"
           d="m 0,0 c 0,3.36 -2.88,6.24 -6.24,6.24 -3.36,0 -6.08,-2.88 -6.08,-6.24 0,-3.36 2.72,-6.08 6.08,-6.08 C -2.88,-6.08 0,-3.36 0,0 Z"
           style="fill:#000000;fill-opacity:1;fill-rule:nonzero;stroke:none"
           transform="translate(436.79999,707.67999)" /><path
           id="path131"
           d="M 0,0 C 0,1.12 -0.96,2.08 -2.08,2.08 -3.2,2.08 -4,1.12 -4,0 -4,-1.12 -3.2,-1.92 -2.08,-1.92 -0.96,-1.92 0,-1.12 0,0 Z"
           style="fill:#ffffff;fill-opacity:1;fill-rule:nonzero;stroke:none"
           transform="translate(509.28,525.28002)" /><path
           id="path132"
           d="M 0,0 C 0,1.12 -0.96,2.08 -2.08,2.08 -3.2,2.08 -4,1.12 -4,0 -4,-1.12 -3.2,-1.92 -2.08,-1.92 -0.96,-1.92 0,-1.12 0,0 Z"
           style="fill:#ffffff;fill-opacity:1;fill-rule:nonzero;stroke:none"
           transform="translate(518.88,525.28002)" /><path
           id="path133"
           d="M 0,0 C 0,1.12 -0.96,2.08 -2.08,2.08 -3.2,2.08 -4,1.12 -4,0 -4,-1.12 -3.2,-1.92 -2.08,-1.92 -0.96,-1.92 0,-1.12 0,0 Z"
           style="fill:#ffffff;fill-opacity:1;fill-rule:nonzero;stroke:none"
           transform="translate(509.28,534.88)" /><path
           id="path134"
           d="M 0,0 C 0,1.12 -0.96,2.08 -2.08,2.08 -3.2,2.08 -4,1.12 -4,0 -4,-1.12 -3.2,-1.92 -2.08,-1.92 -0.96,-1.92 0,-1.12 0,0 Z"
           style="fill:#ffffff;fill-opacity:1;fill-rule:nonzero;stroke:none"
           transform="translate(518.88,534.88)" /><path
           id="path135"
           d="M 0,0 C 0,1.12 -0.96,2.08 -2.08,2.08 -3.2,2.08 -4,1.12 -4,0 -4,-1.12 -3.2,-1.92 -2.08,-1.92 -0.96,-1.92 0,-1.12 0,0 Z"
           style="fill:#ffffff;fill-opacity:1;fill-rule:nonzero;stroke:none"
           transform="translate(518.88,544.47997)" /><path
           id="path136"
           d="M 0,0 C 0,1.12 -0.96,2.08 -2.08,2.08 -3.2,2.08 -4,1.12 -4,0 -4,-1.12 -3.2,-1.92 -2.08,-1.92 -0.96,-1.92 0,-1.12 0,0 Z"
           style="fill:#ffffff;fill-opacity:1;fill-rule:nonzero;stroke:none"
           transform="translate(518.88,554.08001)" /><path
           id="path137"
           d="M 0,0 C 0,1.12 -0.96,2.08 -2.08,2.08 -3.2,2.08 -4,1.12 -4,0 -4,-1.12 -3.2,-1.92 -2.08,-1.92 -0.96,-1.92 0,-1.12 0,0 Z"
           style="fill:#ffffff;fill-opacity:1;fill-rule:nonzero;stroke:none"
           transform="translate(509.28,544.47997)" /><path
           id="path138"
           d="M 0,0 C 0,1.12 -0.96,2.08 -2.08,2.08 -3.2,2.08 -4,1.12 -4,0 -4,-1.12 -3.2,-1.92 -2.08,-1.92 -0.96,-1.92 0,-1.12 0,0 Z"
           style="fill:#ffffff;fill-opacity:1;fill-rule:nonzero;stroke:none"
           transform="translate(509.28,554.08001)" /><path
           id="path139"
           d="M 0,0 C 0,1.12 -0.96,2.08 -2.08,2.08 -3.2,2.08 -4,1.12 -4,0 -4,-1.12 -3.2,-1.92 -2.08,-1.92 -0.96,-1.92 0,-1.12 0,0 Z"
           style="fill:#ffffff;fill-opacity:1;fill-rule:nonzero;stroke:none"
           transform="translate(509.28,563.67999)" /><path
           id="path140"
           d="M 0,0 C 0,1.12 -0.96,2.08 -2.08,2.08 -3.2,2.08 -4,1.12 -4,0 -4,-1.12 -3.2,-1.92 -2.08,-1.92 -0.96,-1.92 0,-1.12 0,0 Z"
           style="fill:#ffffff;fill-opacity:1;fill-rule:nonzero;stroke:none"
           transform="translate(518.88,563.67999)" /><path
           id="path141"
           d="M 0,0 C 0,1.12 -0.96,2.08 -2.08,2.08 -3.2,2.08 -4,1.12 -4,0 -4,-1.12 -3.2,-1.92 -2.08,-1.92 -0.96,-1.92 0,-1.12 0,0 Z"
           style="fill:#ffffff;fill-opacity:1;fill-rule:nonzero;stroke:none"
           transform="translate(518.88,573.28002)" /><path
           id="path142"
           d="M 0,0 C 0,1.12 -0.96,2.08 -2.08,2.08 -3.2,2.08 -4,1.12 -4,0 -4,-1.12 -3.2,-1.92 -2.08,-1.92 -0.96,-1.92 0,-1.12 0,0 Z"
           style="fill:#ffffff;fill-opacity:1;fill-rule:nonzero;stroke:none"
           transform="translate(509.28,573.28002)" /><path
           id="path143"
           d="M 0,0 C 0,1.12 -0.96,2.08 -2.08,2.08 -3.2,2.08 -4,1.12 -4,0 -4,-1.12 -3.2,-1.92 -2.08,-1.92 -0.96,-1.92 0,-1.12 0,0 Z"
           style="fill:#ffffff;fill-opacity:1;fill-rule:nonzero;stroke:none"
           transform="translate(509.28,582.88)" /><path
           id="path144"
           d="M 0,0 C 0,1.12 -0.96,2.08 -2.08,2.08 -3.2,2.08 -4,1.12 -4,0 -4,-1.12 -3.2,-1.92 -2.08,-1.92 -0.96,-1.92 0,-1.12 0,0 Z"
           style="fill:#ffffff;fill-opacity:1;fill-rule:nonzero;stroke:none"
           transform="translate(518.88,582.88)" /><path
           id="path145"
           d="M 0,0 C 0,1.12 -0.96,2.08 -2.08,2.08 -3.2,2.08 -4,1.12 -4,0 -4,-1.12 -3.2,-1.92 -2.08,-1.92 -0.96,-1.92 0,-1.12 0,0 Z"
           style="fill:#ffffff;fill-opacity:1;fill-rule:nonzero;stroke:none"
           transform="translate(509.28,592.47997)" /><path
           id="path146"
           d="M 0,0 C 0,1.12 -0.96,2.08 -2.08,2.08 -3.2,2.08 -4,1.12 -4,0 -4,-1.12 -3.2,-1.92 -2.08,-1.92 -0.96,-1.92 0,-1.12 0,0 Z"
           style="fill:#ffffff;fill-opacity:1;fill-rule:nonzero;stroke:none"
           transform="translate(518.88,592.47997)" /><path
           id="path147"
           d="M 0,0 C 0,1.12 -0.96,2.08 -2.08,2.08 -3.2,2.08 -4,1.12 -4,0 -4,-1.12 -3.2,-1.92 -2.08,-1.92 -0.96,-1.92 0,-1.12 0,0 Z"
           style="fill:#ffffff;fill-opacity:1;fill-rule:nonzero;stroke:none"
           transform="translate(518.88,602.08001)" /><path
           id="path148"
           d="M 0,0 C 0,1.12 -0.96,2.08 -2.08,2.08 -3.2,2.08 -4,1.12 -4,0 -4,-1.12 -3.2,-1.92 -2.08,-1.92 -0.96,-1.92 0,-1.12 0,0 Z"
           style="fill:#ffffff;fill-opacity:1;fill-rule:nonzero;stroke:none"
           transform="translate(509.28,602.08001)" /><path
           id="path149"
           d="m 0,0 c 0,1.12 -1.12,2.24 -2.24,2.24 -1.12,0 -2.08,-1.12 -2.08,-2.24 0,-1.12 0.96,-2.08 2.08,-2.08 C -1.12,-2.08 0,-1.12 0,0 Z"
           style="fill:#ffffff;fill-opacity:1;fill-rule:nonzero;stroke:none"
           transform="translate(490.23999,615.52001)" /><path
           id="path150"
           d="m 0,0 c 0,1.12 -1.12,2.24 -2.24,2.24 -1.12,0 -2.08,-1.12 -2.08,-2.24 0,-1.12 0.96,-2.08 2.08,-2.08 C -1.12,-2.08 0,-1.12 0,0 Z"
           style="fill:#ffffff;fill-opacity:1;fill-rule:nonzero;stroke:none"
           transform="translate(490.23999,605.91998)" /><path
           id="path151"
           d="m 0,0 c 0,1.12 -1.12,2.24 -2.24,2.24 -1.12,0 -2.08,-1.12 -2.08,-2.24 0,-1.12 0.96,-2.08 2.08,-2.08 C -1.12,-2.08 0,-1.12 0,0 Z"
           style="fill:#ffffff;fill-opacity:1;fill-rule:nonzero;stroke:none"
           transform="translate(490.23999,596.32)" /><path
           id="path152"
           d="m 0,0 c 0,1.12 -1.12,2.24 -2.24,2.24 -1.12,0 -2.08,-1.12 -2.08,-2.24 0,-1.12 0.96,-2.08 2.08,-2.08 C -1.12,-2.08 0,-1.12 0,0 Z"
           style="fill:#ffffff;fill-opacity:1;fill-rule:nonzero;stroke:none"
           transform="translate(490.23999,586.71997)" /><path
           id="path153"
           d="m 0,0 c 0,1.12 -1.12,2.24 -2.24,2.24 -1.12,0 -2.08,-1.12 -2.08,-2.24 0,-1.12 0.96,-2.08 2.08,-2.08 C -1.12,-2.08 0,-1.12 0,0 Z"
           style="fill:#ffffff;fill-opacity:1;fill-rule:nonzero;stroke:none"
           transform="translate(490.23999,567.52001)" /><path
           id="path154"
           d="m 0,0 c 0,1.12 -1.12,2.24 -2.24,2.24 -1.12,0 -2.08,-1.12 -2.08,-2.24 0,-1.12 0.96,-2.08 2.08,-2.08 C -1.12,-2.08 0,-1.12 0,0 Z"
           style="fill:#ffffff;fill-opacity:1;fill-rule:nonzero;stroke:none"
           transform="translate(490.23999,557.91998)" /><path
           id="path155"
           d="m 0,0 c 0,1.12 -1.12,2.24 -2.24,2.24 -1.12,0 -2.08,-1.12 -2.08,-2.24 0,-1.12 0.96,-2.08 2.08,-2.08 C -1.12,-2.08 0,-1.12 0,0 Z"
           style="fill:#ffffff;fill-opacity:1;fill-rule:nonzero;stroke:none"
           transform="translate(490.23999,548.32)" /><path
           id="path156"
           d="m 0,0 c 0,1.12 -1.12,2.24 -2.24,2.24 -1.12,0 -2.08,-1.12 -2.08,-2.24 0,-1.12 0.96,-2.08 2.08,-2.08 C -1.12,-2.08 0,-1.12 0,0 Z"
           style="fill:#ffffff;fill-opacity:1;fill-rule:nonzero;stroke:none"
           transform="translate(490.23999,538.71997)" /><path
           id="path157"
           d="m 0,0 c 0,1.12 -1.12,2.24 -2.24,2.24 -1.12,0 -2.08,-1.12 -2.08,-2.24 0,-1.12 0.96,-2.08 2.08,-2.08 C -1.12,-2.08 0,-1.12 0,0 Z"
           style="fill:#ffffff;fill-opacity:1;fill-rule:nonzero;stroke:none"
           transform="translate(490.23999,529.11999)" /><path
           id="path158"
           d="m 0,0 c 0,1.12 -1.12,2.24 -2.24,2.24 -1.12,0 -2.08,-1.12 -2.08,-2.24 0,-1.12 0.96,-2.08 2.08,-2.08 C -1.12,-2.08 0,-1.12 0,0 Z"
           style="fill:#ffffff;fill-opacity:1;fill-rule:nonzero;stroke:none"
           transform="translate(490.23999,698.08001)" /><path
           id="path159"
           d="m 0,0 c 0,1.12 -1.12,2.24 -2.24,2.24 -1.12,0 -2.08,-1.12 -2.08,-2.24 0,-1.12 0.96,-2.08 2.08,-2.08 C -1.12,-2.08 0,-1.12 0,0 Z"
           style="fill:#ffffff;fill-opacity:1;fill-rule:nonzero;stroke:none"
           transform="translate(490.23999,688.47997)" /><path
           id="path160"
           d="m 0,0 c 0,1.12 -1.12,2.24 -2.24,2.24 -1.12,0 -2.08,-1.12 -2.08,-2.24 0,-1.12 0.96,-2.08 2.08,-2.08 C -1.12,-2.08 0,-1.12 0,0 Z"
           style="fill:#ffffff;fill-opacity:1;fill-rule:nonzero;stroke:none"
           transform="translate(490.23999,678.88)" /><path
           id="path161"
           d="m 0,0 c 0,1.12 -1.12,2.24 -2.24,2.24 -1.12,0 -2.08,-1.12 -2.08,-2.24 0,-1.12 0.96,-2.08 2.08,-2.08 C -1.12,-2.08 0,-1.12 0,0 Z"
           style="fill:#ffffff;fill-opacity:1;fill-rule:nonzero;stroke:none"
           transform="translate(490.23999,669.28002)" /><path
           id="path162"
           d="m 0,0 c 0,1.12 -1.12,2.24 -2.24,2.24 -1.12,0 -2.08,-1.12 -2.08,-2.24 0,-1.12 0.96,-2.08 2.08,-2.08 C -1.12,-2.08 0,-1.12 0,0 Z"
           style="fill:#ffffff;fill-opacity:1;fill-rule:nonzero;stroke:none"
           transform="translate(490.23999,659.67999)" /><path
           id="path163"
           d="m 0,0 c 0,1.12 -1.12,2.24 -2.24,2.24 -1.12,0 -2.08,-1.12 -2.08,-2.24 0,-1.12 0.96,-2.08 2.08,-2.08 C -1.12,-2.08 0,-1.12 0,0 Z"
           style="fill:#ffffff;fill-opacity:1;fill-rule:nonzero;stroke:none"
           transform="translate(490.23999,650.08001)" /><path
           id="path164"
           d="m 0,0 c 0,1.12 -1.12,2.24 -2.24,2.24 -1.12,0 -2.08,-1.12 -2.08,-2.24 0,-1.12 0.96,-2.08 2.08,-2.08 C -1.12,-2.08 0,-1.12 0,0 Z"
           style="fill:#ffffff;fill-opacity:1;fill-rule:nonzero;stroke:none"
           transform="translate(490.23999,640.47997)" /><path
           id="path165"
           d="m 0,0 c 0,1.12 -1.12,2.24 -2.24,2.24 -1.12,0 -2.08,-1.12 -2.08,-2.24 0,-1.12 0.96,-2.08 2.08,-2.08 C -1.12,-2.08 0,-1.12 0,0 Z"
           style="fill:#ffffff;fill-opacity:1;fill-rule:nonzero;stroke:none"
           transform="translate(490.23999,630.88)" /><path
           id="path166"
           d="M 0,0 C 0,1.12 -0.96,2.08 -2.08,2.08 -3.2,2.08 -4,1.12 -4,0 -4,-1.12 -3.2,-1.92 -2.08,-1.92 -0.96,-1.92 0,-1.12 0,0 Z"
           style="fill:#ffffff;fill-opacity:1;fill-rule:nonzero;stroke:none"
           transform="translate(509.28,630.88)" /><path
           id="path167"
           d="M 0,0 C 0,1.12 -0.96,2.08 -2.08,2.08 -3.2,2.08 -4,1.12 -4,0 -4,-1.12 -3.2,-1.92 -2.08,-1.92 -0.96,-1.92 0,-1.12 0,0 Z"
           style="fill:#ffffff;fill-opacity:1;fill-rule:nonzero;stroke:none"
           transform="translate(509.28,640.47997)" /><path
           id="path168"
           d="M 0,0 C 0,1.12 -0.96,2.08 -2.08,2.08 -3.2,2.08 -4,1.12 -4,0 -4,-1.12 -3.2,-1.92 -2.08,-1.92 -0.96,-1.92 0,-1.12 0,0 Z"
           style="fill:#ffffff;fill-opacity:1;fill-rule:nonzero;stroke:none"
           transform="translate(518.88,640.47997)" /><path
           id="path169"
           d="M 0,0 C 0,1.12 -0.96,2.08 -2.08,2.08 -3.2,2.08 -4,1.12 -4,0 -4,-1.12 -3.2,-1.92 -2.08,-1.92 -0.96,-1.92 0,-1.12 0,0 Z"
           style="fill:#ffffff;fill-opacity:1;fill-rule:nonzero;stroke:none"
           transform="translate(509.28,650.08001)" /><path
           id="path170"
           d="M 0,0 C 0,1.12 -0.96,2.08 -2.08,2.08 -3.2,2.08 -4,1.12 -4,0 -4,-1.12 -3.2,-1.92 -2.08,-1.92 -0.96,-1.92 0,-1.12 0,0 Z"
           style="fill:#ffffff;fill-opacity:1;fill-rule:nonzero;stroke:none"
           transform="translate(518.88,650.08001)" /><path
           id="path171"
           d="M 0,0 C 0,1.12 -0.96,2.08 -2.08,2.08 -3.2,2.08 -4,1.12 -4,0 -4,-1.12 -3.2,-1.92 -2.08,-1.92 -0.96,-1.92 0,-1.12 0,0 Z"
           style="fill:#ffffff;fill-opacity:1;fill-rule:nonzero;stroke:none"
           transform="translate(509.28,659.67999)" /><path
           id="path172"
           d="M 0,0 C 0,1.12 -0.96,2.08 -2.08,2.08 -3.2,2.08 -4,1.12 -4,0 -4,-1.12 -3.2,-1.92 -2.08,-1.92 -0.96,-1.92 0,-1.12 0,0 Z"
           style="fill:#ffffff;fill-opacity:1;fill-rule:nonzero;stroke:none"
           transform="translate(518.88,659.67999)" /><path
           id="path173"
           d="M 0,0 C 0,1.12 -0.96,2.08 -2.08,2.08 -3.2,2.08 -4,1.12 -4,0 -4,-1.12 -3.2,-1.92 -2.08,-1.92 -0.96,-1.92 0,-1.12 0,0 Z"
           style="fill:#ffffff;fill-opacity:1;fill-rule:nonzero;stroke:none"
           transform="translate(509.28,669.28002)" /><path
           id="path174"
           d="M 0,0 C 0,1.12 -0.96,2.08 -2.08,2.08 -3.2,2.08 -4,1.12 -4,0 -4,-1.12 -3.2,-1.92 -2.08,-1.92 -0.96,-1.92 0,-1.12 0,0 Z"
           style="fill:#ffffff;fill-opacity:1;fill-rule:nonzero;stroke:none"
           transform="translate(518.88,669.28002)" /><path
           id="path175"
           d="M 0,0 C 0,1.12 -0.96,2.08 -2.08,2.08 -3.2,2.08 -4,1.12 -4,0 -4,-1.12 -3.2,-1.92 -2.08,-1.92 -0.96,-1.92 0,-1.12 0,0 Z"
           style="fill:#ffffff;fill-opacity:1;fill-rule:nonzero;stroke:none"
           transform="translate(509.28,678.88)" /><path
           id="path176"
           d="M 0,0 C 0,1.12 -0.96,2.08 -2.08,2.08 -3.2,2.08 -4,1.12 -4,0 -4,-1.12 -3.2,-1.92 -2.08,-1.92 -0.96,-1.92 0,-1.12 0,0 Z"
           style="fill:#ffffff;fill-opacity:1;fill-rule:nonzero;stroke:none"
           transform="translate(518.88,678.88)" /><path
           id="path177"
           d="M 0,0 C 0,1.12 -0.96,2.08 -2.08,2.08 -3.2,2.08 -4,1.12 -4,0 -4,-1.12 -3.2,-1.92 -2.08,-1.92 -0.96,-1.92 0,-1.12 0,0 Z"
           style="fill:#ffffff;fill-opacity:1;fill-rule:nonzero;stroke:none"
           transform="translate(509.28,688.47997)" /><path
           id="path178"
           d="M 0,0 C 0,1.12 -0.96,2.08 -2.08,2.08 -3.2,2.08 -4,1.12 -4,0 -4,-1.12 -3.2,-1.92 -2.08,-1.92 -0.96,-1.92 0,-1.12 0,0 Z"
           style="fill:#ffffff;fill-opacity:1;fill-rule:nonzero;stroke:none"
           transform="translate(518.88,688.47997)" /><path
           id="path179"
           d="M 0,0 C 0,1.12 -0.96,2.08 -2.08,2.08 -3.2,2.08 -4,1.12 -4,0 -4,-1.12 -3.2,-1.92 -2.08,-1.92 -0.96,-1.92 0,-1.12 0,0 Z"
           style="fill:#ffffff;fill-opacity:1;fill-rule:nonzero;stroke:none"
           transform="translate(509.28,698.08001)" /><path
           id="path180"
           d="M 0,0 C 0,1.12 -0.96,2.08 -2.08,2.08 -3.2,2.08 -4,1.12 -4,0 -4,-1.12 -3.2,-1.92 -2.08,-1.92 -0.96,-1.92 0,-1.12 0,0 Z"
           style="fill:#ffffff;fill-opacity:1;fill-rule:nonzero;stroke:none"
           transform="translate(518.88,698.08001)" /><path
           id="path181"
           d="M 0,0 C 0,1.12 -0.96,2.08 -2.08,2.08 -3.2,2.08 -4,1.12 -4,0 -4,-1.12 -3.2,-1.92 -2.08,-1.92 -0.96,-1.92 0,-1.12 0,0 Z"
           style="fill:#ffffff;fill-opacity:1;fill-rule:nonzero;stroke:none"
           transform="translate(509.28,611.67999)" /><path
           id="path182"
           d="M 0,0 C 0,1.12 -0.96,2.08 -2.08,2.08 -3.2,2.08 -4,1.12 -4,0 -4,-1.12 -3.2,-1.92 -2.08,-1.92 -0.96,-1.92 0,-1.12 0,0 Z"
           style="fill:#ffffff;fill-opacity:1;fill-rule:nonzero;stroke:none"
           transform="translate(518.88,611.67999)" /><path
           id="path183"
           d="M 0,0 C 0,1.12 -0.96,2.08 -2.08,2.08 -3.2,2.08 -4,1.12 -4,0 -4,-1.12 -3.2,-1.92 -2.08,-1.92 -0.96,-1.92 0,-1.12 0,0 Z"
           style="fill:#ffffff;fill-opacity:1;fill-rule:nonzero;stroke:none"
           transform="translate(509.28,621.28002)" /><path
           id="path184"
           d="M 0,0 C 0,1.12 -0.96,2.08 -2.08,2.08 -3.2,2.08 -4,1.12 -4,0 -4,-1.12 -3.2,-1.92 -2.08,-1.92 -0.96,-1.92 0,-1.12 0,0 Z"
           style="fill:#ffffff;fill-opacity:1;fill-rule:nonzero;stroke:none"
           transform="translate(518.88,621.28002)" /><path
           id="path185"
           d="M 0,0 C 0,1.12 -0.96,2.08 -2.08,2.08 -3.2,2.08 -4,1.12 -4,0 -4,-1.12 -3.2,-1.92 -2.08,-1.92 -0.96,-1.92 0,-1.12 0,0 Z"
           style="fill:#ffffff;fill-opacity:1;fill-rule:nonzero;stroke:none"
           transform="translate(518.88,630.88)" /><path
           id="path186"
           d="M 0,0 C 0,1.12 -0.96,2.08 -2.08,2.08 -3.2,2.08 -4,1.12 -4,0 -4,-1.12 -3.2,-1.92 -2.08,-1.92 -0.96,-1.92 0,-1.12 0,0 Z"
           style="fill:#ffffff;fill-opacity:1;fill-rule:nonzero;stroke:none"
           transform="translate(399.67999,554.55999)" /><path
           id="path187"
           d="M 0,0 C 0,1.12 -0.96,2.08 -2.08,2.08 -3.2,2.08 -4,1.12 -4,0 -4,-1.12 -3.2,-1.92 -2.08,-1.92 -0.96,-1.92 0,-1.12 0,0 Z"
           style="fill:#ffffff;fill-opacity:1;fill-rule:nonzero;stroke:none"
           transform="translate(409.28,554.55999)" /><path
           id="path188"
           d="m 0,0 c 0,1.12 -1.12,2.24 -2.24,2.24 -1.12,0 -2.08,-1.12 -2.08,-2.24 0,-1.12 0.96,-2.08 2.08,-2.08 C -1.12,-2.08 0,-1.12 0,0 Z"
           style="fill:#ffffff;fill-opacity:1;fill-rule:nonzero;stroke:none"
           transform="translate(490.23999,577.11999)" /><path
           id="path189"
           d="m 0,0 c 0,1.12 -1.12,2.24 -2.24,2.24 -1.12,0 -2.08,-1.12 -2.08,-2.24 0,-1.12 0.96,-2.08 2.08,-2.08 C -1.12,-2.08 0,-1.12 0,0 Z"
           style="fill:#ffffff;fill-opacity:1;fill-rule:nonzero;stroke:none"
           transform="translate(307.84,563.67999)" /><path
           id="path190"
           d="m 0,0 c 0,1.12 -1.12,2.24 -2.24,2.24 -1.12,0 -2.08,-1.12 -2.08,-2.24 0,-1.12 0.96,-2.08 2.08,-2.08 C -1.12,-2.08 0,-1.12 0,0 Z"
           style="fill:#ffffff;fill-opacity:1;fill-rule:nonzero;stroke:none"
           transform="translate(307.84,659.67999)" /><path
           id="path191"
           d="m 0,0 c 0,1.12 -1.12,2.24 -2.24,2.24 -1.12,0 -2.08,-1.12 -2.08,-2.24 0,-1.12 0.96,-2.08 2.08,-2.08 C -1.12,-2.08 0,-1.12 0,0 Z"
           style="fill:#ffffff;fill-opacity:1;fill-rule:nonzero;stroke:none"
           transform="translate(307.84,669.28002)" /><path
           id="path192"
           d="m 0,0 c 0,1.12 -1.12,2.24 -2.24,2.24 -1.12,0 -2.08,-1.12 -2.08,-2.24 0,-1.12 0.96,-2.08 2.08,-2.08 C -1.12,-2.08 0,-1.12 0,0 Z"
           style="fill:#ffffff;fill-opacity:1;fill-rule:nonzero;stroke:none"
           transform="translate(307.84,678.88)" /><path
           id="path193"
           d="m 0,0 c 0,1.12 -1.12,2.24 -2.24,2.24 -1.12,0 -2.08,-1.12 -2.08,-2.24 0,-1.12 0.96,-2.08 2.08,-2.08 C -1.12,-2.08 0,-1.12 0,0 Z"
           style="fill:#ffffff;fill-opacity:1;fill-rule:nonzero;stroke:none"
           transform="translate(307.84,688.47997)" /><path
           id="path194"
           d="m 0,0 c 0,1.12 -1.12,2.24 -2.24,2.24 -1.12,0 -2.08,-1.12 -2.08,-2.24 0,-1.12 0.96,-2.08 2.08,-2.08 C -1.12,-2.08 0,-1.12 0,0 Z"
           style="fill:#ffffff;fill-opacity:1;fill-rule:nonzero;stroke:none"
           transform="translate(307.84,698.08001)" /><path
           id="path195"
           d="m 0,0 c 0,1.12 -1.12,2.24 -2.24,2.24 -1.12,0 -2.08,-1.12 -2.08,-2.24 0,-1.12 0.96,-2.08 2.08,-2.08 C -1.12,-2.08 0,-1.12 0,0 Z"
           style="fill:#ffffff;fill-opacity:1;fill-rule:nonzero;stroke:none"
           transform="translate(307.84,650.08001)" /><path
           id="path196"
           d="m 0,0 c 0,1.12 -1.12,2.24 -2.24,2.24 -1.12,0 -2.08,-1.12 -2.08,-2.24 0,-1.12 0.96,-2.08 2.08,-2.08 C -1.12,-2.08 0,-1.12 0,0 Z"
           style="fill:#ffffff;fill-opacity:1;fill-rule:nonzero;stroke:none"
           transform="translate(307.84,602.08001)" /><path
           id="path197"
           d="m 0,0 c 0,1.12 -1.12,2.24 -2.24,2.24 -1.12,0 -2.08,-1.12 -2.08,-2.24 0,-1.12 0.96,-2.08 2.08,-2.08 C -1.12,-2.08 0,-1.12 0,0 Z"
           style="fill:#ffffff;fill-opacity:1;fill-rule:nonzero;stroke:none"
           transform="translate(307.84,611.67999)" /><path
           id="path198"
           d="m 0,0 c 0,1.12 -1.12,2.24 -2.24,2.24 -1.12,0 -2.08,-1.12 -2.08,-2.24 0,-1.12 0.96,-2.08 2.08,-2.08 C -1.12,-2.08 0,-1.12 0,0 Z"
           style="fill:#ffffff;fill-opacity:1;fill-rule:nonzero;stroke:none"
           transform="translate(307.84,621.28002)" /><path
           id="path199"
           d="m 0,0 c 0,1.12 -1.12,2.24 -2.24,2.24 -1.12,0 -2.08,-1.12 -2.08,-2.24 0,-1.12 0.96,-2.08 2.08,-2.08 C -1.12,-2.08 0,-1.12 0,0 Z"
           style="fill:#ffffff;fill-opacity:1;fill-rule:nonzero;stroke:none"
           transform="translate(307.84,630.88)" /><path
           id="path200"
           d="m 0,0 c 0,1.12 -1.12,2.24 -2.24,2.24 -1.12,0 -2.08,-1.12 -2.08,-2.24 0,-1.12 0.96,-2.08 2.08,-2.08 C -1.12,-2.08 0,-1.12 0,0 Z"
           style="fill:#ffffff;fill-opacity:1;fill-rule:nonzero;stroke:none"
           transform="translate(307.84,573.28002)" /><path
           id="path201"
           d="m 0,0 c 0,1.12 -1.12,2.24 -2.24,2.24 -1.12,0 -2.08,-1.12 -2.08,-2.24 0,-1.12 0.96,-2.08 2.08,-2.08 C -1.12,-2.08 0,-1.12 0,0 Z"
           style="fill:#ffffff;fill-opacity:1;fill-rule:nonzero;stroke:none"
           transform="translate(307.84,582.88)" /><path
           id="path202"
           d="m 0,0 c 0,1.12 -1.12,2.24 -2.24,2.24 -1.12,0 -2.08,-1.12 -2.08,-2.24 0,-1.12 0.96,-2.08 2.08,-2.08 C -1.12,-2.08 0,-1.12 0,0 Z"
           style="fill:#ffffff;fill-opacity:1;fill-rule:nonzero;stroke:none"
           transform="translate(307.84,592.47997)" /><path
           id="path203"
           d="M 0,0 C 0,1.12 -0.96,2.08 -2.08,2.08 -3.2,2.08 -4,1.12 -4,0 -4,-1.12 -3.2,-1.92 -2.08,-1.92 -0.96,-1.92 0,-1.12 0,0 Z"
           style="fill:#ffffff;fill-opacity:1;fill-rule:nonzero;stroke:none"
           transform="translate(288.48001,592.47997)" /><path
           id="path204"
           d="M 0,0 C 0,1.12 -0.96,2.08 -2.08,2.08 -3.2,2.08 -4,1.12 -4,0 -4,-1.12 -3.2,-1.92 -2.08,-1.92 -0.96,-1.92 0,-1.12 0,0 Z"
           style="fill:#ffffff;fill-opacity:1;fill-rule:nonzero;stroke:none"
           transform="translate(278.88,525.28002)" /><path
           id="path205"
           d="M 0,0 C 0,1.12 -0.96,2.08 -2.08,2.08 -3.2,2.08 -4,1.12 -4,0 -4,-1.12 -3.2,-1.92 -2.08,-1.92 -0.96,-1.92 0,-1.12 0,0 Z"
           style="fill:#ffffff;fill-opacity:1;fill-rule:nonzero;stroke:none"
           transform="translate(288.48001,525.28002)" /><path
           id="path206"
           d="M 0,0 C 0,1.12 -0.96,2.08 -2.08,2.08 -3.2,2.08 -4,1.12 -4,0 -4,-1.12 -3.2,-1.92 -2.08,-1.92 -0.96,-1.92 0,-1.12 0,0 Z"
           style="fill:#ffffff;fill-opacity:1;fill-rule:nonzero;stroke:none"
           transform="translate(278.88,534.88)" /><path
           id="path207"
           d="M 0,0 C 0,1.12 -0.96,2.08 -2.08,2.08 -3.2,2.08 -4,1.12 -4,0 -4,-1.12 -3.2,-1.92 -2.08,-1.92 -0.96,-1.92 0,-1.12 0,0 Z"
           style="fill:#ffffff;fill-opacity:1;fill-rule:nonzero;stroke:none"
           transform="translate(288.48001,534.88)" /><path
           id="path208"
           d="M 0,0 C 0,1.12 -0.96,2.08 -2.08,2.08 -3.2,2.08 -4,1.12 -4,0 -4,-1.12 -3.2,-1.92 -2.08,-1.92 -0.96,-1.92 0,-1.12 0,0 Z"
           style="fill:#ffffff;fill-opacity:1;fill-rule:nonzero;stroke:none"
           transform="translate(278.88,544.47997)" /><path
           id="path209"
           d="M 0,0 C 0,1.12 -0.96,2.08 -2.08,2.08 -3.2,2.08 -4,1.12 -4,0 -4,-1.12 -3.2,-1.92 -2.08,-1.92 -0.96,-1.92 0,-1.12 0,0 Z"
           style="fill:#ffffff;fill-opacity:1;fill-rule:nonzero;stroke:none"
           transform="translate(278.88,554.08001)" /><path
           id="path210"
           d="M 0,0 C 0,1.12 -0.96,2.08 -2.08,2.08 -3.2,2.08 -4,1.12 -4,0 -4,-1.12 -3.2,-1.92 -2.08,-1.92 -0.96,-1.92 0,-1.12 0,0 Z"
           style="fill:#ffffff;fill-opacity:1;fill-rule:nonzero;stroke:none"
           transform="translate(288.48001,554.08001)" /><path
           id="path211"
           d="M 0,0 C 0,1.12 -0.96,2.08 -2.08,2.08 -3.2,2.08 -4,1.12 -4,0 -4,-1.12 -3.2,-1.92 -2.08,-1.92 -0.96,-1.92 0,-1.12 0,0 Z"
           style="fill:#ffffff;fill-opacity:1;fill-rule:nonzero;stroke:none"
           transform="translate(288.48001,544.47997)" /><path
           id="path212"
           d="M 0,0 C 0,1.12 -0.96,2.08 -2.08,2.08 -3.2,2.08 -4,1.12 -4,0 -4,-1.12 -3.2,-1.92 -2.08,-1.92 -0.96,-1.92 0,-1.12 0,0 Z"
           style="fill:#ffffff;fill-opacity:1;fill-rule:nonzero;stroke:none"
           transform="translate(278.88,563.67999)" /><path
           id="path213"
           d="M 0,0 C 0,1.12 -0.96,2.08 -2.08,2.08 -3.2,2.08 -4,1.12 -4,0 -4,-1.12 -3.2,-1.92 -2.08,-1.92 -0.96,-1.92 0,-1.12 0,0 Z"
           style="fill:#ffffff;fill-opacity:1;fill-rule:nonzero;stroke:none"
           transform="translate(288.48001,563.67999)" /><path
           id="path214"
           d="M 0,0 C 0,1.12 -0.96,2.08 -2.08,2.08 -3.2,2.08 -4,1.12 -4,0 -4,-1.12 -3.2,-1.92 -2.08,-1.92 -0.96,-1.92 0,-1.12 0,0 Z"
           style="fill:#ffffff;fill-opacity:1;fill-rule:nonzero;stroke:none"
           transform="translate(288.48001,573.28002)" /><path
           id="path215"
           d="M 0,0 C 0,1.12 -0.96,2.08 -2.08,2.08 -3.2,2.08 -4,1.12 -4,0 -4,-1.12 -3.2,-1.92 -2.08,-1.92 -0.96,-1.92 0,-1.12 0,0 Z"
           style="fill:#ffffff;fill-opacity:1;fill-rule:nonzero;stroke:none"
           transform="translate(278.88,573.28002)" /><path
           id="path216"
           d="M 0,0 C 0,1.12 -0.96,2.08 -2.08,2.08 -3.2,2.08 -4,1.12 -4,0 -4,-1.12 -3.2,-1.92 -2.08,-1.92 -0.96,-1.92 0,-1.12 0,0 Z"
           style="fill:#ffffff;fill-opacity:1;fill-rule:nonzero;stroke:none"
           transform="translate(278.88,582.88)" /><path
           id="path217"
           d="M 0,0 C 0,1.12 -0.96,2.08 -2.08,2.08 -3.2,2.08 -4,1.12 -4,0 -4,-1.12 -3.2,-1.92 -2.08,-1.92 -0.96,-1.92 0,-1.12 0,0 Z"
           style="fill:#ffffff;fill-opacity:1;fill-rule:nonzero;stroke:none"
           transform="translate(288.48001,582.88)" /><path
           id="path218"
           d="M 0,0 C 0,1.12 -0.96,2.08 -2.08,2.08 -3.2,2.08 -4,1.12 -4,0 -4,-1.12 -3.2,-1.92 -2.08,-1.92 -0.96,-1.92 0,-1.12 0,0 Z"
           style="fill:#ffffff;fill-opacity:1;fill-rule:nonzero;stroke:none"
           transform="translate(278.88,592.47997)" /><path
           id="path219"
           d="M 0,0 C 0,1.12 -0.96,2.08 -2.08,2.08 -3.2,2.08 -4,1.12 -4,0 -4,-1.12 -3.2,-1.92 -2.08,-1.92 -0.96,-1.92 0,-1.12 0,0 Z"
           style="fill:#ffffff;fill-opacity:1;fill-rule:nonzero;stroke:none"
           transform="translate(278.88,602.08001)" /><path
           id="path220"
           d="M 0,0 C 0,1.12 -0.96,2.08 -2.08,2.08 -3.2,2.08 -4,1.12 -4,0 -4,-1.12 -3.2,-1.92 -2.08,-1.92 -0.96,-1.92 0,-1.12 0,0 Z"
           style="fill:#ffffff;fill-opacity:1;fill-rule:nonzero;stroke:none"
           transform="translate(288.48001,602.08001)" /><path
           id="path221"
           d="M 0,0 C 0,1.12 -0.96,2.08 -2.08,2.08 -3.2,2.08 -4,1.12 -4,0 -4,-1.12 -3.2,-1.92 -2.08,-1.92 -0.96,-1.92 0,-1.12 0,0 Z"
           style="fill:#ffffff;fill-opacity:1;fill-rule:nonzero;stroke:none"
           transform="translate(278.88,611.67999)" /><path
           id="path222"
           d="M 0,0 C 0,1.12 -0.96,2.08 -2.08,2.08 -3.2,2.08 -4,1.12 -4,0 -4,-1.12 -3.2,-1.92 -2.08,-1.92 -0.96,-1.92 0,-1.12 0,0 Z"
           style="fill:#ffffff;fill-opacity:1;fill-rule:nonzero;stroke:none"
           transform="translate(288.48001,611.67999)" /><path
           id="path223"
           d="M 0,0 C 0,1.12 -0.96,2.08 -2.08,2.08 -3.2,2.08 -4,1.12 -4,0 -4,-1.12 -3.2,-1.92 -2.08,-1.92 -0.96,-1.92 0,-1.12 0,0 Z"
           style="fill:#ffffff;fill-opacity:1;fill-rule:nonzero;stroke:none"
           transform="translate(278.88,621.28002)" /><path
           id="path224"
           d="M 0,0 C 0,1.12 -0.96,2.08 -2.08,2.08 -3.2,2.08 -4,1.12 -4,0 -4,-1.12 -3.2,-1.92 -2.08,-1.92 -0.96,-1.92 0,-1.12 0,0 Z"
           style="fill:#ffffff;fill-opacity:1;fill-rule:nonzero;stroke:none"
           transform="translate(288.48001,621.28002)" /><path
           id="path225"
           d="M 0,0 C 0,1.12 -0.96,2.08 -2.08,2.08 -3.2,2.08 -4,1.12 -4,0 -4,-1.12 -3.2,-1.92 -2.08,-1.92 -0.96,-1.92 0,-1.12 0,0 Z"
           style="fill:#ffffff;fill-opacity:1;fill-rule:nonzero;stroke:none"
           transform="translate(278.88,630.88)" /><path
           id="path226"
           d="M 0,0 C 0,1.12 -0.96,2.08 -2.08,2.08 -3.2,2.08 -4,1.12 -4,0 -4,-1.12 -3.2,-1.92 -2.08,-1.92 -0.96,-1.92 0,-1.12 0,0 Z"
           style="fill:#ffffff;fill-opacity:1;fill-rule:nonzero;stroke:none"
           transform="translate(288.48001,630.88)" /><path
           id="path227"
           d="M 0,0 C 0,1.12 -0.96,2.08 -2.08,2.08 -3.2,2.08 -4,1.12 -4,0 -4,-1.12 -3.2,-1.92 -2.08,-1.92 -0.96,-1.92 0,-1.12 0,0 Z"
           style="fill:#ffffff;fill-opacity:1;fill-rule:nonzero;stroke:none"
           transform="translate(278.88,640.47997)" /><path
           id="path228"
           d="M 0,0 C 0,1.12 -0.96,2.08 -2.08,2.08 -3.2,2.08 -4,1.12 -4,0 -4,-1.12 -3.2,-1.92 -2.08,-1.92 -0.96,-1.92 0,-1.12 0,0 Z"
           style="fill:#ffffff;fill-opacity:1;fill-rule:nonzero;stroke:none"
           transform="translate(288.48001,640.47997)" /><path
           id="path229"
           d="M 0,0 C 0,1.12 -0.96,2.08 -2.08,2.08 -3.2,2.08 -4,1.12 -4,0 -4,-1.12 -3.2,-1.92 -2.08,-1.92 -0.96,-1.92 0,-1.12 0,0 Z"
           style="fill:#ffffff;fill-opacity:1;fill-rule:nonzero;stroke:none"
           transform="translate(278.88,650.08001)" /><path
           id="path230"
           d="M 0,0 C 0,1.12 -0.96,2.08 -2.08,2.08 -3.2,2.08 -4,1.12 -4,0 -4,-1.12 -3.2,-1.92 -2.08,-1.92 -0.96,-1.92 0,-1.12 0,0 Z"
           style="fill:#ffffff;fill-opacity:1;fill-rule:nonzero;stroke:none"
           transform="translate(288.48001,650.08001)" /><path
           id="path231"
           d="M 0,0 C 0,1.12 -0.96,2.08 -2.08,2.08 -3.2,2.08 -4,1.12 -4,0 -4,-1.12 -3.2,-1.92 -2.08,-1.92 -0.96,-1.92 0,-1.12 0,0 Z"
           style="fill:#ffffff;fill-opacity:1;fill-rule:nonzero;stroke:none"
           transform="translate(278.88,659.67999)" /><path
           id="path232"
           d="M 0,0 C 0,1.12 -0.96,2.08 -2.08,2.08 -3.2,2.08 -4,1.12 -4,0 -4,-1.12 -3.2,-1.92 -2.08,-1.92 -0.96,-1.92 0,-1.12 0,0 Z"
           style="fill:#ffffff;fill-opacity:1;fill-rule:nonzero;stroke:none"
           transform="translate(288.48001,659.67999)" /><path
           id="path233"
           d="M 0,0 C 0,1.12 -0.96,2.08 -2.08,2.08 -3.2,2.08 -4,1.12 -4,0 -4,-1.12 -3.2,-1.92 -2.08,-1.92 -0.96,-1.92 0,-1.12 0,0 Z"
           style="fill:#ffffff;fill-opacity:1;fill-rule:nonzero;stroke:none"
           transform="translate(278.88,669.28002)" /><path
           id="path234"
           d="M 0,0 C 0,1.12 -0.96,2.08 -2.08,2.08 -3.2,2.08 -4,1.12 -4,0 -4,-1.12 -3.2,-1.92 -2.08,-1.92 -0.96,-1.92 0,-1.12 0,0 Z"
           style="fill:#ffffff;fill-opacity:1;fill-rule:nonzero;stroke:none"
           transform="translate(288.48001,669.28002)" /><path
           id="path235"
           d="M 0,0 C 0,1.12 -0.96,2.08 -2.08,2.08 -3.2,2.08 -4,1.12 -4,0 -4,-1.12 -3.2,-1.92 -2.08,-1.92 -0.96,-1.92 0,-1.12 0,0 Z"
           style="fill:#ffffff;fill-opacity:1;fill-rule:nonzero;stroke:none"
           transform="translate(278.88,678.88)" /><path
           id="path236"
           d="M 0,0 C 0,1.12 -0.96,2.08 -2.08,2.08 -3.2,2.08 -4,1.12 -4,0 -4,-1.12 -3.2,-1.92 -2.08,-1.92 -0.96,-1.92 0,-1.12 0,0 Z"
           style="fill:#ffffff;fill-opacity:1;fill-rule:nonzero;stroke:none"
           transform="translate(288.48001,678.88)" /><path
           id="path237"
           d="M 0,0 C 0,1.12 -0.96,2.08 -2.08,2.08 -3.2,2.08 -4,1.12 -4,0 -4,-1.12 -3.2,-1.92 -2.08,-1.92 -0.96,-1.92 0,-1.12 0,0 Z"
           style="fill:#ffffff;fill-opacity:1;fill-rule:nonzero;stroke:none"
           transform="translate(278.88,688.47997)" /><path
           id="path238"
           d="M 0,0 C 0,1.12 -0.96,2.08 -2.08,2.08 -3.2,2.08 -4,1.12 -4,0 -4,-1.12 -3.2,-1.92 -2.08,-1.92 -0.96,-1.92 0,-1.12 0,0 Z"
           style="fill:#ffffff;fill-opacity:1;fill-rule:nonzero;stroke:none"
           transform="translate(288.48001,688.47997)" /><path
           id="path239"
           d="M 0,0 C 0,1.12 -0.96,2.08 -2.08,2.08 -3.2,2.08 -4,1.12 -4,0 -4,-1.12 -3.2,-1.92 -2.08,-1.92 -0.96,-1.92 0,-1.12 0,0 Z"
           style="fill:#ffffff;fill-opacity:1;fill-rule:nonzero;stroke:none"
           transform="translate(278.88,698.08001)" /><path
           id="path240"
           d="M 0,0 C 0,1.12 -0.96,2.08 -2.08,2.08 -3.2,2.08 -4,1.12 -4,0 -4,-1.12 -3.2,-1.92 -2.08,-1.92 -0.96,-1.92 0,-1.12 0,0 Z"
           style="fill:#ffffff;fill-opacity:1;fill-rule:nonzero;stroke:none"
           transform="translate(288.48001,698.08001)" /></g></g></g></svg>
